<svg width="500" height="500" viewBox="0 0 500 500" fill="none" xmlns="http://www.w3.org/2000/svg">
<path d="M180.33 183.4C182.09 195.317 180.275 207.488 175.115 218.373C169.955 229.258 161.682 238.368 151.342 244.549C141.003 250.73 129.062 253.705 117.031 253.097C105.001 252.489 93.4204 248.326 83.7567 241.134C74.093 233.942 66.78 224.045 62.7432 212.696C58.7065 201.346 58.1276 189.054 61.0797 177.375C64.0317 165.696 70.3821 155.156 79.3271 147.087C88.2721 139.019 99.4096 133.786 111.33 132.05C127.289 129.71 143.525 133.805 156.465 143.435C169.405 153.065 177.989 167.441 180.33 183.4V183.4Z" fill="#F5F5F5"/>
<path d="M166 185.49C167.339 194.571 165.954 203.845 162.02 212.138C158.086 220.431 151.781 227.371 143.901 232.08C136.022 236.788 126.923 239.053 117.755 238.587C108.588 238.122 99.7651 234.948 92.4026 229.467C85.0402 223.985 79.4693 216.442 76.3952 207.793C73.3211 199.145 72.8819 189.778 75.1331 180.879C77.3843 171.981 82.2248 163.95 89.042 157.804C95.8592 151.657 104.347 147.671 113.43 146.35C119.452 145.468 125.589 145.78 131.49 147.27C137.391 148.759 142.94 151.396 147.822 155.031C152.704 158.666 156.822 163.226 159.941 168.452C163.06 173.679 165.119 179.468 166 185.49V185.49Z" fill="#EBEBEB"/>
<path d="M165.77 184.05C165.5 184.05 165.01 182.11 163.77 178.71C162.023 173.922 159.547 169.432 156.43 165.4C154.278 162.656 151.834 160.154 149.14 157.94C146.043 155.427 142.635 153.323 139 151.68C137.042 150.783 135.02 150.034 132.95 149.44C130.8 148.803 128.603 148.338 126.38 148.05C124.084 147.732 121.767 147.594 119.45 147.64C117.06 147.698 114.677 147.928 112.32 148.33C109.97 148.766 107.655 149.367 105.39 150.13C103.193 150.889 101.056 151.815 99 152.9C97.0143 153.946 95.1121 155.143 93.31 156.48C91.5731 157.747 89.9351 159.145 88.41 160.66C85.5637 163.442 83.0897 166.582 81.05 170C79.2801 173.004 77.8449 176.193 76.77 179.51C75.2326 184.361 74.4534 189.421 74.46 194.51C74.46 198.14 74.69 200.17 74.46 200.22C74.23 200.27 73.56 198.3 73.13 194.58C72.5699 189.283 73.004 183.928 74.41 178.79C75.3752 175.218 76.7616 171.774 78.54 168.53C80.6005 164.793 83.157 161.352 86.14 158.3C87.7454 156.638 89.4809 155.106 91.33 153.72C93.2433 152.247 95.2733 150.933 97.4 149.79C99.6078 148.611 101.905 147.608 104.27 146.79C106.706 145.935 109.203 145.266 111.74 144.79C114.282 144.355 116.852 144.111 119.43 144.06C121.932 144.025 124.434 144.189 126.91 144.55C129.302 144.897 131.662 145.432 133.97 146.15C136.183 146.814 138.34 147.654 140.42 148.66C144.273 150.501 147.859 152.856 151.08 155.66C153.866 158.094 156.354 160.85 158.49 163.87C161.578 168.212 163.83 173.092 165.13 178.26C166 181.94 166 184 165.77 184.05Z" fill="#E0E0E0"/>
<path d="M129.25 218.79L130.53 226.79L123.41 227.93L122.16 220.17C115.04 220.87 107.92 219.74 103.51 217.31L106 208C110.55 210.194 115.59 211.173 120.63 210.84L118.72 198.94C110.51 198.29 101.25 197.06 99.62 186.87C98.41 179.32 102.86 171.96 113.91 168.87L112.64 160.96L119.77 159.82L121.01 167.58C126.15 167.044 131.344 167.73 136.17 169.58L134.01 178.92C130.352 177.494 126.445 176.814 122.52 176.92L124.46 189.03C132.66 189.62 141.78 190.86 143.39 200.91C144.61 208.37 140.22 215.65 129.25 218.79ZM117.09 188.44L115.47 178.32C111.83 179.78 110.66 182.09 111.04 184.44C111.42 186.79 113.79 188 117.09 188.44ZM132.09 203.65C131.69 201.15 129.41 200.13 126.17 199.55L127.75 209.39C131.19 208 132.46 205.93 132.09 203.65Z" fill="#E0E0E0"/>
<path d="M401.39 128.67C405.946 136.146 408.181 144.805 407.813 153.551C407.445 162.298 404.491 170.739 399.324 177.805C394.156 184.872 387.009 190.247 378.785 193.249C370.562 196.252 361.633 196.747 353.128 194.672C344.623 192.597 336.925 188.046 331.008 181.594C325.091 175.142 321.221 167.08 319.888 158.427C318.555 149.775 319.82 140.922 323.521 132.988C327.222 125.055 333.194 118.398 340.68 113.86C345.638 110.845 351.142 108.837 356.877 107.949C362.612 107.062 368.465 107.313 374.103 108.689C379.741 110.064 385.052 112.536 389.734 115.965C394.416 119.393 398.377 123.711 401.39 128.67V128.67Z" fill="#F5F5F5"/>
<path d="M392.39 134.12C395.864 139.817 397.57 146.417 397.291 153.084C397.012 159.751 394.761 166.186 390.824 171.573C386.886 176.96 381.439 181.058 375.171 183.348C368.903 185.638 362.097 186.016 355.614 184.436C349.131 182.855 343.262 179.387 338.751 174.47C334.241 169.552 331.29 163.407 330.274 156.812C329.257 150.217 330.22 143.468 333.041 137.421C335.862 131.374 340.414 126.299 346.12 122.84C353.753 118.204 362.914 116.788 371.59 118.903C380.266 121.018 387.747 126.491 392.39 134.12V134.12Z" fill="#EBEBEB"/>
<path d="M391.84 133.22C391.67 133.34 390.78 132.15 388.97 130.22C386.449 127.51 383.52 125.209 380.29 123.4C378.072 122.169 375.724 121.186 373.29 120.47C370.505 119.667 367.628 119.223 364.73 119.15C363.167 119.11 361.603 119.183 360.05 119.37C358.432 119.555 356.83 119.866 355.26 120.3C353.631 120.736 352.039 121.301 350.5 121.99C347.323 123.413 344.388 125.322 341.8 127.65C340.546 128.777 339.383 130.001 338.32 131.31C336.294 133.783 334.646 136.543 333.43 139.5C332.313 142.176 331.55 144.986 331.16 147.86C330.828 150.37 330.771 152.908 330.99 155.43C331.335 159.115 332.249 162.725 333.7 166.13C334.7 168.56 335.46 169.86 335.29 169.97C335.12 170.08 334.14 168.97 332.8 166.58C330.926 163.193 329.698 159.486 329.18 155.65C328.814 152.999 328.763 150.313 329.03 147.65C329.529 142.883 331.014 138.272 333.39 134.11C334.275 132.584 335.278 131.129 336.39 129.76C337.521 128.326 338.769 126.988 340.12 125.76C342.888 123.223 346.058 121.161 349.5 119.66C351.165 118.924 352.887 118.326 354.65 117.87C356.346 117.419 358.074 117.105 359.82 116.93C361.48 116.752 363.152 116.705 364.82 116.79C370.623 117.014 376.27 118.736 381.21 121.79C384.507 123.818 387.396 126.443 389.73 129.53C391.36 131.76 392 133.14 391.84 133.22Z" fill="#E0E0E0"/>
<path d="M377.25 166.82L380.36 171.82L375.92 174.6L372.92 169.76C368.35 172.24 363.27 173.51 359.62 173.13L358.67 166.13C362.339 166.314 365.992 165.538 369.27 163.88L364.62 156.46C358.94 158.35 352.4 160.16 348.42 153.8C345.47 149.09 346.36 142.9 352.88 137.71L349.79 132.77L354.24 129.99L357.24 134.84C360.544 133.027 364.233 132.029 368 131.93L369.2 138.79C366.349 138.885 363.545 139.544 360.95 140.73L365.68 148.29C371.34 146.35 377.79 144.61 381.68 150.87C384.57 155.49 383.7 161.61 377.25 166.82ZM360.5 150L356.55 143.69C354.55 145.69 354.4 147.57 355.32 149.04C356.24 150.51 358.16 150.56 360.5 150ZM374.85 155.92C373.85 154.37 372.06 154.33 369.73 154.86L373.57 160.99C375.49 159.07 375.74 157.31 374.85 155.88V155.92Z" fill="#E0E0E0"/>
<path d="M341.82 87.71C338.013 90.1239 333.575 91.354 329.069 91.2446C324.562 91.1352 320.19 89.6913 316.504 87.0955C312.819 84.4998 309.986 80.8689 308.365 76.6626C306.744 72.4563 306.408 67.8636 307.398 63.466C308.389 59.0683 310.662 55.0634 313.929 51.9581C317.197 48.8529 321.313 46.7869 325.755 46.0218C330.198 45.2567 334.767 45.8269 338.885 47.66C343.004 49.4932 346.485 52.507 348.89 56.32C350.487 58.8452 351.571 61.6603 352.08 64.6046C352.589 67.5488 352.513 70.5645 351.857 73.4794C351.2 76.3943 349.976 79.1514 348.254 81.5931C346.532 84.0348 344.346 86.1133 341.82 87.71V87.71Z" fill="#F5F5F5"/>
<path d="M338.93 83.13C336.029 84.9682 332.647 85.9044 329.213 85.8201C325.78 85.7358 322.448 84.6348 319.64 82.6564C316.832 80.678 314.675 77.9112 313.44 74.7061C312.205 71.5009 311.949 68.0015 312.704 64.6507C313.458 61.2999 315.19 58.2483 317.68 55.882C320.169 53.5158 323.305 51.9413 326.69 51.3577C330.075 50.7742 333.557 51.2078 336.695 52.6038C339.833 53.9998 342.487 56.2953 344.32 59.2C345.538 61.125 346.365 63.2711 346.753 65.5157C347.141 67.7603 347.084 70.0595 346.583 72.2818C346.083 74.504 345.149 76.6059 343.836 78.4673C342.523 80.3287 340.856 81.9131 338.93 83.13V83.13Z" fill="#EBEBEB"/>
<path d="M339.38 82.84C339.33 82.75 339.93 82.28 340.91 81.33C342.281 80.0065 343.438 78.4783 344.34 76.8C344.952 75.6467 345.435 74.4294 345.78 73.17C346.171 71.7323 346.372 70.2498 346.38 68.76C346.394 67.954 346.344 67.1481 346.23 66.35C346.119 65.518 345.945 64.6957 345.71 63.89C345.466 63.0577 345.158 62.2453 344.79 61.46C344.405 60.6504 343.964 59.8686 343.47 59.12C342.965 58.3744 342.407 57.6659 341.8 57C341.208 56.3667 340.569 55.7785 339.89 55.24C339.231 54.7199 338.532 54.2518 337.8 53.84C337.104 53.4511 336.378 53.1167 335.63 52.84C334.237 52.2992 332.783 51.9331 331.3 51.75C330.004 51.605 328.696 51.605 327.4 51.75C325.504 51.9579 323.651 52.4607 321.91 53.24C321.276 53.5944 320.605 53.8793 319.91 54.09C320.388 53.5361 320.977 53.0896 321.64 52.78C323.364 51.7742 325.259 51.0962 327.23 50.78C328.6 50.5693 329.989 50.5223 331.37 50.64C332.958 50.7626 334.522 51.099 336.02 51.64C336.834 51.9378 337.623 52.2989 338.38 52.72C339.172 53.1521 339.927 53.647 340.64 54.2C341.383 54.7727 342.082 55.4012 342.73 56.08C343.381 56.7911 343.983 57.5462 344.53 58.34C345.085 59.154 345.577 60.0099 346 60.9C346.404 61.7516 346.738 62.6345 347 63.54C347.248 64.4074 347.426 65.2937 347.53 66.19C347.634 67.0492 347.674 67.9149 347.65 68.78C347.572 71.7728 346.728 74.6956 345.2 77.27C344.185 78.9838 342.859 80.493 341.29 81.72C340.742 82.2269 340.09 82.609 339.38 82.84V82.84Z" fill="#E0E0E0"/>
<path d="M322 75.63L319.46 77.28L318 75L320.46 73.4C319.215 71.3493 318.574 68.9888 318.61 66.59L322.18 66.03C322.122 67.9206 322.553 69.7943 323.43 71.47L327.16 69C326.16 66.09 325.16 62.74 328.38 60.63C330.78 59.07 333.97 59.47 336.71 62.78L339.22 61.15L340.69 63.41L338.23 65C339.19 66.6783 339.742 68.559 339.84 70.49L336.32 71.17C336.234 69.7231 335.867 68.3067 335.24 67L331.39 69.51C332.44 72.4 333.39 75.71 330.21 77.78C327.85 79.29 324.7 78.9 322 75.63ZM330.52 66.85L333.74 64.76C332.69 63.76 331.74 63.69 330.97 64.18C330.2 64.67 330.15 65.65 330.48 66.85H330.52ZM327.6 74.3C328.4 73.78 328.4 72.85 328.11 71.65L324.98 73.65C325.93 74.65 326.84 74.77 327.56 74.3H327.6Z" fill="#E0E0E0"/>
<path d="M472.2 450.44C472.2 450.59 372.71 450.7 250.01 450.7C127.31 450.7 27.8 450.59 27.8 450.44C27.8 450.29 127.27 450.18 250.01 450.18C372.75 450.18 472.2 450.3 472.2 450.44Z" fill="#263238"/>
<path d="M87.26 419.74C88.39 415.37 85.52 410.97 82.26 407.8C79 404.63 75.2 401.8 73.53 397.59C70.82 390.79 74.46 381.99 69.84 376.32C67.12 372.98 62.24 371.86 59.84 368.32C58.57 366.45 58.16 364.15 57.66 361.95C55.1066 350.648 49.5594 340.241 41.6 331.82C41.0689 341.878 43.2517 351.895 47.92 360.82C49.79 364.38 52.09 367.82 52.71 371.82C53.71 378.28 50.11 384.94 51.71 391.28C53.52 398.54 61.71 403.4 62.06 410.87C62.39 417.19 56.88 422.73 57.29 429.04C57.6253 431.723 58.588 434.289 60.1 436.53C65 444.69 72.15 450.28 83 450.1L96.32 450.56L87.26 419.74Z" fill="#5ABB81"/>
<g opacity="0.3">
<path opacity="0.3" d="M87.7382 419.92C88.8682 415.55 85.9982 411.15 82.7382 407.98C79.4782 404.81 75.6782 401.98 74.0082 397.77C71.2982 390.97 74.9382 382.17 70.3182 376.5C67.5982 373.16 62.7182 372.04 60.3182 368.5C59.0482 366.63 58.6382 364.33 58.1382 362.13C55.5848 350.828 50.0376 340.421 42.0782 332C41.5471 342.058 43.7299 352.075 48.3982 361C50.2682 364.56 52.5682 368 53.1882 372C54.1882 378.46 50.5882 385.12 52.1882 391.46C53.9982 398.72 62.1882 403.58 62.5382 411.05C62.8682 417.37 57.3582 422.91 57.7682 429.22C58.1035 431.903 59.0662 434.469 60.5782 436.71C65.4782 444.87 72.6282 450.46 83.4782 450.28L96.7982 450.74L87.7382 419.92Z" fill="black"/>
</g>
<path d="M99 450.47C100.218 450.66 101.46 450.637 102.67 450.4C104.142 450.176 105.588 449.811 106.99 449.31C108.923 448.637 110.731 447.647 112.34 446.38C113.305 445.601 114.061 444.594 114.54 443.45C114.945 442.155 115.154 440.807 115.16 439.45C115.19 438.009 115.297 436.57 115.48 435.14C115.736 433.621 116.286 432.167 117.1 430.86C118.67 428.1 121.28 425.49 122.1 421.74C122.92 417.99 122.36 414.07 121.74 410.07C121.12 406.07 120.52 401.72 122.05 397.56C123.58 393.4 126.4 389.63 127.86 384.94C129.32 380.25 128.64 375.09 128.94 370.06C129.039 367.508 129.629 364.998 130.68 362.67C131.76 360.31 133.25 358.09 134.42 355.6C136.78 350.6 137.2 344.9 137.85 339.33C138.163 336.517 138.497 333.68 138.85 330.82C139.051 327.937 139.547 325.082 140.33 322.3C141.229 319.493 142.294 316.741 143.52 314.06C144.149 312.667 144.664 311.226 145.06 309.75C145.286 308.232 145.43 306.703 145.49 305.17C145.638 302.092 145.521 299.008 145.14 295.95C144.78 292.88 144.22 289.83 143.89 286.75L143.83 286.22L143.76 285.61L143.22 285.88C140.397 287.319 137.943 289.389 136.05 291.93C134.203 294.414 132.718 297.148 131.64 300.05C129.42 305.77 128.64 311.77 127.5 317.49C126.36 323.21 125 328.86 122 333.62C120.55 335.99 118.78 338.15 117.23 340.47C115.582 342.725 114.455 345.317 113.93 348.06C113.14 353.69 116.24 358.64 115.6 363.63C115.293 366.081 114.465 368.437 113.17 370.54C111.96 372.67 110.54 374.64 109.17 376.63C107.793 378.564 106.595 380.619 105.59 382.77C104.652 384.882 104.1 387.144 103.96 389.45C103.63 393.94 104.27 398.2 103.96 402.22C103.592 406.049 102.478 409.769 100.68 413.17C99.06 416.44 97.27 419.41 95.77 422.28C95.02 423.72 94.32 425.12 93.77 426.52C93.2375 427.883 92.8455 429.297 92.6 430.74C92.2072 433.256 92.1769 435.815 92.51 438.34C92.8649 441.851 94.1873 445.196 96.33 448C96.6543 448.418 97.0121 448.81 97.4 449.17C97.6679 449.445 97.9627 449.693 98.28 449.91C98.77 450.28 99.04 450.44 99.04 450.44C98.0848 449.692 97.2191 448.836 96.46 447.89C94.4042 445.07 93.1529 441.745 92.84 438.27C92.5459 435.774 92.6032 433.25 93.01 430.77C93.2664 429.364 93.6617 427.988 94.19 426.66C94.76 425.29 95.46 423.89 96.19 422.47C97.71 419.63 99.52 416.68 101.19 413.38C103.049 409.928 104.205 406.142 104.59 402.24C104.94 398.13 104.33 393.86 104.67 389.47C104.813 387.242 105.355 385.057 106.27 383.02C107.263 380.915 108.448 378.907 109.81 377.02C111.15 375.02 112.59 373.07 113.81 370.89C115.164 368.703 116.033 366.251 116.36 363.7C117 358.38 113.92 353.4 114.72 348.17C115.23 345.543 116.32 343.063 117.91 340.91C119.43 338.63 121.21 336.47 122.71 334.04C125.71 329.14 127.2 323.41 128.31 317.66C129.42 311.91 130.24 305.97 132.43 300.36C133.477 297.536 134.922 294.876 136.72 292.46C138.531 290.022 140.883 288.036 143.59 286.66L142.97 286.32L143.03 286.86C143.37 289.97 143.92 293.03 144.28 296.06C144.656 299.071 144.773 302.109 144.63 305.14C144.576 306.63 144.439 308.115 144.22 309.59C143.84 311.012 143.341 312.401 142.73 313.74C141.499 316.452 140.427 319.233 139.52 322.07C138.72 324.896 138.217 327.799 138.02 330.73C137.7 333.603 137.387 336.443 137.08 339.25C136.44 344.84 136.02 350.44 133.75 355.25C132.62 357.66 131.13 359.89 130.02 362.33C128.936 364.744 128.328 367.345 128.23 369.99C127.94 375.13 128.61 380.16 127.23 384.71C125.85 389.26 122.95 393.02 121.48 397.32C120.01 401.62 120.56 406.16 121.19 410.14C121.82 414.12 122.48 418.05 121.62 421.6C120.76 425.15 118.32 427.76 116.72 430.6C115.883 431.961 115.322 433.473 115.07 435.05C114.892 436.497 114.798 437.952 114.79 439.41C114.788 440.721 114.596 442.024 114.22 443.28C113.775 444.372 113.063 445.334 112.15 446.08C110.585 447.339 108.825 448.335 106.94 449.03C105.556 449.547 104.126 449.932 102.67 450.18C101.775 450.343 100.869 450.433 99.96 450.45C99.36 450.46 99 450.47 99 450.47Z" fill="#263238"/>
<path d="M141.12 293.57C141.062 293.702 141.018 293.839 140.99 293.98C140.91 294.3 140.82 294.69 140.7 295.18C140.44 296.23 140.12 297.81 139.62 299.79C139.12 301.77 137.89 303.99 136.86 306.74C135.644 309.834 134.586 312.988 133.69 316.19C132.69 319.74 131.77 323.69 130.83 327.91C129.89 332.13 128.89 336.65 126.57 340.91C125.48 343.07 124.25 345.26 123.27 347.66C122.311 350.115 121.669 352.682 121.36 355.3C120.688 360.717 119.726 366.095 118.48 371.41C115.81 382.33 113.27 392.72 110.95 402.19L104.64 427.29C102.89 434.39 101.46 440.16 100.46 444.22C100 446.22 99.63 447.72 99.36 448.84C99.26 449.33 99.17 449.73 99.1 450.05C99.0602 450.183 99.04 450.321 99.04 450.46C99.1035 450.336 99.1537 450.205 99.19 450.07L99.53 448.88C99.84 447.77 100.25 446.24 100.78 444.31C101.85 440.25 103.37 434.51 105.23 427.43L111.72 402.38C114.06 392.91 116.62 382.52 119.32 371.6C120.563 366.261 121.521 360.86 122.19 355.42C122.484 352.881 123.092 350.389 124 348C124.94 345.67 126.15 343.49 127.24 341.3C129.59 336.96 130.56 332.3 131.5 328.1C132.44 323.9 133.27 319.93 134.24 316.38C135.21 312.83 136.24 309.68 137.24 306.95C138.24 304.22 139.39 301.95 139.88 299.9C140.37 297.85 140.6 296.31 140.81 295.24C140.89 294.75 140.96 294.35 141.02 294.03C141.071 293.881 141.105 293.727 141.12 293.57Z" fill="#263238"/>
<path d="M101.39 450.56C110.09 445.39 112.59 430.09 108.96 420.64C105.33 411.19 98.96 402.56 97.96 392.49C97.2 384.75 99.74 376.8 97.96 369.23C95.54 359 85.57 351.11 85.69 340.61C85.75 334.72 89.1 329.18 88.84 323.29C88.51 316.08 82.97 310.35 79.54 303.99C74.28 294.26 73.94 282.75 72.14 271.84C70.34 260.93 66.14 249.24 56.52 243.84C55.09 253.1 52.65 259.45 53.42 272C53.69 276.51 58.93 285.13 59.64 295C60.07 300.91 60.36 306.82 60.72 312.73C61.07 318.48 61.44 324.33 63.51 329.73C65.09 333.86 67.62 337.6 68.8 341.86C71 349.86 68.1 358.54 69.88 366.65C71.39 373.52 76.15 379.44 77.12 386.41C78.49 396.2 72.12 406.41 75.39 415.71C77 420.35 80.82 424.07 81.9 428.85C82.74 432.57 81.82 436.5 82.58 440.23C83.81 446.23 95.27 450.91 101.39 450.53" fill="#5ABB81"/>
<path d="M58.91 253.07C58.8943 253.246 58.8943 253.424 58.91 253.6C58.91 253.99 59.03 254.49 59.11 255.12C59.31 256.46 59.53 258.42 59.98 260.96C60.43 263.5 61.79 266.39 62.84 269.86C63.89 273.33 65.05 277.31 66.03 281.77C67.01 286.23 67.85 291.18 68.72 296.49C69.59 301.8 70.55 307.6 73.18 313.14C74.4 315.92 75.77 318.7 76.8 321.67C77.8039 324.714 78.4188 327.872 78.63 331.07C79.1186 337.864 79.9732 344.628 81.19 351.33C83.85 365.06 86.39 378.13 88.7 390.04C91.01 401.95 93.33 412.57 95.17 421.56C97.01 430.55 98.55 437.73 99.61 442.8C100.14 445.26 100.56 447.19 100.86 448.57C101 449.19 101.12 449.68 101.21 450.06C101.239 450.231 101.286 450.399 101.35 450.56C101.356 450.385 101.336 450.209 101.29 450.04C101.22 449.66 101.14 449.16 101.03 448.53C100.77 447.15 100.4 445.21 99.94 442.73C98.94 437.65 97.52 430.39 95.77 421.44C94.02 412.49 91.84 401.75 89.47 389.88L82.03 351.19C80.8307 344.51 79.9896 337.77 79.51 331C79.2841 327.736 78.6456 324.514 77.61 321.41C76.55 318.41 75.17 315.59 73.94 312.83C71.32 307.38 70.4 301.68 69.46 296.38C68.52 291.08 67.69 286.12 66.66 281.65C65.63 277.18 64.49 273.18 63.33 269.72C62.17 266.26 60.87 263.39 60.33 260.9C59.79 258.41 59.55 256.42 59.33 255.1C59.21 254.48 59.12 253.98 59.05 253.59C59.027 253.411 58.9799 253.236 58.91 253.07Z" fill="#263238"/>
<path d="M438 391C439.352 391.644 440.559 392.555 441.551 393.677C442.542 394.799 443.297 396.109 443.77 397.53C444.695 400.383 444.959 403.41 444.54 406.38C443.89 412.13 440.62 417.92 437.11 422.51C432.27 418.29 431.11 410.93 430.83 407.16C430.31 401.16 432.98 390.11 438 391" fill="#5ABB81"/>
<path d="M442.72 432C442.397 430.362 442.51 428.669 443.049 427.089C443.588 425.509 444.533 424.099 445.79 423C447.07 421.923 448.551 421.111 450.148 420.611C451.744 420.112 453.424 419.934 455.09 420.09C455.862 420.081 456.627 420.24 457.331 420.556C458.036 420.872 458.663 421.338 459.17 421.92C459.549 422.538 459.756 423.246 459.768 423.97C459.78 424.695 459.598 425.41 459.24 426.04C458.506 427.292 457.454 428.327 456.19 429.04C452 431.67 447.46 433.45 442.72 432.04" fill="#5ABB81"/>
<path d="M436.52 449.58C436.543 449.183 436.6 448.788 436.69 448.4C436.84 447.57 437.04 446.5 437.28 445.21C437.815 441.651 438.926 438.202 440.57 435C442.272 431.805 444.795 429.123 447.88 427.23C448.822 426.668 449.829 426.225 450.88 425.91C451.162 425.82 451.449 425.747 451.74 425.69C451.94 425.69 452.05 425.63 452.05 425.69C449.657 426.462 447.443 427.705 445.536 429.345C443.63 430.985 442.071 432.989 440.95 435.24C439.34 438.388 438.208 441.759 437.59 445.24C437.29 446.58 437.05 447.66 436.87 448.4C436.795 448.804 436.678 449.2 436.52 449.58V449.58Z" fill="#263238"/>
<path d="M436.7 399.59C436.732 399.762 436.752 399.935 436.76 400.11C436.76 400.49 436.81 400.98 436.85 401.59C436.92 402.87 436.99 404.73 437.07 407.04C437.21 411.64 437.33 418.04 437.3 425.04C437.27 432.04 437.1 438.43 436.91 443.04C436.82 445.34 436.72 447.2 436.64 448.49C436.64 449.09 436.57 449.58 436.54 449.97C436.539 450.142 436.518 450.313 436.48 450.48C436.465 450.307 436.465 450.133 436.48 449.96C436.48 449.58 436.48 449.09 436.48 448.48C436.48 447.14 436.56 445.29 436.61 443.03C436.73 438.43 436.85 432.03 436.88 425.03C436.91 418.03 436.88 411.65 436.77 407.03C436.77 404.77 436.71 402.92 436.68 401.58V400.1C436.672 399.93 436.679 399.759 436.7 399.59V399.59Z" fill="#263238"/>
<path d="M434.35 435.46C433.767 431.979 432.363 428.687 430.253 425.858C428.143 423.028 425.39 420.742 422.22 419.19C420.61 418.41 418.49 417.91 417.17 419.11C415.85 420.31 416.17 422.48 416.78 424.11C418.204 427.577 420.622 430.545 423.728 432.641C426.835 434.737 430.492 435.867 434.24 435.89" fill="#5ABB81"/>
<path d="M423 424.64C423.347 424.752 423.683 424.9 424 425.08C424.398 425.264 424.785 425.471 425.16 425.7C425.669 425.985 426.163 426.295 426.64 426.63C427.225 427.023 427.789 427.447 428.33 427.9C428.957 428.412 429.558 428.956 430.13 429.53C431.428 430.861 432.572 432.333 433.54 433.92C434.482 435.525 435.237 437.233 435.79 439.01C436.023 439.786 436.213 440.574 436.36 441.37C436.493 442.064 436.59 442.765 436.65 443.47C436.709 444.048 436.735 444.629 436.73 445.21C436.757 445.646 436.757 446.084 436.73 446.52C436.727 446.896 436.686 447.271 436.61 447.64C436.51 447.64 436.68 446.04 436.4 443.5C436.323 442.808 436.209 442.12 436.06 441.44C435.904 440.659 435.704 439.888 435.46 439.13C434.901 437.385 434.15 435.709 433.22 434.13C432.27 432.567 431.154 431.112 429.89 429.79C429.335 429.217 428.751 428.673 428.14 428.16C427.621 427.697 427.077 427.263 426.51 426.86C424.42 425.38 423 424.72 423 424.64Z" fill="#263238"/>
<path d="M370.44 229.613C370.44 229.613 323.75 196.523 317.84 193.273C312.21 190.173 294.34 187.923 292.74 187.533L260.74 180.533L211.86 181.993L197.86 190.423L162.38 206.803C152.71 211.258 145.088 219.212 141.05 229.063L118.65 283.773L174.28 300.213L176.01 357.923L162.9 448.843H325.58L317.39 274.593L334.33 278.323L370.44 229.613Z" fill="#263238"/>
<path d="M175.28 276.973C175.28 276.973 174.69 277.403 173.56 278.063C171.968 279.03 170.201 279.676 168.36 279.963C165.603 280.156 162.837 279.754 160.25 278.783C157.06 277.721 153.968 276.383 151.01 274.783C147.84 273.133 144.87 271.463 142.09 270.123C139.638 268.899 137.09 267.878 134.47 267.073C132.701 266.541 130.887 266.173 129.05 265.973C128.4 265.903 127.9 265.873 127.55 265.863H127.03C127.698 265.839 128.366 265.862 129.03 265.933C130.876 266.083 132.701 266.418 134.48 266.933C137.114 267.713 139.677 268.717 142.14 269.933C144.94 271.273 147.91 272.933 151.08 274.593C154.029 276.182 157.107 277.52 160.28 278.593C162.832 279.556 165.558 279.969 168.28 279.803C170.105 279.535 171.86 278.917 173.45 277.983C174.02 277.663 174.45 277.403 174.75 277.223C175.05 277.043 175.28 276.973 175.28 276.973Z" fill="white"/>
<path d="M172.9 250.013H172.53L171.47 249.963C170.55 249.913 169.22 249.813 167.58 249.653C159.038 248.793 150.638 246.858 142.58 243.893C141.03 243.323 139.79 242.833 138.94 242.473L137.94 242.053L137.6 241.893L137.96 242.013L138.96 242.393C139.82 242.733 141.07 243.203 142.62 243.753C150.699 246.643 159.09 248.573 167.62 249.503C169.25 249.683 170.62 249.813 171.49 249.883L172.55 249.973L172.9 250.013Z" fill="white"/>
<path d="M207.87 193.273C207.87 193.273 207.45 193.953 206.57 195.093C205.315 196.694 203.875 198.141 202.28 199.403C199.891 201.254 197.289 202.811 194.53 204.043C191.154 205.553 187.675 206.823 184.12 207.843C180.35 208.963 176.75 209.953 173.52 211.013C170.648 211.922 167.847 213.042 165.14 214.363C163.316 215.251 161.57 216.292 159.92 217.473C159.32 217.873 158.92 218.243 158.6 218.473C158.28 218.703 158.13 218.813 158.13 218.813C158.13 218.813 158.72 218.273 159.87 217.403C161.51 216.198 163.25 215.134 165.07 214.223C167.779 212.887 170.584 211.754 173.46 210.833C176.69 209.753 180.3 208.763 184.06 207.643C187.606 206.628 191.078 205.368 194.45 203.873C197.198 202.65 199.795 201.113 202.19 199.293C203.803 198.058 205.269 196.642 206.56 195.073C207.03 194.533 207.32 194.073 207.56 193.763C207.8 193.453 207.87 193.273 207.87 193.273Z" fill="white"/>
<path d="M307.92 200.723C307.92 200.723 307.77 200.653 307.49 200.493C307.21 200.333 306.83 200.093 306.29 199.823C304.802 199.029 303.25 198.36 301.65 197.823C299.272 197.025 296.839 196.4 294.37 195.953C291.59 195.423 288.5 195.013 285.26 194.553L268.68 192.203L263.68 191.463L262.31 191.253L261.84 191.163L262.32 191.213L263.69 191.383L268.69 192.053L285.28 194.343C288.52 194.793 291.61 195.213 294.4 195.753C296.872 196.208 299.306 196.849 301.68 197.673C303.285 198.228 304.838 198.924 306.32 199.753C307.38 200.343 307.92 200.723 307.92 200.723Z" fill="white"/>
<path d="M285.28 211.763C285.28 211.763 284.91 211.943 284.2 212.253C283.49 212.563 282.43 213.013 281.06 213.563C278.31 214.653 274.3 216.163 269.22 217.643C263.276 219.405 257.214 220.742 251.08 221.643C244.15 222.703 236.42 222.703 228.37 222.433C220.32 222.163 212.61 221.823 205.63 222.263C199.447 222.563 193.331 223.679 187.44 225.583C183.472 226.889 179.703 228.736 176.24 231.073C175.05 231.933 174.12 232.613 173.54 233.133C172.96 233.653 172.62 233.883 172.62 233.883C172.62 233.883 172.92 233.603 173.51 233.103C174.1 232.603 175 231.883 176.2 231.003C179.65 228.633 183.417 226.761 187.39 225.443C193.29 223.516 199.421 222.383 205.62 222.073C212.62 221.623 220.31 221.963 228.37 222.223C236.43 222.483 244.14 222.503 251.06 221.453C257.187 220.549 263.242 219.213 269.18 217.453C274.25 215.993 278.27 214.503 281.03 213.453C282.41 212.913 283.47 212.453 284.18 212.173L285.28 211.763Z" fill="white"/>
<path d="M300.6 221.543C300.546 221.583 300.485 221.613 300.42 221.633L299.89 221.823C299.43 221.993 298.76 222.213 297.89 222.453C295.7 223.078 293.437 223.414 291.16 223.453C288.88 223.455 286.611 223.118 284.43 222.453C283.59 222.203 282.92 221.973 282.43 221.793L281.91 221.583L281.73 221.493H281.93L282.46 221.663C282.92 221.823 283.59 222.033 284.46 222.263C286.638 222.87 288.889 223.173 291.15 223.163C293.415 223.098 295.665 222.762 297.85 222.163C298.68 221.933 299.36 221.743 299.85 221.593L300.38 221.443L300.6 221.543Z" fill="white"/>
<path d="M269.05 249.843C269.05 249.843 264.25 250.843 256.42 252.023C252.5 252.613 247.82 253.193 242.61 253.713C237.4 254.233 231.61 254.623 225.61 254.853C219.61 255.083 213.81 255.063 208.61 254.953C203.41 254.843 198.61 254.563 194.71 254.263C186.81 253.663 181.96 253.003 181.96 253.003L182.84 253.073L185.38 253.323C187.58 253.553 190.77 253.833 194.72 254.113C198.67 254.393 203.38 254.623 208.61 254.753C213.84 254.883 219.61 254.853 225.61 254.643C231.61 254.433 237.38 254.003 242.61 253.523C247.84 253.043 252.5 252.443 256.42 251.873C260.34 251.303 263.5 250.803 265.68 250.413L268.19 249.973L269.05 249.843Z" fill="white"/>
<path d="M308.21 247.003H307.85H306.85C305.94 247.003 304.63 247.003 303.01 247.003C299.77 247.003 295.29 246.873 290.37 246.453C285.45 246.033 281 245.363 277.82 244.783C276.22 244.503 274.94 244.243 274.05 244.053L273.05 243.833L272.7 243.743H273.06L274.06 243.923L277.83 244.593C281.02 245.133 285.45 245.773 290.37 246.193C295.29 246.613 299.77 246.753 303 246.803H306.84H307.84L308.21 247.003Z" fill="white"/>
<path d="M258.28 288.223C258.28 288.223 257.99 288.283 257.46 288.353L255.1 288.683C254.1 288.833 252.82 289.003 251.35 289.103C249.88 289.203 248.22 289.403 246.35 289.433C244.48 289.463 242.48 289.603 240.35 289.563C239.26 289.563 238.14 289.563 236.98 289.563L233.41 289.443C228.52 289.253 223.16 288.883 217.54 288.443C211.92 288.003 206.54 287.443 201.69 287.153C196.84 286.863 192.42 286.643 188.69 286.703H186.06L183.71 286.823C182.25 286.883 180.98 286.953 179.96 287.083L177.59 287.313L176.76 287.383C176.76 287.383 177.05 287.333 177.59 287.273L179.95 286.993C180.95 286.853 182.24 286.783 183.71 286.703L186.06 286.573H188.69C192.39 286.503 196.8 286.683 201.69 286.983C206.58 287.283 211.92 287.783 217.54 288.253C223.16 288.723 228.54 289.113 233.4 289.323L236.96 289.453C238.12 289.453 239.24 289.453 240.33 289.453C242.5 289.453 244.52 289.403 246.33 289.353C248.14 289.303 249.84 289.133 251.33 289.043C252.82 288.953 254.05 288.803 255.08 288.663L257.44 288.373L258.28 288.223Z" fill="white"/>
<path d="M317.13 276.483L316.69 276.553L315.41 276.683C314.31 276.803 312.7 276.933 310.72 277.073C306.72 277.343 301.25 277.533 295.18 277.383C289.11 277.233 283.62 276.733 279.67 276.253C277.67 276.013 276.1 275.793 275 275.623L273.74 275.423L273.3 275.333L273.74 275.383L275.01 275.543C276.11 275.693 277.71 275.893 279.69 276.113C283.64 276.553 289.11 277.013 295.18 277.173C301.25 277.333 306.74 277.173 310.71 276.923C312.71 276.813 314.3 276.693 315.41 276.603L316.68 276.503L317.13 276.483Z" fill="white"/>
<path d="M317.84 312.823L316.38 312.743C315.38 312.743 314.01 312.543 312.19 312.493C308.55 312.303 303.28 312.263 296.77 312.583C290.26 312.903 282.55 313.673 274.01 314.803C265.47 315.933 256.11 317.403 246.28 318.643C236.996 319.895 227.647 320.606 218.28 320.773C210.643 320.903 203.009 320.351 195.47 319.123C190.389 318.285 185.388 317.021 180.52 315.343C179.65 315.073 178.9 314.783 178.25 314.523L176.59 313.863C175.7 313.513 175.24 313.313 175.24 313.313L176.61 313.823L178.27 314.463C178.92 314.723 179.68 315.003 180.55 315.273C185.423 316.918 190.423 318.155 195.5 318.973C203.032 320.176 210.654 320.715 218.28 320.583C227.648 320.395 236.996 319.667 246.28 318.403C256.13 317.133 265.49 315.673 274.04 314.573C282.59 313.473 290.28 312.733 296.77 312.403C301.907 312.141 307.053 312.141 312.19 312.403C315.83 312.613 317.84 312.823 317.84 312.823Z" fill="white"/>
<path d="M262.85 350.163C262.85 350.163 258.04 350.983 250.2 351.823C246.29 352.243 241.61 352.623 236.41 352.923C231.21 353.223 225.47 353.363 219.46 353.333C213.45 353.303 207.72 353.023 202.52 352.683C197.32 352.343 192.65 351.863 188.74 351.383C180.91 350.383 176.12 349.543 176.12 349.543L177 349.653L179.51 350.023C180.59 350.193 181.93 350.383 183.51 350.573C185.09 350.763 186.83 351.033 188.78 351.233C192.7 351.693 197.37 352.133 202.56 352.493C207.75 352.853 213.48 353.063 219.49 353.123C225.5 353.183 231.23 352.993 236.43 352.733C241.63 352.473 246.3 352.083 250.22 351.673C252.22 351.493 253.95 351.263 255.5 351.093C257.05 350.923 258.39 350.743 259.5 350.593L262.01 350.263L262.85 350.163Z" fill="white"/>
<path d="M317.28 343.003C317.28 343.003 317.09 343.073 316.74 343.173L315.21 343.643C313.87 344.043 311.93 344.593 309.52 345.243C304.71 346.533 298 348.133 290.52 349.503C283.04 350.873 276.19 351.763 271.23 352.263C268.75 352.513 266.74 352.683 265.35 352.783L263.75 352.893H263.19L263.74 352.823L265.34 352.673C266.73 352.553 268.74 352.353 271.21 352.083C276.21 351.543 283 350.643 290.48 349.273C297.96 347.903 304.66 346.323 309.48 345.063C311.89 344.443 313.83 343.913 315.17 343.533L316.72 343.103L317.28 343.003Z" fill="white"/>
<path d="M224.7 391.853C222.123 392.253 219.526 392.51 216.92 392.623C214.51 392.753 211.63 392.763 208.43 392.623C201.495 392.291 194.624 391.14 187.96 389.193C184.89 388.283 182.17 387.333 179.96 386.423C177.535 385.46 175.162 384.372 172.85 383.163L173.35 383.383L174.76 384.033C175.37 384.323 176.12 384.673 177.01 385.033C177.9 385.393 178.88 385.853 180.01 386.273C182.25 387.173 185.01 388.103 188.01 389.003C191.341 389.944 194.719 390.712 198.13 391.303C201.546 391.843 204.987 392.21 208.44 392.403C211.63 392.543 214.5 392.553 216.91 392.403C218.12 392.403 219.21 392.273 220.17 392.213C221.13 392.153 221.94 392.063 222.62 391.993L224.16 391.833L224.7 391.853Z" fill="white"/>
<path d="M320.9 389.303L319.9 389.483L317.04 389.943C314.56 390.333 310.96 390.883 306.51 391.513C297.61 392.783 285.28 394.363 271.63 395.723C257.98 397.083 245.57 397.943 236.63 398.443C232.14 398.693 228.5 398.873 225.99 398.973L223.1 399.083H222.1L223.1 399.023L225.99 398.873L236.62 398.283C245.62 397.743 257.98 396.843 271.62 395.493C285.26 394.143 297.62 392.583 306.5 391.353L317.04 389.843L319.9 389.423L320.9 389.303Z" fill="white"/>
<path d="M326.14 426.133C326.14 426.133 323.96 426.593 319.97 427.243C315.98 427.893 310.2 428.703 302.97 429.303C294.539 429.99 286.075 430.197 277.62 429.923C268.07 429.613 257.62 428.543 246.69 427.203C235.76 425.863 225.34 424.513 215.83 423.773C207.407 423.047 198.947 422.856 190.5 423.203C184.796 423.469 179.117 424.117 173.5 425.143C171.5 425.523 169.98 425.843 168.95 426.093L167.37 426.453C167.37 426.453 167.91 426.303 168.94 426.053C169.97 425.803 171.5 425.463 173.48 425.053C179.093 423.992 184.774 423.324 190.48 423.053C198.929 422.674 207.393 422.844 215.82 423.563C225.35 424.303 235.76 425.653 246.69 426.993C257.62 428.333 268.07 429.403 277.61 429.713C286.057 430.001 294.514 429.811 302.94 429.143C310.13 428.563 315.94 427.773 319.94 427.143C321.94 426.823 323.48 426.573 324.53 426.383L326.14 426.133Z" fill="white"/>
<path d="M355.48 220.663C355.48 220.663 355.19 221.453 354.54 222.833C353.603 224.773 352.513 226.636 351.28 228.403C349.446 231.016 347.442 233.505 345.28 235.853C342.86 238.533 340.08 241.353 337.28 244.413C334.606 247.26 332.165 250.316 329.98 253.553C328.2 256.199 326.759 259.058 325.69 262.063C324.962 264.11 324.488 266.24 324.28 268.403C324.18 269.153 324.21 269.753 324.18 270.153C324.15 270.553 324.18 270.763 324.18 270.763C324.154 269.973 324.174 269.181 324.24 268.393C324.412 266.238 324.859 264.114 325.57 262.073C326.625 259.051 328.06 256.174 329.84 253.513C332.025 250.258 334.47 247.184 337.15 244.323C339.97 241.273 342.76 238.453 345.15 235.783C347.307 233.444 349.311 230.969 351.15 228.373C352.396 226.622 353.503 224.777 354.46 222.853C354.82 222.173 355.03 221.623 355.21 221.263C355.39 220.903 355.48 220.663 355.48 220.663Z" fill="white"/>
<path d="M309.42 237.893L309.76 237.643L310.76 236.963C311.64 236.393 312.87 235.513 314.35 234.373C315.83 233.233 317.54 231.813 319.35 230.133C321.301 228.302 323.153 226.369 324.9 224.343C326.625 222.294 328.244 220.158 329.75 217.943C331.11 215.883 332.26 213.943 333.14 212.333C334.02 210.723 334.7 209.333 335.14 208.333L335.65 207.243L335.84 206.863C335.089 208.755 334.235 210.605 333.28 212.403C332.41 214.063 331.28 215.983 329.91 218.043C328.419 220.276 326.803 222.423 325.07 224.473C323.319 226.508 321.456 228.444 319.49 230.273C317.66 231.943 315.95 233.373 314.49 234.493C312.865 235.721 311.173 236.856 309.42 237.893V237.893Z" fill="white"/>
<path d="M237.95 284.653C238.024 284.604 238.105 284.567 238.19 284.543L238.91 284.263C239.56 284.043 240.47 283.643 241.64 283.103C244.893 281.464 247.877 279.34 250.49 276.803C254.343 273.02 257.742 268.802 260.62 264.233C264.232 258.689 267.531 252.946 270.5 247.033C275.827 236.25 280.502 225.156 284.5 213.813C286.07 209.473 287.29 205.933 288.15 203.503L289.15 200.693C289.26 200.393 289.35 200.163 289.42 199.963C289.49 199.763 289.52 199.723 289.52 199.723C289.515 199.812 289.498 199.899 289.47 199.983C289.41 200.183 289.33 200.423 289.24 200.723C289.03 201.413 288.73 202.363 288.34 203.563C287.55 206.023 286.34 209.563 284.84 213.933C280.932 225.333 276.286 236.467 270.93 247.263C267.956 253.193 264.64 258.946 261 264.493C258.08 269.073 254.63 273.292 250.72 277.063C248.07 279.6 245.032 281.696 241.72 283.273C240.819 283.69 239.894 284.054 238.95 284.363L238.21 284.593C238.127 284.626 238.039 284.646 237.95 284.653Z" fill="#455A64"/>
<path d="M236.28 305.813C236.445 305.655 236.626 305.514 236.82 305.393L238.44 304.283C239.83 303.283 241.84 301.873 244.26 300.023C249.11 296.333 255.48 290.823 262.32 284.533C265.76 281.393 269.05 278.423 271.89 275.583C274.429 273.086 276.788 270.413 278.95 267.583C280.4 265.668 281.691 263.638 282.81 261.513C283.23 260.773 283.49 260.163 283.69 259.763C283.785 259.555 283.895 259.355 284.02 259.163C283.97 259.388 283.893 259.606 283.79 259.813C283.61 260.223 283.38 260.813 282.98 261.603C281.926 263.779 280.67 265.851 279.23 267.793C277.108 270.675 274.768 273.39 272.23 275.913C269.39 278.793 266.11 281.773 262.67 284.913C256.871 290.351 250.8 295.491 244.48 300.313C242.03 302.143 239.99 303.523 238.55 304.453C237.84 304.923 237.27 305.253 236.89 305.453C236.695 305.587 236.491 305.707 236.28 305.813Z" fill="#455A64"/>
<path d="M209.28 412.723L209.4 412.493C209.51 412.333 209.64 412.123 209.8 411.863C210.15 411.303 210.69 410.503 211.41 409.483C212.86 407.483 215.09 404.613 218.03 401.273C223.96 394.613 232.26 385.543 241.41 375.493L264.92 349.843L272.09 342.103L274.09 340.013L274.61 339.483C274.73 339.363 274.79 339.303 274.8 339.313C274.81 339.323 274.75 339.383 274.65 339.513L274.16 340.083L272.28 342.233C270.58 344.113 268.18 346.793 265.23 350.073L241.82 375.833L218.28 401.503C215.28 404.813 213.04 407.613 211.55 409.603C210.8 410.603 210.24 411.383 209.86 411.913L209.43 412.523C209.391 412.597 209.34 412.665 209.28 412.723V412.723Z" fill="#455A64"/>
<path d="M302.64 232.993C302.478 232.497 302.354 231.989 302.27 231.473C302.16 230.983 302.04 230.373 301.95 229.663C301.86 228.953 301.71 228.143 301.67 227.243C301.63 226.343 301.52 225.353 301.53 224.243C301.54 223.133 301.53 222.043 301.61 220.843C301.958 215.661 303.224 210.582 305.35 205.843C305.86 204.763 306.35 203.733 306.87 202.843C307.39 201.953 307.87 201.063 308.38 200.303C308.89 199.543 309.38 198.873 309.76 198.303C310.11 197.8 310.488 197.316 310.89 196.853C311.194 196.439 311.528 196.048 311.89 195.683C311.631 196.138 311.334 196.57 311 196.973C310.7 197.373 310.33 197.863 309.95 198.463C309.57 199.063 309.08 199.713 308.64 200.463C308.2 201.213 307.64 202.073 307.19 203.013C306.74 203.953 306.19 205.013 305.73 206.013C303.665 210.728 302.414 215.76 302.03 220.893C301.97 222.073 301.88 223.193 301.9 224.243C301.92 225.293 301.9 226.243 301.98 227.173C302.06 228.103 302.12 228.873 302.19 229.583C302.26 230.293 302.34 230.903 302.42 231.403C302.545 231.925 302.618 232.457 302.64 232.993V232.993Z" fill="#455A64"/>
<path d="M317.19 268.873C317.07 268.873 315.27 264.953 313.19 259.993C311.11 255.033 309.51 250.993 309.63 250.913C311.112 253.804 312.447 256.768 313.63 259.793C314.975 262.755 316.163 265.786 317.19 268.873V268.873Z" fill="#455A64"/>
<path d="M174.28 237.163C174.2 237.213 173.42 235.783 171.95 233.613C168.11 227.948 163.147 223.132 157.37 219.463C155.16 218.063 153.71 217.323 153.75 217.243C154.118 217.351 154.474 217.498 154.81 217.683C155.48 217.993 156.42 218.493 157.56 219.163C160.52 220.929 163.265 223.034 165.74 225.433C168.21 227.841 170.394 230.526 172.25 233.433C172.95 234.553 173.48 235.483 173.81 236.143C174.001 236.466 174.159 236.808 174.28 237.163V237.163Z" fill="#455A64"/>
<path d="M213.53 213.523C213.472 213.192 213.472 212.854 213.53 212.523C213.7 210.644 214.508 208.879 215.82 207.523L215.88 207.463V207.533C215.951 207.673 216.005 207.82 216.04 207.973C216.04 207.973 215.93 207.843 215.79 207.583H215.88C215.232 208.349 214.702 209.209 214.31 210.133C213.894 211.221 213.632 212.362 213.53 213.523V213.523Z" fill="#455A64"/>
<path d="M226.77 220.403C226.643 220.084 226.572 219.746 226.56 219.403C226.473 218.584 226.493 217.757 226.62 216.943C226.748 216.13 226.98 215.337 227.31 214.583C227.43 214.265 227.598 213.969 227.81 213.703C227.359 214.757 227.024 215.857 226.81 216.983C226.675 218.118 226.662 219.265 226.77 220.403V220.403Z" fill="#455A64"/>
<path d="M241.2 219.243C241.153 218.311 241.026 217.384 240.82 216.473C240.541 215.577 240.176 214.709 239.73 213.883C239.931 214.079 240.099 214.305 240.23 214.553C240.576 215.135 240.842 215.76 241.02 216.413C241.193 217.066 241.283 217.738 241.29 218.413C241.308 218.693 241.278 218.974 241.2 219.243Z" fill="#455A64"/>
<path d="M253.82 213.713C253.395 212.824 252.893 211.974 252.32 211.173C251.68 210.425 250.977 209.732 250.22 209.103C250.492 209.214 250.745 209.366 250.97 209.553C251.535 209.984 252.042 210.484 252.48 211.043C252.916 211.605 253.279 212.22 253.56 212.873C253.691 213.137 253.779 213.421 253.82 213.713Z" fill="#455A64"/>
<path d="M262.51 205.143C262.189 204.091 261.592 203.145 260.78 202.403C259.937 201.701 258.916 201.248 257.83 201.093C257.83 201.093 257.93 201.093 258.1 201.093C258.339 201.101 258.577 201.131 258.81 201.183C259.59 201.369 260.314 201.739 260.92 202.263C261.528 202.784 261.999 203.447 262.29 204.193C262.384 204.414 262.451 204.646 262.49 204.883C262.508 204.968 262.515 205.056 262.51 205.143Z" fill="#455A64"/>
<path d="M267.16 189.313C266.391 188.698 265.491 188.267 264.53 188.053C263.555 187.904 262.558 187.986 261.62 188.293C262.523 187.821 263.558 187.663 264.561 187.844C265.564 188.025 266.479 188.535 267.16 189.293V189.313Z" fill="#455A64"/>
<path d="M204.85 202.853C204.869 202.556 204.94 202.265 205.06 201.993C205.592 200.653 206.6 199.557 207.89 198.913C208.151 198.771 208.436 198.676 208.73 198.633C207.824 199.025 207.01 199.604 206.342 200.331C205.673 201.058 205.165 201.917 204.85 202.853V202.853Z" fill="#455A64"/>
<path d="M201.69 192.313C201.81 192.02 201.98 191.75 202.19 191.513C202.658 190.903 203.222 190.373 203.86 189.943C204.498 189.505 205.199 189.168 205.94 188.943C206.239 188.838 206.553 188.784 206.87 188.783C204.791 189.317 202.961 190.554 201.69 192.283V192.313Z" fill="#455A64"/>
<path d="M176.83 253.773C176.83 253.773 176.83 253.713 176.77 253.773C176.728 253.876 176.698 253.983 176.68 254.093C176.63 254.403 176.58 254.853 176.52 255.443C176.4 256.613 176.27 258.313 176.13 260.443C175.84 264.653 175.51 270.443 175.2 276.913C174.89 283.383 174.65 289.173 174.51 293.393C174.44 295.393 174.39 297.133 174.35 298.393C174.35 298.933 174.35 299.393 174.29 299.753C174.305 299.909 174.305 300.067 174.29 300.223C174.246 300.071 174.229 299.911 174.24 299.753C174.24 299.383 174.24 298.933 174.24 298.393C174.24 297.213 174.24 295.503 174.24 293.393C174.24 289.173 174.46 283.333 174.78 276.893C175.1 270.453 175.48 264.633 175.86 260.423C176.05 258.313 176.24 256.613 176.42 255.423C176.51 254.843 176.6 254.423 176.68 254.083C176.708 253.963 176.755 253.848 176.82 253.743C176.82 253.653 176.85 253.793 176.83 253.773Z" fill="#263238"/>
<path d="M287.01 51.7831C278.67 49.2331 270.01 56.7031 261.41 55.0231C256.21 54.0231 252.29 49.8531 247.66 47.2731C240.75 43.4131 230.97 42.7831 223.91 46.3731C216.85 49.9631 212.28 53.7831 211.33 61.6531C204.9 57.9631 194.18 66.0531 190.53 73.8631C186.88 81.6731 187.79 89.7331 189.86 98.1031C193.457 112.539 199.851 126.129 208.68 138.103C209.46 139.163 210.68 140.333 211.89 139.773C212.263 139.512 212.57 139.167 212.785 138.766C213 138.364 213.119 137.918 213.13 137.463C214.36 129.813 213.39 122.003 212.72 114.283C212.05 106.563 211.72 98.6031 214.17 91.2831C216.62 83.9631 222.37 77.2231 229.97 75.7231C235.59 74.6131 241.42 76.4331 246.41 79.2431C251.4 82.0531 255.79 85.7931 260.54 88.9831C265.29 92.1731 270.63 94.8631 276.35 95.1031C282.07 95.3431 288.21 92.6631 290.64 87.4831C293.07 82.3031 290.35 74.9431 284.75 73.7531C287.358 73.5246 289.805 72.3946 291.67 70.5575C293.534 68.7203 294.701 66.2908 294.968 63.6867C295.236 61.0826 294.588 58.4666 293.135 56.2887C291.683 54.1108 289.517 52.507 287.01 51.7531V51.7831Z" fill="#263238"/>
<path d="M261.28 185.933L260.47 169.403C260.47 169.403 282.29 165.223 281.8 143.273C281.56 132.683 279.28 110.893 277 91.2031C275.824 80.9846 270.842 71.5842 263.045 64.8752C255.248 58.1663 245.21 54.6414 234.93 55.0031L232.81 55.0731C210.04 57.2131 199.12 77.7531 201.89 100.463L207.14 188.863C207.563 196.012 210.798 202.703 216.138 207.475C221.478 212.247 228.489 214.713 235.64 214.333V214.333C242.8 213.95 249.517 210.748 254.322 205.425C259.127 200.103 261.629 193.095 261.28 185.933V185.933Z" fill="#FFBE9D"/>
<path d="M260.5 169.403C260.5 169.403 246.67 171.013 231.61 162.273C231.61 162.273 238.93 177.833 260.75 175.083L260.5 169.403Z" fill="#EB996E"/>
<path d="M269.61 106.053C269.643 106.868 269.358 107.664 268.815 108.272C268.272 108.881 267.514 109.254 266.7 109.313C266.303 109.359 265.9 109.324 265.516 109.212C265.132 109.1 264.775 108.912 264.464 108.659C264.154 108.407 263.897 108.095 263.709 107.742C263.522 107.389 263.406 107.001 263.37 106.603C263.331 105.787 263.613 104.989 264.155 104.378C264.697 103.767 265.456 103.392 266.27 103.333C266.669 103.286 267.073 103.32 267.459 103.432C267.845 103.544 268.204 103.733 268.516 103.986C268.827 104.24 269.085 104.554 269.273 104.909C269.461 105.264 269.575 105.653 269.61 106.053Z" fill="#263238"/>
<path d="M272.66 102.063C272.28 102.483 269.85 100.813 266.48 100.943C263.11 101.073 260.7 102.843 260.32 102.443C260.13 102.263 260.5 101.513 261.55 100.693C262.971 99.6301 264.686 99.0328 266.46 98.9831C268.215 98.9139 269.946 99.408 271.4 100.393C272.47 101.143 272.84 101.873 272.66 102.063Z" fill="#263238"/>
<path d="M236.49 108.403C236.526 109.22 236.242 110.018 235.699 110.629C235.155 111.239 234.395 111.614 233.58 111.673C233.183 111.719 232.78 111.684 232.396 111.572C232.012 111.46 231.655 111.272 231.344 111.019C231.034 110.767 230.777 110.455 230.589 110.102C230.402 109.749 230.286 109.361 230.25 108.963C230.214 108.146 230.498 107.348 231.041 106.737C231.585 106.127 232.345 105.752 233.16 105.693C233.558 105.647 233.96 105.682 234.344 105.794C234.728 105.906 235.086 106.094 235.396 106.347C235.706 106.599 235.963 106.911 236.151 107.264C236.339 107.617 236.454 108.005 236.49 108.403V108.403Z" fill="#263238"/>
<path d="M239.54 103.853C239.17 104.273 236.73 102.603 233.36 102.733C229.99 102.863 227.58 104.633 227.2 104.233C227.01 104.053 227.38 103.303 228.43 102.483C229.855 101.42 231.573 100.823 233.35 100.773C235.102 100.705 236.829 101.199 238.28 102.183C239.35 102.943 239.73 103.663 239.54 103.853Z" fill="#263238"/>
<path d="M252.65 128.403C252.65 128.203 254.71 127.773 258.09 127.223C258.95 127.103 259.76 126.903 259.89 126.303C259.926 125.412 259.693 124.53 259.22 123.773C258.34 121.723 257.42 119.563 256.45 117.313C252.58 108.103 249.75 100.513 250.13 100.313C250.51 100.113 253.93 107.503 257.79 116.713C258.73 118.98 259.62 121.15 260.46 123.223C261.038 124.242 261.239 125.431 261.03 126.583C260.916 126.891 260.733 127.169 260.496 127.396C260.258 127.622 259.973 127.793 259.66 127.893C259.186 128.039 258.696 128.123 258.2 128.143C254.79 128.533 252.67 128.623 252.65 128.403Z" fill="#263238"/>
<path d="M242.81 131.113C243.36 131.053 243.5 134.713 246.72 137.203C249.94 139.693 253.82 139.153 253.87 139.663C253.93 139.893 253.03 140.403 251.38 140.503C249.225 140.623 247.097 139.971 245.38 138.663C243.756 137.408 242.681 135.573 242.38 133.543C242.19 132.013 242.56 131.093 242.81 131.113Z" fill="#263238"/>
<path d="M239.28 86.5731C238.98 87.4931 235.6 87.1831 231.66 87.7931C227.72 88.4031 224.56 89.6031 224.01 88.7931C223.76 88.4031 224.28 87.5231 225.54 86.5931C227.222 85.4409 229.146 84.6888 231.163 84.3941C233.181 84.0995 235.239 84.2702 237.18 84.8931C238.64 85.4031 239.4 86.1331 239.28 86.5731Z" fill="#263238"/>
<path d="M271.08 92.4031C270.51 93.1831 268.16 92.4731 265.37 92.5331C262.58 92.5931 260.23 93.2331 259.65 92.4431C259.4 92.0631 259.75 91.2831 260.76 90.5231C262.104 89.5821 263.71 89.0887 265.35 89.1131C266.983 89.0553 268.594 89.506 269.96 90.4031C270.97 91.1931 271.33 91.9631 271.08 92.4031Z" fill="#263238"/>
<path d="M204.28 116.643C203.9 116.493 189.05 112.713 190.05 127.643C191.05 142.573 205.89 138.523 205.89 138.093C205.89 137.663 204.28 116.643 204.28 116.643Z" fill="#FFBE9D"/>
<path d="M200.9 132.773C200.83 132.773 200.65 132.973 200.22 133.203C199.625 133.523 198.928 133.595 198.28 133.403C196.65 132.923 195.15 130.503 194.9 127.803C194.776 126.523 194.94 125.231 195.38 124.023C195.487 123.544 195.709 123.098 196.028 122.725C196.347 122.352 196.753 122.063 197.21 121.883C197.505 121.783 197.825 121.789 198.116 121.9C198.406 122.012 198.648 122.221 198.8 122.493C199.03 122.903 198.95 123.203 199.03 123.223C199.11 123.243 199.34 122.953 199.17 122.343C199.061 121.978 198.832 121.661 198.52 121.443C198.085 121.163 197.558 121.063 197.05 121.163C196.443 121.324 195.888 121.639 195.438 122.077C194.988 122.515 194.658 123.061 194.48 123.663C193.932 125.005 193.719 126.46 193.86 127.903C194.16 130.903 195.86 133.633 198.1 134.113C198.51 134.204 198.934 134.202 199.343 134.107C199.751 134.011 200.133 133.826 200.46 133.563C200.9 133.143 200.95 132.803 200.9 132.773Z" fill="#EB996E"/>
<path d="M281.48 86.4031C276.665 87.8201 271.583 88.074 266.651 87.1439C261.719 86.2139 257.078 84.1264 253.11 81.0531C247.61 76.7131 243.27 70.3531 236.51 68.5231C234.207 67.9969 231.822 67.9336 229.494 68.3371C227.166 68.7405 224.942 69.6025 222.95 70.8731C218.975 73.4338 215.571 76.787 212.95 80.7231C217.58 91.7231 215.17 104.273 212.69 115.943C212.554 117.268 211.98 118.51 211.06 119.473C209.34 120.893 206.64 119.923 205.06 118.363C202.49 115.853 201.4 112.223 200.65 108.723C198.793 100.746 198.544 92.4777 199.92 84.4031C201.328 76.301 205.083 68.7905 210.72 62.8031C218.059 55.5232 227.943 51.3846 238.28 51.2631C248.563 51.2197 258.598 54.4178 266.96 60.4031C270.84 63.1231 274.44 66.4031 276.54 70.6931" fill="#263238"/>
<path d="M293.49 56.8531C293.553 57.2912 293.522 57.7377 293.4 58.1631C293.083 59.4009 292.383 60.5069 291.4 61.3231C289.823 62.5841 287.887 63.3124 285.87 63.4031C284.63 63.5128 283.382 63.4793 282.15 63.3031C280.735 63.1125 279.397 62.5423 278.28 61.6531C277.652 61.1558 277.145 60.5218 276.798 59.7992C276.452 59.0766 276.274 58.2845 276.28 57.4831C276.359 56.6108 276.683 55.7785 277.213 55.0816C277.744 54.3847 278.46 53.8515 279.28 53.5431C280.131 53.1899 281.051 53.0393 281.97 53.1031C282.926 53.1979 283.833 53.5698 284.58 54.1731C285.331 54.8082 285.936 55.598 286.354 56.4886C286.772 57.3792 286.992 58.3495 287 59.3331C287.036 61.4086 286.257 63.4156 284.83 64.9231C283.374 66.465 281.535 67.5933 279.5 68.1931C275.38 69.4831 270.78 68.8631 266.64 67.2531C262.623 65.6017 258.811 63.4909 255.28 60.9631C252.026 58.6554 248.584 56.6249 244.99 54.8931C241.751 53.3472 238.186 52.6094 234.6 52.7431C231.491 52.9695 228.469 53.8776 225.75 55.4031C221.786 57.6604 218.467 60.8968 216.11 64.8031C215.443 65.8394 214.832 66.9109 214.28 68.0131C214.11 68.4129 213.913 68.8005 213.69 69.1731C213.708 69.0623 213.742 68.9545 213.79 68.8531C213.86 68.6531 213.97 68.3431 214.14 67.9531C214.625 66.8016 215.189 65.6856 215.83 64.6131C218.123 60.5837 221.442 57.2334 225.45 54.9031C228.243 53.3142 231.355 52.3679 234.56 52.1331C238.253 51.9606 241.933 52.6918 245.28 54.2631C248.927 56.0108 252.42 58.0648 255.72 60.4031C259.204 62.889 262.958 64.9722 266.91 66.6131C270.96 68.1731 275.38 68.7731 279.3 67.5531C281.207 66.9568 282.924 65.8706 284.28 64.4031C285.571 63.0596 286.288 61.2663 286.28 59.4031C286.28 58.5165 286.089 57.6403 285.72 56.8344C285.351 56.0284 284.812 55.3116 284.14 54.7331C283.491 54.2194 282.712 53.8945 281.89 53.7939C281.068 53.6934 280.234 53.8211 279.48 54.1631C278.754 54.4177 278.115 54.8718 277.636 55.4731C277.157 56.0745 276.856 56.7989 276.77 57.5631C276.77 58.2806 276.931 58.9891 277.24 59.6363C277.55 60.2836 278.001 60.8531 278.56 61.3031C279.606 62.1381 280.856 62.6799 282.18 62.8731C283.377 63.06 284.592 63.1103 285.8 63.0231C287.784 62.9795 289.703 62.3072 291.28 61.1031C292.229 60.3233 292.925 59.2791 293.28 58.1031C293.376 57.6913 293.447 57.2738 293.49 56.8531V56.8531Z" fill="#455A64"/>
<path d="M188.28 86.8731C189.786 87.3484 191.333 87.6831 192.9 87.8731C194.596 87.9644 196.294 87.7267 197.9 87.1731C199.873 86.4727 201.735 85.4927 203.43 84.2631C206.492 81.9783 208.728 78.7598 209.8 75.0931C210.175 73.5522 210.452 71.989 210.63 70.4131C210.739 70.8373 210.779 71.2761 210.75 71.7131C210.747 72.9005 210.595 74.0829 210.3 75.2331C209.342 79.0986 207.064 82.5083 203.86 84.8731C202.108 86.1617 200.169 87.1735 198.11 87.8731C196.413 88.4317 194.617 88.6259 192.84 88.4431C191.654 88.3072 190.495 87.9972 189.4 87.5231C188.991 87.3743 188.612 87.1543 188.28 86.8731V86.8731Z" fill="#455A64"/>
<path d="M189.34 97.7031C189.34 97.5631 191.12 97.8931 193.95 97.6331C197.628 97.3196 201.155 96.0238 204.161 93.8812C207.168 91.7386 209.543 88.8278 211.04 85.4531C212.21 82.8631 212.47 81.0931 212.61 81.1231C212.637 81.5435 212.597 81.9655 212.49 82.3731C212.27 83.4979 211.935 84.597 211.49 85.6531C210.081 89.1996 207.68 92.2653 204.575 94.4837C201.47 96.7022 197.792 97.9795 193.98 98.1631C192.838 98.2221 191.692 98.1685 190.56 98.0031C190.14 97.968 189.728 97.8667 189.34 97.7031Z" fill="#455A64"/>
<path d="M228.84 118.583C228.79 118.593 228.739 118.593 228.689 118.583C228.639 118.573 228.591 118.552 228.549 118.524C228.507 118.495 228.472 118.458 228.444 118.414C228.417 118.371 228.398 118.323 228.39 118.273C228.373 118.225 228.367 118.173 228.371 118.122C228.375 118.071 228.39 118.021 228.414 117.976C228.439 117.931 228.472 117.891 228.513 117.86C228.554 117.828 228.6 117.806 228.65 117.793C228.749 117.783 228.848 117.809 228.929 117.867C229.009 117.924 229.067 118.009 229.09 118.105C229.113 118.202 229.101 118.303 229.055 118.391C229.009 118.479 228.933 118.547 228.84 118.583V118.583Z" fill="#EB996E"/>
<path d="M235.28 116.893C235.172 116.892 235.068 116.855 234.983 116.788C234.899 116.72 234.84 116.626 234.816 116.521C234.791 116.416 234.803 116.305 234.849 116.208C234.896 116.11 234.973 116.031 235.07 115.983C235.181 115.974 235.29 116.007 235.378 116.076C235.465 116.145 235.523 116.244 235.54 116.353C235.576 116.459 235.568 116.575 235.52 116.676C235.471 116.777 235.385 116.855 235.28 116.893V116.893Z" fill="#EB996E"/>
<path d="M239.57 116.633C239.36 116.633 239.16 116.423 239.1 116.093C239.04 115.763 239.17 115.463 239.37 115.433C239.57 115.403 239.78 115.643 239.84 115.973C239.9 116.303 239.77 116.603 239.57 116.633Z" fill="#EB996E"/>
<path d="M232.15 122.513C231.95 122.513 231.77 122.423 231.77 122.293C231.77 122.163 231.93 122.043 232.13 122.043C232.33 122.043 232.51 122.133 232.51 122.263C232.51 122.393 232.36 122.503 232.15 122.513Z" fill="#EB996E"/>
<path d="M238.01 120.933C237.906 120.939 237.803 120.903 237.725 120.834C237.646 120.765 237.598 120.667 237.59 120.563C237.58 120.511 237.58 120.458 237.591 120.406C237.601 120.354 237.622 120.305 237.652 120.261C237.682 120.218 237.72 120.18 237.764 120.151C237.809 120.122 237.858 120.103 237.91 120.093C238.016 120.09 238.118 120.128 238.196 120.199C238.274 120.27 238.322 120.368 238.33 120.473C238.348 120.576 238.324 120.682 238.264 120.768C238.204 120.854 238.113 120.914 238.01 120.933Z" fill="#EB996E"/>
<path d="M268.63 116.183C268.579 116.193 268.526 116.193 268.475 116.182C268.424 116.171 268.375 116.15 268.332 116.121C268.289 116.091 268.253 116.052 268.225 116.008C268.197 115.964 268.178 115.915 268.17 115.863C268.153 115.814 268.147 115.762 268.151 115.71C268.155 115.658 268.169 115.608 268.194 115.562C268.218 115.516 268.252 115.475 268.292 115.443C268.333 115.41 268.38 115.387 268.43 115.373C268.532 115.36 268.636 115.385 268.72 115.443C268.805 115.502 268.866 115.589 268.891 115.689C268.915 115.789 268.902 115.895 268.854 115.986C268.806 116.077 268.726 116.147 268.63 116.183V116.183Z" fill="#EB996E"/>
<path d="M273 115.633C272.891 115.624 272.789 115.577 272.71 115.501C272.631 115.425 272.58 115.325 272.566 115.216C272.552 115.108 272.576 114.998 272.633 114.904C272.69 114.811 272.777 114.74 272.88 114.703C273.08 114.703 273.27 114.863 273.31 115.113C273.335 115.223 273.316 115.338 273.259 115.435C273.201 115.532 273.109 115.603 273 115.633Z" fill="#EB996E"/>
<path d="M264.75 116.403C264.687 116.409 264.623 116.397 264.567 116.368C264.51 116.339 264.463 116.294 264.432 116.239C264.4 116.184 264.385 116.121 264.388 116.057C264.392 115.994 264.413 115.932 264.451 115.881C264.488 115.829 264.539 115.79 264.599 115.767C264.658 115.744 264.723 115.739 264.785 115.752C264.847 115.764 264.904 115.795 264.95 115.84C264.995 115.884 265.026 115.941 265.04 116.003C265.052 116.094 265.028 116.186 264.975 116.261C264.921 116.335 264.84 116.386 264.75 116.403V116.403Z" fill="#EB996E"/>
<path d="M268.16 120.713C268.06 120.747 267.952 120.742 267.855 120.699C267.759 120.657 267.682 120.58 267.64 120.483C267.613 120.437 267.596 120.387 267.589 120.334C267.582 120.281 267.586 120.228 267.6 120.177C267.614 120.125 267.638 120.078 267.671 120.036C267.703 119.994 267.744 119.959 267.79 119.933C267.889 119.908 267.993 119.918 268.085 119.962C268.178 120.005 268.252 120.079 268.296 120.171C268.339 120.263 268.35 120.367 268.325 120.466C268.3 120.565 268.242 120.652 268.16 120.713V120.713Z" fill="#EB996E"/>
<path d="M271.88 119.823C271.835 119.817 271.792 119.802 271.753 119.779C271.714 119.756 271.68 119.725 271.653 119.689C271.626 119.653 271.607 119.611 271.596 119.567C271.585 119.523 271.583 119.478 271.59 119.433C271.622 119.348 271.685 119.278 271.768 119.239C271.85 119.2 271.944 119.194 272.03 119.223C272.119 119.236 272.199 119.282 272.253 119.354C272.307 119.425 272.331 119.514 272.32 119.603C272.29 119.69 272.228 119.762 272.145 119.803C272.063 119.845 271.968 119.852 271.88 119.823V119.823Z" fill="#EB996E"/>
<path d="M264.46 369.043L264.22 346.813C264.22 346.813 249.39 326.263 255.22 303.973C255.22 303.973 264.89 297.173 290.82 301.153C290.82 301.153 323.37 269.443 367 277.513C410.63 285.583 414.69 323.593 415.11 333.943C415.53 344.293 415.43 364.393 400.41 384.043L399.41 403.543C399.41 403.543 395.83 410.883 385.48 410.383C375.13 409.883 375.71 408.383 375.71 408.383C375.71 408.383 362.71 418.873 362.15 421.613C361.59 424.353 359.55 434.743 359.55 434.743C359.55 434.743 355.04 440.873 345.31 441.593C341.461 441.866 337.612 441.077 334.18 439.313C332.878 438.654 331.721 437.742 330.775 436.632C329.829 435.521 329.114 434.233 328.67 432.843C327.74 429.765 326.17 426.918 324.062 424.49C321.955 422.061 319.357 420.106 316.44 418.753L309.72 416.993C309.72 416.993 307.01 419.463 297.58 420.473C288.15 421.483 288.11 418.143 288.11 418.143C288.11 418.143 273.44 421.533 262.42 407.143C253.72 395.763 248.99 375.293 264.46 369.043Z" fill="#29ABE2"/>
<path d="M354.9 370.323C355.047 370.085 355.211 369.858 355.39 369.643C355.72 369.203 356.21 368.563 356.82 367.723C358.05 366.053 359.77 363.583 361.67 360.393C363.881 356.653 365.8 352.748 367.41 348.713C368.32 346.433 369.17 344.003 369.92 341.453C370.67 338.903 371.3 336.143 370.64 333.453C369.846 330.846 368.143 328.611 365.84 327.153C363.718 325.729 361.444 324.545 359.06 323.623C355.024 322.03 350.781 321.02 346.46 320.623C343.547 320.347 340.614 320.347 337.7 320.623C336.7 320.713 335.87 320.813 335.32 320.893C335.047 320.95 334.769 320.98 334.49 320.983C334.758 320.898 335.032 320.834 335.31 320.793C335.84 320.683 336.64 320.543 337.68 320.423C340.603 320.06 343.556 320.003 346.49 320.253C350.874 320.583 355.185 321.564 359.28 323.163C361.703 324.083 364.014 325.274 366.17 326.713C368.579 328.238 370.355 330.582 371.17 333.313C371.87 336.183 371.17 339.043 370.44 341.593C369.71 344.143 368.81 346.593 367.88 348.893C366.246 352.942 364.286 356.851 362.02 360.583C360.49 363.095 358.821 365.518 357.02 367.843C356.38 368.673 355.86 369.293 355.51 369.703C355.328 369.929 355.123 370.137 354.9 370.323V370.323Z" fill="#263238"/>
<path d="M293.9 302.123C293.976 302.284 294.027 302.456 294.05 302.633C294.147 303.144 294.171 303.666 294.12 304.183C293.868 306.096 292.989 307.872 291.62 309.233C289.99 311.033 287.51 312.503 285.09 314.483C282.439 316.615 279.992 318.989 277.78 321.573C273.753 326.272 270.505 331.586 268.16 337.313C267.26 339.513 266.67 341.313 266.27 342.613C266.1 343.203 265.95 343.693 265.83 344.083C265.789 344.256 265.729 344.424 265.65 344.583C265.652 344.404 265.679 344.225 265.73 344.053C265.83 343.653 265.94 343.163 266.08 342.553C266.556 340.731 267.137 338.938 267.82 337.183C270.08 331.361 273.316 325.967 277.39 321.233C279.622 318.627 282.1 316.243 284.79 314.113C287.26 312.113 289.74 310.703 291.36 308.983C292.703 307.688 293.599 306 293.92 304.163C293.987 303.484 293.98 302.8 293.9 302.123Z" fill="#263238"/>
<g opacity="0.5">
<path opacity="0.5" d="M311.34 304.843L324.61 308.233C324.61 308.233 344.04 286.403 365.38 280.873L357.38 278.983C339.843 282.938 323.842 291.925 311.34 304.843V304.843Z" fill="black"/>
</g>
<path d="M361.05 279.823C343.6 283.747 327.722 292.802 315.46 305.823L311.34 304.823C311.34 304.823 330.16 284.173 357.39 278.963L361.05 279.823Z" fill="#FF725E"/>
<g opacity="0.7">
<path opacity="0.7" d="M361.05 279.823C343.6 283.747 327.722 292.802 315.46 305.823L311.34 304.823C311.34 304.823 330.16 284.173 357.39 278.963L361.05 279.823Z" fill="black"/>
</g>
<path d="M258.05 373.573C265.4 363.053 283.84 366.273 292.25 375.733C300.66 385.193 304.39 398.213 298.92 409.433C296.58 414.223 292.1 418.433 286.77 418.333C289.429 415.35 291.335 411.773 292.327 407.901C293.318 404.03 293.368 399.977 292.47 396.083C290.76 388.233 285.81 381.303 279.55 376.263C276.38 373.703 272.81 370.893 268.75 370.493C264.69 370.093 261.44 369.973 258.05 373.573" fill="#29ABE2"/>
<g opacity="0.3">
<path opacity="0.3" d="M260 374.546C267.35 364.026 285.79 367.246 294.2 376.706C302.61 386.166 306.34 399.186 300.87 410.406C298.53 415.196 294.05 419.406 288.72 419.306C291.379 416.323 293.285 412.746 294.276 408.874C295.268 405.003 295.317 400.95 294.42 397.056C292.71 389.206 287.76 382.276 281.5 377.236C278.33 374.676 274.76 371.866 270.7 371.466C266.64 371.066 263.39 370.946 260 374.546" fill="black"/>
</g>
<g opacity="0.3">
<path opacity="0.3" d="M355.64 369.703C355.5 371.933 357.54 373.903 359.75 374.163C360.866 374.23 361.982 374.031 363.006 373.583C364.03 373.134 364.933 372.449 365.64 371.583C367.033 369.835 368.053 367.82 368.64 365.663C370.94 358.453 372.13 347.663 370.92 340.233C367.74 349.903 362.06 361.963 355.47 369.723" fill="black"/>
</g>
<g opacity="0.3">
<path opacity="0.3" d="M362.61 336.453C361.18 332.223 356.8 329.753 352.61 328.293C348.313 326.794 343.825 325.912 339.28 325.673C337.85 325.517 336.404 325.657 335.03 326.083C334.349 326.305 333.735 326.697 333.247 327.222C332.758 327.747 332.412 328.387 332.24 329.083C332.15 329.654 332.238 330.238 332.492 330.757C332.746 331.276 333.154 331.704 333.66 331.983C340.907 340.371 346.313 350.185 349.53 360.793C349.667 361.26 349.927 361.681 350.283 362.012C350.639 362.343 351.077 362.571 351.552 362.674C352.028 362.776 352.522 362.749 352.982 362.594C353.443 362.438 353.853 362.162 354.17 361.793C357.57 357.913 359.53 352.683 361.29 347.723C362.55 344.083 363.85 340.103 362.61 336.453Z" fill="black"/>
</g>
<g opacity="0.3">
<path opacity="0.3" d="M267 338.403C262.455 331.332 260.115 323.068 260.28 314.663C260.28 312.893 260.54 310.973 261.77 309.713C263.26 308.183 265.68 308.153 267.77 308.293C273.661 308.661 279.516 309.483 285.28 310.753C285.73 310.853 286.28 311.003 286.42 311.433C286.578 311.764 286.626 312.137 286.556 312.497C286.485 312.858 286.301 313.186 286.03 313.433C277.08 318.923 270.73 329.023 267.35 338.903" fill="black"/>
</g>
<path d="M255.85 304.763C255.869 305.267 255.846 305.773 255.78 306.273C255.7 307.273 255.61 308.643 255.55 310.373C255.247 317.37 256.125 324.368 258.15 331.073C258.83 333.263 259.54 335.193 260.22 336.793C260.9 338.393 261.49 339.663 261.92 340.523C262.174 340.96 262.382 341.423 262.54 341.903C262.238 341.5 261.97 341.072 261.74 340.623C261.25 339.783 260.61 338.523 259.89 336.933C259.046 335.074 258.311 333.168 257.69 331.223C256.95 328.831 256.355 326.397 255.91 323.933C255.155 319.465 254.91 314.926 255.18 310.403C255.29 308.673 255.43 307.263 255.58 306.303C255.62 305.782 255.711 305.267 255.85 304.763V304.763Z" fill="#FAFAFA"/>
<path d="M356.61 278.263C356.444 278.346 356.27 278.409 356.09 278.453L354.59 278.893C353.93 279.073 353.13 279.293 352.21 279.593C351.29 279.893 350.21 280.183 349.1 280.593C346.79 281.363 344.1 282.393 341.15 283.653C338.2 284.913 335.03 286.473 331.8 288.273C328.57 290.073 325.61 292.003 322.98 293.833C320.35 295.663 318.08 297.463 316.23 299.033C315.28 299.783 314.47 300.533 313.74 301.163C313.01 301.793 312.4 302.353 311.91 302.823L310.75 303.873C310.48 304.113 310.33 304.233 310.32 304.213C310.425 304.064 310.545 303.926 310.68 303.803L311.77 302.673C312.24 302.183 312.83 301.603 313.55 300.953C314.27 300.303 315.05 299.533 315.99 298.753C317.82 297.143 320.09 295.333 322.7 293.443C325.554 291.422 328.507 289.546 331.55 287.823C334.606 286.127 337.747 284.588 340.96 283.213C343.96 281.973 346.66 280.973 348.96 280.213C350.12 279.823 351.18 279.553 352.11 279.283C353.04 279.013 353.85 278.813 354.52 278.663L356.04 278.323C356.226 278.274 356.418 278.254 356.61 278.263V278.263Z" fill="#FAFAFA"/>
<path d="M368.28 331.103C368.2 331.193 366.69 329.653 363.79 327.803C362.089 326.729 360.303 325.796 358.45 325.013C356.188 324.067 353.845 323.327 351.45 322.803C347.072 321.842 342.572 321.569 338.11 321.993C334.69 322.343 332.62 322.913 332.59 322.803C333.062 322.626 333.547 322.486 334.04 322.383C335.355 322.043 336.691 321.792 338.04 321.633C342.545 321.088 347.11 321.312 351.54 322.293C353.973 322.827 356.351 323.591 358.64 324.573C360.509 325.384 362.3 326.365 363.99 327.503L364.99 328.193L365.86 328.883C366.334 329.234 366.781 329.618 367.2 330.033C367.588 330.36 367.949 330.718 368.28 331.103V331.103Z" fill="#FAFAFA"/>
<path d="M278.83 416.713C278.665 416.694 278.503 416.65 278.35 416.583C277.899 416.446 277.455 416.286 277.02 416.103C275.401 415.463 273.838 414.687 272.35 413.783C267.387 410.813 263.255 406.636 260.339 401.641C257.423 396.646 255.817 390.995 255.67 385.213C255.612 383.475 255.702 381.736 255.94 380.013C256.01 379.403 256.12 378.933 256.17 378.613C256.198 378.45 256.238 378.29 256.29 378.133C256.282 378.769 256.232 379.404 256.14 380.033C255.981 381.752 255.944 383.479 256.03 385.203C256.279 390.902 257.912 396.454 260.788 401.38C263.665 406.306 267.699 410.457 272.54 413.473C274.004 414.391 275.527 415.209 277.1 415.923C278.21 416.403 278.84 416.673 278.83 416.713Z" fill="#FAFAFA"/>
<g opacity="0.2">
<path opacity="0.2" d="M281.45 393.613C280.672 393.348 279.834 393.315 279.039 393.52C278.243 393.724 277.524 394.156 276.97 394.763C276.43 395.381 276.035 396.113 275.815 396.904C275.595 397.695 275.556 398.525 275.7 399.333C275.85 400.898 276.523 402.367 277.61 403.503C278.512 404.376 279.667 404.94 280.91 405.113C281.686 405.096 282.443 404.865 283.097 404.447C283.751 404.029 284.278 403.44 284.62 402.743C285.051 401.943 285.311 401.062 285.383 400.157C285.456 399.251 285.339 398.34 285.041 397.482C284.743 396.623 284.27 395.836 283.652 395.17C283.034 394.504 282.284 393.974 281.45 393.613" fill="black"/>
</g>
<path d="M279.9 393.403C279.18 394.272 278.692 395.311 278.483 396.42C278.274 397.53 278.351 398.675 278.706 399.746C279.061 400.818 279.682 401.782 280.512 402.548C281.342 403.314 282.353 403.856 283.45 404.123C283 404.527 282.461 404.818 281.877 404.972C281.293 405.127 280.681 405.141 280.09 405.013C278.622 404.525 277.36 403.558 276.508 402.267C275.655 400.975 275.262 399.435 275.39 397.893C275.453 396.629 275.967 395.43 276.84 394.513C277.687 393.777 278.778 393.381 279.9 393.403" fill="#29ABE2"/>
<g opacity="0.4">
<path opacity="0.4" d="M280.534 393.001C279.813 393.87 279.326 394.909 279.117 396.018C278.908 397.128 278.984 398.272 279.339 399.344C279.694 400.416 280.316 401.38 281.146 402.146C281.976 402.911 282.987 403.453 284.084 403.721C283.634 404.124 283.095 404.415 282.511 404.57C281.927 404.725 281.314 404.739 280.724 404.611C279.256 404.123 277.994 403.156 277.142 401.864C276.289 400.573 275.895 399.033 276.024 397.491C276.086 396.227 276.601 395.027 277.474 394.111C278.321 393.375 279.411 392.979 280.534 393.001" fill="black"/>
</g>
<g opacity="0.2">
<path opacity="0.2" d="M266.71 387.923C265.959 387.673 265.151 387.645 264.384 387.844C263.618 388.043 262.925 388.459 262.39 389.043C261.868 389.639 261.486 390.345 261.273 391.108C261.06 391.871 261.022 392.673 261.16 393.453C261.326 394.952 261.975 396.356 263.01 397.453C263.884 398.293 265 398.835 266.2 399.003C266.947 398.987 267.675 398.766 268.305 398.364C268.935 397.962 269.442 397.394 269.77 396.723C270.184 395.95 270.434 395.099 270.503 394.225C270.572 393.351 270.46 392.471 270.172 391.643C269.885 390.814 269.429 390.054 268.833 389.41C268.237 388.767 267.514 388.254 266.71 387.903" fill="black"/>
</g>
<path d="M265.22 387.743C264.521 388.581 264.048 389.583 263.845 390.654C263.641 391.726 263.715 392.832 264.058 393.867C264.402 394.903 265.004 395.833 265.807 396.571C266.611 397.309 267.589 397.829 268.65 398.083C268.215 398.473 267.694 398.755 267.129 398.906C266.564 399.058 265.972 399.074 265.4 398.953C263.984 398.479 262.767 397.543 261.946 396.296C261.125 395.048 260.746 393.561 260.87 392.073C260.928 390.858 261.421 389.704 262.26 388.823C263.089 388.1 264.16 387.714 265.26 387.743" fill="#29ABE2"/>
<g opacity="0.4">
<path opacity="0.4" d="M265.373 388.001C264.674 388.839 264.201 389.841 263.998 390.913C263.794 391.985 263.868 393.09 264.211 394.126C264.555 395.161 265.157 396.092 265.96 396.829C266.764 397.567 267.742 398.088 268.803 398.341C268.368 398.732 267.847 399.014 267.282 399.165C266.717 399.316 266.125 399.332 265.553 399.211C264.137 398.737 262.92 397.802 262.099 396.554C261.278 395.307 260.899 393.82 261.023 392.332C261.081 391.116 261.574 389.963 262.413 389.082C263.242 388.358 264.313 387.973 265.413 388.001" fill="black"/>
</g>
<path d="M304.65 360.403C304.65 360.403 304.75 360.403 304.79 360.333H304.86L304.65 360.403Z" fill="#263238"/>
<path d="M312.21 363.523C311.735 362.245 310.816 361.18 309.62 360.523C308.671 360.048 307.622 359.804 306.56 359.813H306.47C305.879 359.849 305.305 360.02 304.79 360.313C303.68 360.866 302.729 361.694 302.029 362.718C301.329 363.742 300.902 364.928 300.79 366.163C300.72 367.743 301.12 369.308 301.938 370.66C302.757 372.013 303.958 373.093 305.39 373.763C306.335 374.249 307.414 374.411 308.46 374.223C309.496 373.927 310.402 373.289 311.03 372.413C311.987 371.164 312.599 369.685 312.806 368.126C313.013 366.566 312.808 364.979 312.21 363.523V363.523Z" fill="#263238"/>
<path d="M273.74 350.673C273.781 350.649 273.825 350.629 273.87 350.613H273.93L273.74 350.673Z" fill="#263238"/>
<path d="M280.28 353.403C279.878 352.278 279.077 351.339 278.03 350.763C277.212 350.35 276.307 350.137 275.39 350.143H275.28C274.769 350.177 274.273 350.328 273.83 350.583C272.866 351.06 272.04 351.777 271.433 352.665C270.825 353.553 270.456 354.582 270.36 355.653C270.301 357.021 270.649 358.376 271.361 359.546C272.074 360.716 273.117 361.648 274.36 362.223C275.165 362.7 276.124 362.845 277.034 362.629C277.945 362.413 278.736 361.851 279.24 361.063C280.061 359.985 280.589 358.713 280.771 357.37C280.954 356.028 280.784 354.661 280.28 353.403V353.403Z" fill="#263238"/>
<path d="M282.28 370.113C282.491 370.127 282.699 370.167 282.9 370.233C283.489 370.383 284.07 370.563 284.64 370.773C286.745 371.544 288.726 372.619 290.52 373.963C293.205 375.948 295.489 378.426 297.25 381.263C299.386 384.748 300.807 388.623 301.43 392.663C302.068 396.695 302.021 400.807 301.29 404.823C300.76 408.148 299.324 411.262 297.14 413.823C295.638 415.52 293.691 416.763 291.52 417.413C290.737 417.67 289.913 417.782 289.09 417.743C289.893 417.634 290.685 417.46 291.46 417.223C293.557 416.512 295.425 415.251 296.87 413.573C298.958 411.043 300.322 407.995 300.82 404.753C301.519 400.786 301.549 396.73 300.91 392.753C300.3 388.78 298.917 384.965 296.84 381.523C295.127 378.72 292.909 376.259 290.3 374.263C288.542 372.919 286.615 371.809 284.57 370.963C283.14 370.403 282.28 370.163 282.28 370.113Z" fill="#263238"/>
<path d="M272.73 358.283C272.68 358.283 272.42 358.103 272.15 357.633C271.825 357.016 271.651 356.331 271.64 355.633C271.643 354.936 271.815 354.25 272.14 353.633C272.41 353.163 272.66 352.943 272.72 352.983C272.427 353.851 272.239 354.751 272.16 355.663C272.252 356.555 272.443 357.434 272.73 358.283V358.283Z" fill="#FAFAFA"/>
<path d="M302.88 369.333C302.82 369.333 302.57 369.103 302.35 368.573C302.08 367.869 302.008 367.105 302.14 366.363C302.254 365.623 302.572 364.931 303.06 364.363C303.44 363.923 303.76 363.763 303.8 363.813C303.279 364.63 302.891 365.525 302.65 366.463C302.564 367.426 302.642 368.396 302.88 369.333V369.333Z" fill="#FAFAFA"/>
<path d="M321.85 422.173C321.8 422.253 320.59 421.413 318.47 420.353C315.693 419.013 312.822 417.877 309.88 416.953C306.43 415.833 303.29 414.873 301.04 414.073C299.92 413.683 299.04 413.343 298.4 413.073C298.073 412.96 297.761 412.809 297.47 412.623C298.719 412.924 299.95 413.291 301.16 413.723C303.42 414.433 306.58 415.333 310.04 416.463C313.011 417.386 315.889 418.581 318.64 420.033C319.17 420.303 319.64 420.593 320.03 420.843C320.377 421.049 320.711 421.276 321.03 421.523C321.331 421.703 321.606 421.921 321.85 422.173V422.173Z" fill="#263238"/>
<path d="M392.8 389.963C392.532 390.457 392.224 390.928 391.88 391.373C391.28 392.263 390.33 393.513 389.12 395.013C385.901 398.882 382.406 402.512 378.66 405.873C374.29 409.873 370.22 413.263 367.34 415.823L363.94 418.823C363.544 419.218 363.116 419.579 362.66 419.903C363.005 419.465 363.386 419.057 363.8 418.683C364.56 417.913 365.69 416.833 367.1 415.513C369.92 412.883 373.95 409.403 378.3 405.453C382.027 402.103 385.544 398.526 388.83 394.743C390.08 393.283 391.07 392.073 391.72 391.223C392.047 390.776 392.408 390.355 392.8 389.963Z" fill="#263238"/>
<g opacity="0.2">
<path opacity="0.2" d="M375.8 408.483C381.18 408.923 387.29 407.273 391.11 403.483C393.027 401.531 394.322 399.054 394.829 396.366C395.337 393.678 395.034 390.899 393.96 388.383C390.82 392.863 387.28 397.623 382.96 401.283C380.24 403.593 378.43 406.393 375.8 408.513" fill="black"/>
</g>
<g opacity="0.5">
<path opacity="0.5" d="M356.64 282.713C363.64 293.013 377.99 296.273 384.93 306.593C387.62 310.593 388.93 315.313 390.23 319.953L406.23 377.683C406.89 365.173 403.88 352.793 400.88 340.623C397.933 328.623 394.977 316.623 392.01 304.623C391.521 301.939 390.545 299.366 389.13 297.033C387.55 294.763 385.2 293.173 382.91 291.633C374.69 286.113 366.23 280.493 356.59 278.293" fill="black"/>
</g>
<g opacity="0.3">
<path opacity="0.3" d="M307.56 313.893C308 315.293 306.08 317.203 303.09 319.573C301.58 320.753 299.82 322.103 297.88 323.573C295.94 325.043 293.88 326.653 291.71 328.393C289.54 330.133 287.58 331.863 285.71 333.393C283.84 334.923 282.21 336.453 280.71 337.683C277.78 340.133 275.53 341.623 274.24 340.903C272.95 340.183 273.04 337.343 274.75 333.363C275.773 331.054 277.072 328.878 278.62 326.883C282.409 321.972 287.283 318.006 292.86 315.293C295.13 314.19 297.524 313.361 299.99 312.823C304.28 311.993 307.14 312.553 307.56 313.893Z" fill="white"/>
</g>
<path d="M280.81 392.813C280.076 393.079 279.315 393.263 278.54 393.363C277.804 393.617 277.043 393.795 276.27 393.893C276.86 393.336 277.614 392.985 278.42 392.893C279.189 392.617 280.025 392.589 280.81 392.813V392.813Z" fill="#FAFAFA"/>
<path d="M265.63 387.303C264.935 387.468 264.23 387.591 263.52 387.673C262.39 387.923 261.52 388.393 261.46 388.263C261.4 388.133 262.16 387.443 263.4 387.163C263.762 387.037 264.146 386.985 264.529 387.009C264.912 387.033 265.286 387.133 265.63 387.303Z" fill="#FAFAFA"/>
<path d="M332.95 433.803C332.81 433.873 331.48 431.633 329.63 429.003C327.78 426.373 326.13 424.363 326.24 424.263C327.717 425.555 329.003 427.05 330.06 428.703C331.255 430.261 332.227 431.978 332.95 433.803Z" fill="#FAFAFA"/>
<path d="M273.38 328.853C273.52 328.943 271.55 331.853 269.84 335.753C268.13 339.653 267.31 343.063 267.15 343.023C267.173 342.258 267.308 341.5 267.55 340.773C268.007 338.982 268.612 337.233 269.36 335.543C270.101 333.85 270.981 332.221 271.99 330.673C272.374 330.01 272.841 329.398 273.38 328.853V328.853Z" fill="#FAFAFA"/>
<path d="M321.86 309.493C319.935 309.305 318.046 308.844 316.25 308.123C314.398 307.559 312.632 306.745 311 305.703C311.07 305.563 313.43 306.583 316.42 307.623C319.41 308.663 321.9 309.343 321.86 309.493Z" fill="#FAFAFA"/>
<path d="M399.86 293.283C397.522 296.475 394.084 298.687 390.21 299.493C391.964 298.705 393.676 297.827 395.34 296.863C396.906 295.747 398.415 294.552 399.86 293.283V293.283Z" fill="#EB996E"/>
<path d="M429.15 286.593C423.77 274.193 370.03 230.173 370.03 230.173L339.73 269.513C340.17 268.923 389.16 298.763 389.16 298.763L403.61 364.643L406.1 376.403C406.1 376.403 399.6 382.073 399.87 388.053C400.04 392.053 390.87 400.663 390.87 400.663C388.69 398.853 387.29 398.343 386.19 398.553L376.44 407.683L378.76 409.803C381.347 412.163 384.751 413.422 388.25 413.313L404.92 412.803C407.298 412.734 409.554 411.74 411.21 410.033C416.34 404.763 427.16 392.973 427.37 387.293C427.5 384.113 427.52 381.083 427.51 378.643C427.46 378.613 434.52 298.993 429.15 286.593Z" fill="#FFBE9D"/>
<path d="M413.19 391.943C412.915 392.192 412.601 392.395 412.26 392.543C411.65 392.883 410.71 393.283 409.62 393.883C408.364 394.608 407.255 395.561 406.35 396.693C405.205 398.121 403.857 399.374 402.35 400.413C399.563 402.268 396.254 403.18 392.91 403.013C392.324 403.012 391.742 402.911 391.19 402.713C390.967 402.635 390.772 402.492 390.63 402.304C390.488 402.115 390.404 401.889 390.39 401.653C390.381 401.506 390.408 401.359 390.469 401.224C390.53 401.09 390.623 400.973 390.74 400.883C390.91 400.783 391.02 400.803 391.02 400.813C391.02 400.823 390.93 400.813 390.8 400.963C390.714 401.052 390.65 401.16 390.613 401.278C390.576 401.396 390.569 401.521 390.59 401.643C390.619 401.832 390.701 402.008 390.827 402.152C390.953 402.295 391.117 402.4 391.3 402.453C391.825 402.61 392.373 402.678 392.92 402.653C396.169 402.716 399.361 401.788 402.07 399.993C403.537 398.983 404.853 397.771 405.98 396.393C406.935 395.234 408.107 394.273 409.43 393.563C410.57 392.993 411.52 392.653 412.16 392.363C412.491 392.194 412.835 392.053 413.19 391.943V391.943Z" fill="#EB996E"/>
<path d="M405.57 400.623C405.64 400.753 404.26 401.563 402.78 402.823C401.3 404.083 400.26 405.293 400.14 405.203C400.685 404.113 401.48 403.167 402.46 402.443C403.331 401.59 404.4 400.965 405.57 400.623Z" fill="#EB996E"/>
<path d="M412.28 373.333C412.28 373.483 410.81 373.573 409.2 374.333C407.59 375.093 406.57 376.163 406.46 376.053C407.089 375.11 407.964 374.357 408.989 373.874C410.015 373.391 411.153 373.197 412.28 373.313V373.333Z" fill="#EB996E"/>
<path d="M401.88 405.763C401.88 405.853 400.81 405.333 399.01 404.913C396.016 404.174 392.872 404.305 389.95 405.293C389.624 405.416 389.29 405.516 388.95 405.593C388.577 405.661 388.192 405.579 387.88 405.363L385.28 403.403C384.441 402.849 383.655 402.22 382.93 401.523C383.828 401.979 384.688 402.507 385.5 403.103L388.19 404.933C388.62 405.263 389.19 405.013 389.82 404.783C390.475 404.556 391.143 404.369 391.82 404.223C394.24 403.745 396.738 403.848 399.11 404.523C399.822 404.726 400.514 404.991 401.18 405.313C401.65 405.583 401.9 405.733 401.88 405.763Z" fill="#EB996E"/>
<path d="M288.81 252.963C282.4 251.133 279.56 250.343 279.56 250.343V247.403H282.11C284.67 247.403 288.35 244.213 288.35 244.213L293.82 235.843L294.52 230.473C293.94 223.853 285.96 226.473 285.96 226.473C285.58 224.163 275.36 221.843 267.68 220.413C265.108 219.932 262.461 220.029 259.931 220.697C257.401 221.364 255.05 222.586 253.05 224.273L245.68 230.493L223.6 249.803L166.6 297.953L129.13 286.893C129.13 286.893 117.21 323.343 115.28 336.403C111.55 361.493 146.04 378.213 161.28 365.303C173.1 355.303 242.04 281.023 253.46 268.713H253.55C260.55 267.823 272.43 260.713 272.43 260.713L278.52 261.433C278.52 261.433 294.7 264.523 296.62 261.353C298.06 258.903 295.22 254.793 288.81 252.963Z" fill="#FFBE9D"/>
<path d="M255.62 245.683C255.62 245.683 255.78 245.913 255.97 246.383C256.248 247.047 256.468 247.732 256.63 248.433C257.174 250.751 257.262 253.152 256.89 255.503C256.522 257.855 255.693 260.112 254.45 262.143C254.081 262.758 253.659 263.34 253.19 263.883C252.86 264.273 252.66 264.473 252.63 264.443C252.6 264.413 253.27 263.523 254.13 261.963C256.401 257.867 257.162 253.103 256.28 248.503C255.93 246.753 255.53 245.713 255.62 245.683Z" fill="#EB996E"/>
<path d="M259.75 225.263C259.954 225.211 260.161 225.174 260.37 225.153C260.79 225.093 261.37 225.013 262.18 224.943C264.415 224.698 266.671 224.721 268.9 225.013C270.447 225.241 271.953 225.692 273.37 226.353C275.016 227.103 276.47 228.218 277.62 229.613C278.932 231.166 279.657 233.13 279.67 235.163C279.651 236.241 279.381 237.299 278.88 238.253C278.347 239.215 277.673 240.091 276.88 240.853C275.385 242.299 273.746 243.589 271.99 244.703C271.159 245.263 270.279 245.745 269.36 246.143C268.884 246.333 268.372 246.418 267.86 246.393C267.594 246.38 267.333 246.311 267.095 246.191C266.857 246.07 266.648 245.901 266.48 245.693C266.172 245.282 266.02 244.776 266.05 244.263C266.061 243.796 266.145 243.334 266.3 242.893C266.588 242.076 266.982 241.299 267.47 240.583C268.351 239.291 269.532 238.231 270.91 237.493L270.97 237.843L264.15 236.543L262.3 236.163C262.081 236.132 261.866 236.075 261.66 235.993C261.881 235.993 262.102 236.013 262.32 236.053L264.18 236.343L271.03 237.473L271.56 237.563L271.09 237.823C269.782 238.552 268.665 239.58 267.83 240.823C267.368 241.51 267.002 242.257 266.74 243.043C266.57 243.416 266.492 243.824 266.513 244.233C266.534 244.642 266.653 245.04 266.86 245.393C267.169 245.679 267.561 245.86 267.98 245.911C268.398 245.961 268.822 245.878 269.19 245.673C270.073 245.288 270.917 244.82 271.71 244.273C273.435 243.177 275.044 241.907 276.51 240.483C277.274 239.81 277.898 238.993 278.346 238.078C278.794 237.164 279.057 236.17 279.12 235.153C279.111 233.238 278.436 231.385 277.21 229.913C276.107 228.566 274.717 227.482 273.14 226.743C271.767 226.083 270.305 225.625 268.8 225.383C266.602 225.061 264.376 224.98 262.16 225.143L260.34 225.253C260.145 225.281 259.946 225.285 259.75 225.263V225.263Z" fill="#EB996E"/>
<path d="M286.04 226.783C286.141 227.135 286.198 227.497 286.21 227.863C286.309 228.86 286.349 229.862 286.33 230.863C286.337 234.179 285.478 237.44 283.84 240.323C281.84 243.673 278.71 245.833 276.12 246.173C275.604 246.244 275.079 246.19 274.589 246.016C274.098 245.842 273.656 245.553 273.3 245.173C273.115 244.962 272.972 244.718 272.88 244.453C272.839 244.366 272.822 244.269 272.83 244.173C273.003 244.483 273.211 244.772 273.45 245.033C273.803 245.348 274.224 245.579 274.679 245.707C275.135 245.836 275.614 245.858 276.08 245.773C278.46 245.383 281.48 243.253 283.39 240.033C284.979 237.216 285.861 234.056 285.96 230.823C286.09 228.333 285.95 226.783 286.04 226.783Z" fill="#EB996E"/>
<path d="M271.89 255.343C271.83 255.273 272.35 254.823 272.97 253.923C273.766 252.766 274.261 251.429 274.41 250.033C274.537 248.632 274.307 247.221 273.74 245.933C273.31 244.933 272.89 244.393 272.96 244.343C273.446 244.717 273.828 245.209 274.07 245.773C274.775 247.093 275.074 248.591 274.93 250.081C274.786 251.57 274.205 252.983 273.26 254.143C272.91 254.65 272.439 255.062 271.89 255.343V255.343Z" fill="#EB996E"/>
<path d="M262.17 236.403C262.531 237.073 262.644 237.848 262.49 238.593C262.426 239.414 262.187 240.212 261.79 240.933C261.337 241.814 260.765 242.628 260.09 243.353C258.818 244.623 257.287 245.602 255.6 246.223C254.936 246.545 254.234 246.781 253.51 246.923C254.117 246.518 254.768 246.183 255.45 245.923C257.034 245.222 258.477 244.239 259.71 243.023C260.356 242.328 260.914 241.555 261.37 240.723C261.76 240.062 262.018 239.332 262.13 238.573C262.218 237.853 262.232 237.126 262.17 236.403V236.403Z" fill="#EB996E"/>
<path d="M304.69 239.343L276.56 254.673C276.56 254.673 291.61 258.403 305.28 272.853C312.711 280.724 318.528 289.975 322.4 300.083L350.4 281.443C350.4 281.443 335.33 247.303 304.69 239.343Z" fill="#455A64"/>
<path d="M281.52 254.103L304.23 241.103H304.3H304.37C308.386 242.184 312.247 243.774 315.86 245.833C319.966 248.209 323.796 251.033 327.28 254.253C331.143 257.796 334.683 261.674 337.86 265.843C341.305 270.288 344.359 275.023 346.99 279.993L347.1 280.203L346.9 280.333L345.43 281.333L323.81 295.783L323.55 295.953L323.44 295.673C320.383 288.109 316.181 281.059 310.98 274.773C306.847 269.846 302.067 265.5 296.77 261.853C293.314 259.455 289.63 257.405 285.77 255.733C284.41 255.153 283.35 254.733 282.62 254.503L281.8 254.223L281.52 254.123L281.81 254.183L282.65 254.423C283.39 254.653 284.46 255.023 285.83 255.573C289.745 257.186 293.485 259.197 296.99 261.573C302.341 265.2 307.169 269.544 311.34 274.483C316.599 280.791 320.85 287.875 323.94 295.483L323.57 295.373L345.18 280.903L346.65 279.903L346.56 280.233C343.946 275.294 340.915 270.587 337.5 266.163C334.347 262.014 330.834 258.152 327 254.623C323.536 251.416 319.73 248.599 315.65 246.223C312.076 244.162 308.256 242.563 304.28 241.463H304.42L281.52 254.103Z" fill="white"/>
<path d="M327.57 263.343C326.83 267.673 321.35 270.293 315.32 269.193C309.29 268.093 304.98 263.693 305.72 259.363C306.46 255.033 311.94 252.413 317.97 253.513C324 254.613 328.28 259.013 327.57 263.343Z" fill="#FAFAFA"/>
<path d="M314.46 264.733L313.46 265.813L312.34 264.723L313.28 263.723C312.475 262.878 311.891 261.848 311.58 260.723L313.47 259.903C313.722 260.948 314.259 261.904 315.02 262.663C315.79 263.413 316.29 263.473 316.58 263.153C317.58 262.073 313.13 259.243 315.41 256.723C316.41 255.663 317.93 255.473 319.61 256.723L320.61 255.663L321.73 256.753L320.78 257.753C321.411 258.45 321.882 259.276 322.16 260.173L320.3 261.043C320.05 260.183 319.594 259.396 318.97 258.753C318.19 258.003 317.66 258.003 317.36 258.333C316.42 259.333 320.83 262.203 318.57 264.703C317.64 265.733 316.12 265.933 314.46 264.733Z" fill="#455A64"/>
<path d="M287.94 250.493C287.94 250.493 292.71 252.913 288.13 256.493L281.13 253.773L287.94 250.493Z" fill="#FAFAFA"/>
<path d="M300.75 243.293C300.75 243.293 305.35 248.153 309.75 243.093L304.33 241.283L300.75 243.293Z" fill="#FAFAFA"/>
<path d="M320.82 289.173C320.82 289.173 327.01 284.173 330.62 290.933L323.71 295.553L320.82 289.173Z" fill="#FAFAFA"/>
<path d="M343.66 274.603C343.66 274.603 339.19 277.403 342.22 283.173L346.8 280.113L343.66 274.603Z" fill="#FAFAFA"/>
<path d="M327.09 290.823C327.078 291.193 326.958 291.55 326.744 291.852C326.53 292.153 326.232 292.385 325.887 292.517C325.542 292.65 325.165 292.678 324.804 292.599C324.443 292.519 324.114 292.334 323.857 292.068C323.601 291.802 323.429 291.466 323.362 291.102C323.295 290.739 323.337 290.363 323.483 290.024C323.628 289.684 323.87 289.394 324.179 289.191C324.488 288.989 324.85 288.881 325.22 288.883C325.47 288.887 325.718 288.94 325.947 289.04C326.177 289.14 326.385 289.284 326.558 289.464C326.732 289.645 326.869 289.857 326.96 290.091C327.051 290.324 327.095 290.573 327.09 290.823Z" fill="#455A64"/>
<path d="M345.85 278.893C345.836 279.26 345.715 279.614 345.501 279.912C345.288 280.21 344.991 280.439 344.649 280.57C344.306 280.701 343.932 280.728 343.574 280.648C343.216 280.568 342.89 280.385 342.635 280.121C342.38 279.857 342.209 279.524 342.143 279.163C342.076 278.802 342.117 278.43 342.26 278.092C342.404 277.755 342.643 277.467 342.949 277.264C343.255 277.061 343.613 276.953 343.98 276.953C344.23 276.957 344.478 277.01 344.707 277.11C344.937 277.21 345.145 277.354 345.318 277.534C345.492 277.715 345.629 277.927 345.72 278.161C345.811 278.394 345.855 278.643 345.85 278.893V278.893Z" fill="#455A64"/>
<path d="M307.21 243.103C307.21 243.793 306.21 244.353 305.06 244.353C303.91 244.353 302.92 243.793 302.92 243.103C302.92 242.413 303.92 241.853 305.07 241.853C306.22 241.853 307.21 242.403 307.21 243.103Z" fill="#455A64"/>
<path d="M288.93 253.473C289.027 253.904 288.989 254.354 288.819 254.761C288.65 255.169 288.358 255.513 287.984 255.748C287.61 255.982 287.172 256.095 286.732 256.07C286.291 256.045 285.869 255.883 285.524 255.608C285.179 255.333 284.928 254.957 284.806 254.533C284.684 254.109 284.696 253.657 284.842 253.24C284.987 252.824 285.259 252.463 285.619 252.207C285.978 251.951 286.409 251.814 286.85 251.813C287.345 251.765 287.838 251.911 288.227 252.221C288.615 252.531 288.867 252.98 288.93 253.473V253.473Z" fill="#455A64"/>
<path d="M306.17 252.403C306.17 253.463 304.85 254.323 303.22 254.323C301.59 254.323 300.28 253.493 300.28 252.403C300.28 251.313 301.6 250.483 303.23 250.483C304.86 250.483 306.17 251.403 306.17 252.403Z" fill="#FAFAFA"/>
<path d="M329.86 278.123C328.53 278.733 326.86 277.893 326.2 276.253C325.834 275.557 325.748 274.746 325.962 273.988C326.176 273.231 326.673 272.585 327.35 272.183C328.68 271.573 330.35 272.413 331.01 274.063C331.376 274.758 331.461 275.567 331.247 276.323C331.033 277.079 330.536 277.723 329.86 278.123V278.123Z" fill="#FAFAFA"/>
<path d="M288.36 244.213L299.91 256.403C299.91 256.403 304.53 261.693 307.64 259.193C310.75 256.693 306.38 252.033 305.46 250.673C304.54 249.313 293.22 235.583 293.22 235.583L288.36 244.213Z" fill="#FFBE9D"/>
<path d="M294.28 233.253C294.235 233.975 294.083 234.686 293.83 235.363C293.354 237.033 292.683 238.641 291.83 240.153C290.96 241.675 289.849 243.046 288.54 244.213C288.025 244.724 287.422 245.137 286.76 245.433C287.24 244.906 287.751 244.409 288.29 243.943C289.484 242.745 290.523 241.401 291.38 239.943C293.37 236.403 294.14 233.193 294.28 233.253Z" fill="#EB996E"/>
<path d="M186.86 280.833C186.698 281.027 186.517 281.205 186.32 281.363L184.71 282.803L178.71 288.013C173.62 292.383 166.55 298.393 158.71 304.943C150.87 311.493 143.58 317.403 138.28 321.483C135.64 323.563 133.47 325.193 131.95 326.313L130.19 327.563C129.995 327.721 129.783 327.858 129.56 327.973C129.738 327.797 129.929 327.633 130.13 327.483L131.83 326.143C133.31 324.983 135.44 323.313 138.05 321.203C143.28 316.993 150.44 311.093 158.32 304.543C166.2 297.993 173.26 292.063 178.46 287.733L184.57 282.643L186.25 281.283C186.439 281.115 186.644 280.964 186.86 280.833V280.833Z" fill="#EB996E"/>
</svg>
