<svg width="500" height="500" viewBox="0 0 500 500" fill="none" xmlns="http://www.w3.org/2000/svg">
<path d="M444.85 156.54C431.93 163.23 422.03 174.74 414.91 187.41C407.79 200.08 403.2 214 398.66 227.8L394.66 299.01C409.66 273.46 421.74 243.42 425 214.01L415 213.12C421.71 212.12 427.34 207.24 430.92 201.48C434.5 195.72 436.34 189.09 438.14 182.55L426 184.33C435.615 177.827 442.364 167.878 444.85 156.54V156.54Z" fill="#E0E0E0"/>
<path d="M392.46 315.69C392.46 315.69 359.84 276.69 360.22 239.43H373.39C373.39 239.43 359.08 230.03 360.22 224.76C361.36 219.49 361.72 199.55 361.72 199.55L373.72 202.55C373.72 202.55 364.72 198.04 363.56 190.89C362.4 183.74 366.19 150.63 366.19 150.63C366.19 150.63 380.87 166.06 385.39 181.86C389.91 197.66 401.76 216.1 398.28 264.25C394.8 312.4 392.46 315.69 392.46 315.69Z" fill="#EBEBEB"/>
<path d="M409 319.38C409 319.38 444.33 295.85 452.18 265.82L441.59 262.94C441.59 262.94 455.15 258.51 455.4 254.03C455.65 249.55 459.7 233.43 459.7 233.43L449.36 233.22C449.36 233.22 457.61 231.56 460.08 226.06C462.55 220.56 466.78 193.12 466.78 193.12C466.78 193.12 451.59 202.31 444.5 214C437.41 225.69 423.84 238 416.1 277.45C408.36 316.9 409 319.38 409 319.38Z" fill="#EBEBEB"/>
<path d="M375.15 184.66C375.2 184.793 375.237 184.93 375.26 185.07L375.54 186.27C375.78 187.35 376.13 188.91 376.54 190.9C376.95 192.89 377.54 195.38 378.08 198.25C378.62 201.12 379.33 204.38 379.99 208C381.38 215.24 382.85 223.89 384.37 233.51C385.89 243.13 387.3 253.75 388.61 264.91C389.92 276.07 390.88 286.75 391.61 296.46C392.34 306.17 392.87 314.93 393.17 322.29C393.36 325.97 393.44 329.29 393.54 332.23C393.64 335.17 393.69 337.67 393.71 339.73C393.73 341.79 393.76 343.36 393.77 344.47V345.71C393.77 345.98 393.77 346.13 393.77 346.13C393.754 345.99 393.754 345.85 393.77 345.71C393.77 345.4 393.77 345 393.72 344.47C393.72 343.36 393.63 341.77 393.56 339.73C393.49 337.69 393.42 335.16 393.29 332.24C393.16 329.32 393.06 325.98 392.85 322.31C392.51 314.95 391.93 306.2 391.18 296.5C390.43 286.8 389.38 276.13 388.1 264.97C386.82 253.81 385.35 243.21 383.9 233.58C382.45 223.95 380.98 215.31 379.64 208.07C379 204.44 378.35 201.18 377.8 198.3C377.25 195.42 376.8 192.96 376.35 190.94C375.9 188.92 375.64 187.38 375.42 186.29C375.32 185.78 375.25 185.38 375.19 185.08C375.164 184.942 375.15 184.801 375.15 184.66V184.66Z" fill="#E0E0E0"/>
<path d="M387.93 339.58C387.93 339.58 358.09 305.74 348.82 285.28L355.82 282.28C350.74 283.12 345.55 280.94 341.62 277.63C337.69 274.32 334.8 270 332 265.69L341.21 264.14C332.746 261.723 325.537 256.14 321.08 248.55C331.95 250.34 341.79 256.31 349.9 263.77C356.46 269.77 362.02 276.83 367.36 283.99C369.971 287.484 372.244 291.217 374.15 295.14C379.13 305.5 388 327.15 387.93 339.58Z" fill="#EBEBEB"/>
<path d="M452.64 212.82C452.606 212.941 452.559 213.059 452.5 213.17C452.38 213.41 452.23 213.74 452.04 214.17C451.61 215.05 450.99 216.31 450.21 217.92C449.43 219.53 448.44 221.53 447.33 223.86C446.22 226.19 444.94 228.81 443.59 231.75C440.83 237.61 437.67 244.64 434.26 252.5C430.85 260.36 427.26 269.07 423.72 278.28C420.18 287.49 416.96 296.35 414.17 304.45C411.38 312.55 409.01 319.88 407.11 326.07C406.11 329.15 405.31 331.97 404.56 334.43C403.81 336.89 403.19 339.02 402.69 340.76C402.19 342.5 401.79 343.82 401.52 344.76L401.2 345.76C401.166 345.88 401.122 345.997 401.07 346.11C401.084 345.984 401.111 345.86 401.15 345.74C401.21 345.48 401.3 345.13 401.42 344.69C401.67 343.74 402.03 342.39 402.5 340.69C402.97 338.99 403.56 336.81 404.28 334.34C405 331.87 405.79 329.04 406.75 325.95C408.61 319.75 410.97 312.4 413.75 304.28C416.53 296.16 419.75 287.28 423.27 278.08C426.79 268.88 430.46 260.16 433.86 252.3C437.26 244.44 440.5 237.43 443.3 231.59C444.67 228.65 445.98 226.03 447.11 223.72C448.24 221.41 449.24 219.43 450.11 217.82L452.02 214.11C452.24 213.71 452.41 213.377 452.53 213.11C452.561 213.011 452.598 212.915 452.64 212.82V212.82Z" fill="#E0E0E0"/>
<path d="M390.46 354.09C390.401 353.883 390.358 353.673 390.33 353.46C390.26 353 390.16 352.4 390.05 351.67C389.94 350.94 389.79 349.93 389.59 348.83C389.39 347.73 389.2 346.46 388.9 345.08C388.37 342.31 387.6 339.03 386.63 335.43C385.66 331.83 384.38 327.93 382.87 323.9C381.36 319.87 379.68 316.12 378.06 312.76C376.44 309.4 374.82 306.45 373.39 304.02C372.7 302.79 372.01 301.72 371.39 300.76C370.77 299.8 370.29 298.98 369.85 298.32L368.85 296.79C368.724 296.617 368.62 296.429 368.54 296.23C368.689 296.383 368.823 296.551 368.94 296.73L369.99 298.21C370.45 298.85 370.99 299.65 371.6 300.6C372.21 301.55 372.92 302.6 373.6 303.83C375.08 306.25 376.71 309.2 378.39 312.55C380.07 315.9 381.72 319.68 383.26 323.72C384.8 327.76 386 331.72 386.99 335.31C387.98 338.9 388.67 342.22 389.16 345.01C389.44 346.4 389.6 347.67 389.77 348.78C389.94 349.89 390.07 350.85 390.15 351.64C390.23 352.43 390.29 352.98 390.33 353.45C390.4 353.657 390.444 353.872 390.46 354.09V354.09Z" fill="#E0E0E0"/>
<path d="M429.84 346.13H364.52V359.45H429.84V346.13Z" fill="#E0E0E0"/>
<path d="M370.75 359.44L377.81 404.24H417.28L423.87 359.44H370.75Z" fill="#E0E0E0"/>
<path d="M425.84 359.44C425.84 359.59 413.48 359.7 398.24 359.7C383 359.7 370.64 359.59 370.64 359.44C370.64 359.29 383 359.18 398.24 359.18C413.48 359.18 425.84 359.3 425.84 359.44Z" fill="#EBEBEB"/>
<path d="M323.36 103.16C322.48 106.504 321.003 109.661 319 112.48L323.29 116.48L341.59 133L341.16 133.2C341.16 133.2 357 122.14 361.38 118.53C364.99 115.53 374.65 109.41 375.44 103.45C375.572 102.391 375.369 101.317 374.86 100.379C374.351 99.4409 373.56 98.6859 372.6 98.22C371.942 97.8848 371.204 97.7382 370.468 97.7965C369.732 97.8547 369.027 98.1155 368.43 98.55C368.43 98.55 372.69 93.55 369.32 90.27C365.95 86.99 363.32 89.56 363.32 89.56C363.32 89.56 367.49 83.21 363.62 79.69C362.819 79.0752 361.85 78.7175 360.842 78.664C359.833 78.6104 358.832 78.8635 357.97 79.39L359.54 77.71L367.63 69C368.595 67.9898 369.133 66.6468 369.133 65.25C369.133 63.8532 368.595 62.5102 367.63 61.5C367.134 60.998 366.542 60.6005 365.89 60.3311C365.238 60.0616 364.538 59.9257 363.832 59.9313C363.127 59.9369 362.429 60.0839 361.781 60.3636C361.133 60.6434 360.548 61.0502 360.06 61.56L337.3 85.38L338.46 72.38C338.75 69.01 334.2 66.57 332.18 67.81C332.18 67.81 329.07 69.02 328.18 74.29C327.59 78.27 323.36 103.16 323.36 103.16Z" fill="#F5F5F5"/>
<path d="M323.36 103.16C323.36 103.16 323.36 102.94 323.44 102.51C323.52 102.08 323.6 101.44 323.73 100.62C324 98.94 324.39 96.5 324.9 93.35L326.8 81.83C327.173 79.5834 327.57 77.18 327.99 74.62C328.166 73.2779 328.561 71.9738 329.16 70.76C329.783 69.4353 330.818 68.3478 332.11 67.66C332.919 67.2601 333.852 67.1919 334.71 67.47C335.557 67.7364 336.337 68.1795 337 68.77C337.715 69.3702 338.246 70.1607 338.53 71.05C338.6 71.28 338.62 71.52 338.67 71.75C338.72 71.98 338.67 72.24 338.67 72.47L338.55 73.84C338.23 77.52 337.897 81.3734 337.55 85.4L337.13 85.21L357.86 63.55C358.33 63.07 358.79 62.55 359.26 62.09C359.718 61.5669 360.227 61.0912 360.78 60.67C361.987 59.852 363.463 59.5331 364.9 59.78C365.627 59.9053 366.322 60.176 366.942 60.5757C367.562 60.9754 368.095 61.4961 368.51 62.1066C368.924 62.717 369.211 63.4048 369.354 64.1287C369.497 64.8527 369.492 65.5979 369.34 66.32C369.194 67.0523 368.912 67.751 368.51 68.38C368.086 68.9612 367.611 69.5033 367.09 70L364.15 73.15L358.15 79.54L357.8 79.09C358.98 78.4027 360.374 78.1782 361.71 78.46C362.27 78.5832 362.807 78.796 363.3 79.09C363.558 79.2305 363.789 79.4169 363.98 79.64C364.185 79.8434 364.373 80.0642 364.54 80.3C365.202 81.2348 365.552 82.3547 365.54 83.5C365.428 85.6969 364.738 87.8254 363.54 89.67L363.1 89.31C363.646 88.8268 364.311 88.498 365.026 88.3574C365.742 88.2167 366.482 88.2694 367.17 88.51C367.842 88.7617 368.462 89.1346 369 89.61C369.271 89.8238 369.519 90.0651 369.74 90.33L370.09 90.73L370.36 91.19C370.664 91.8077 370.84 92.4808 370.876 93.1684C370.912 93.8561 370.808 94.5439 370.57 95.19C370.138 96.4582 369.484 97.6398 368.64 98.68L368.27 98.27C368.856 97.8492 369.539 97.5829 370.256 97.4955C370.973 97.4081 371.7 97.5025 372.37 97.77C373.35 98.1593 374.193 98.829 374.794 99.6952C375.396 100.561 375.728 101.586 375.75 102.64C375.735 103.318 375.627 103.991 375.43 104.64C374.983 105.885 374.349 107.055 373.55 108.11C370.34 112.22 366.17 115.11 362.42 117.96C358.67 120.81 354.96 123.61 351.42 126.16L341.27 133.31L341.06 132.95L341.49 132.75L341.44 133.1L323.2 116.59H323.39L323.29 116.69L323.19 116.6L318.92 112.6L318.85 112.53L318.91 112.45C320.397 110.372 321.607 108.11 322.51 105.72C322.82 104.91 323.02 104.27 323.15 103.84C323.28 103.41 323.36 103.2 323.36 103.2C323.176 104.07 322.929 104.926 322.62 105.76C321.759 108.186 320.571 110.484 319.09 112.59V112.44C320.33 113.59 321.71 114.86 323.39 116.44H323.2L323.29 116.34L323.4 116.43L341.74 132.89L341.98 133.1L341.69 133.23L341.26 133.43L341 133L351.12 125.81C354.64 123.25 358.37 120.6 362.07 117.6C365.77 114.6 369.97 111.84 373.07 107.82C373.832 106.815 374.436 105.698 374.86 104.51C375.038 103.912 375.139 103.294 375.16 102.67C375.141 102.047 375.005 101.433 374.76 100.86C374.252 99.692 373.303 98.7719 372.12 98.3C371.532 98.068 370.895 97.9876 370.267 98.0662C369.64 98.1448 369.043 98.38 368.53 98.75L367 99.88L368.22 98.36C369.017 97.3778 369.63 96.2599 370.03 95.06C370.254 94.4795 370.354 93.8587 370.325 93.2371C370.296 92.6156 370.137 92.0069 369.86 91.45C369.198 90.365 368.191 89.5339 367 89.09C366.412 88.8828 365.779 88.8347 365.166 88.9506C364.553 89.0665 363.982 89.3423 363.51 89.75L362.13 91L363.08 89.41C364.22 87.6588 364.875 85.6369 364.98 83.55C365.039 82.5241 364.733 81.5105 364.116 80.6886C363.499 79.8668 362.612 79.2898 361.61 79.06C360.412 78.8113 359.164 79.0181 358.11 79.64L356.52 80.52L357.76 79.2L363.76 72.81C364.753 71.7567 365.733 70.7067 366.7 69.66C367.182 69.1717 367.617 68.6394 368 68.07C368.362 67.5015 368.617 66.8709 368.75 66.21C368.885 65.557 368.889 64.8836 368.76 64.2292C368.631 63.5749 368.373 62.953 368 62.4C367.624 61.8593 367.146 61.3981 366.591 61.0429C366.037 60.6877 365.418 60.4454 364.77 60.33C363.478 60.1013 362.147 60.3846 361.06 61.12C360.537 61.5218 360.055 61.974 359.62 62.47L358.22 63.93L337.47 85.54L337 86L337.07 85.32C337.43 81.32 337.78 77.44 338.12 73.77C338.285 72.8978 338.285 72.0023 338.12 71.13C337.861 70.3202 337.379 69.5995 336.73 69.05C336.106 68.4969 335.369 68.0873 334.57 67.85C333.822 67.5985 333.005 67.6451 332.29 67.98V67.98C331.089 68.63 330.125 69.6458 329.54 70.88C328.952 72.0542 328.563 73.3182 328.39 74.62C327.95 77.17 327.53 79.62 327.15 81.83C326.37 86.31 325.7 90.17 325.15 93.33C324.6 96.49 324.15 98.91 323.87 100.58C323.72 101.4 323.61 102.02 323.52 102.46C323.43 102.9 323.36 103.16 323.36 103.16Z" fill="#E0E0E0"/>
<path d="M313.044 112.648L313.249 112.429C314.018 111.605 315.084 111.121 316.21 111.083C317.337 111.045 318.432 111.457 319.256 112.226L341.799 133.3C342.621 134.068 343.104 135.131 343.141 136.255C343.179 137.379 342.769 138.472 342.001 139.293L341.796 139.512C341.027 140.336 339.961 140.82 338.835 140.858C337.708 140.896 336.613 140.484 335.789 139.715L313.253 118.648C312.431 117.88 311.949 116.817 311.911 115.693C311.873 114.569 312.283 113.476 313.051 112.655L313.044 112.648Z" fill="#F5F5F5"/>
<path d="M335.78 139.69C335.78 139.69 336.02 139.89 336.53 140.18C337.166 140.541 337.884 140.731 338.615 140.731C339.346 140.731 340.064 140.541 340.7 140.18C341.313 139.794 341.84 139.287 342.25 138.69C342.737 137.966 342.978 137.105 342.939 136.234C342.899 135.362 342.58 134.527 342.03 133.85L319.03 112.42C318.503 111.928 317.854 111.588 317.15 111.435C316.446 111.281 315.713 111.321 315.03 111.55C314.381 111.789 313.796 112.172 313.318 112.671C312.839 113.17 312.481 113.772 312.27 114.43C312.086 115.072 312.066 115.749 312.211 116.401C312.356 117.052 312.661 117.657 313.1 118.16C314.05 119.11 315.1 120.05 316.05 120.95L326.34 130.66L333.24 137.23L335.1 139.04C335.325 139.242 335.533 139.463 335.72 139.7C335.472 139.525 335.238 139.331 335.02 139.12L333.09 137.39L326.09 130.95L315.72 121.34C314.72 120.42 313.72 119.54 312.72 118.52C312.21 117.954 311.852 117.269 311.677 116.528C311.502 115.787 311.517 115.014 311.72 114.28C311.958 113.533 312.364 112.849 312.906 112.283C313.449 111.716 314.114 111.281 314.85 111.01C315.623 110.761 316.448 110.722 317.241 110.898C318.033 111.074 318.765 111.458 319.36 112.01C328.36 120.42 336.46 128.01 342.27 133.61C342.861 134.354 343.196 135.268 343.227 136.217C343.257 137.166 342.982 138.1 342.44 138.88C341.999 139.509 341.425 140.035 340.76 140.42C340.194 140.732 339.565 140.914 338.92 140.95C338.033 141.003 337.151 140.775 336.4 140.3C336.163 140.13 335.954 139.924 335.78 139.69V139.69Z" fill="#E0E0E0"/>
<path d="M349.52 88C350.76 86.266 352.149 84.6432 353.67 83.15C355.054 81.5307 356.58 80.0382 358.23 78.69C356.993 80.4237 355.608 82.0465 354.09 83.54C352.704 85.1609 351.174 86.6536 349.52 88V88Z" fill="#E0E0E0"/>
<path d="M358.14 94.89C358.779 93.777 359.582 92.7658 360.52 91.89C361.323 90.9019 362.262 90.0332 363.31 89.31C362.674 90.4256 361.872 91.4373 360.93 92.31C360.133 93.3035 359.193 94.173 358.14 94.89V94.89Z" fill="#E0E0E0"/>
<path d="M363.27 104.06C363.91 102.947 364.712 101.936 365.65 101.06C366.447 100.066 367.391 99.1992 368.45 98.49C367.809 99.602 367.007 100.613 366.07 101.49C365.271 102.482 364.327 103.348 363.27 104.06V104.06Z" fill="#E0E0E0"/>
<path d="M362.35 55.88C361.333 53.9176 360.49 51.8697 359.83 49.76C358.984 47.7179 358.315 45.6068 357.83 43.45C358.844 45.4137 359.688 47.4613 360.35 49.57C361.196 51.6121 361.865 53.7232 362.35 55.88V55.88Z" fill="#E0E0E0"/>
<path d="M368.3 57.33C369.649 54.8391 371.163 52.4404 372.83 50.15C374.342 47.7543 376.012 45.4626 377.83 43.29C376.477 45.7808 374.96 48.1794 373.29 50.47C371.784 52.8667 370.116 55.1586 368.3 57.33V57.33Z" fill="#E0E0E0"/>
<path d="M372.63 62.42C374.808 61.6764 377.042 61.1079 379.31 60.72C381.538 60.1527 383.809 59.7681 386.1 59.57C383.929 60.3279 381.698 60.9 379.43 61.28C377.199 61.8477 374.924 62.229 372.63 62.42V62.42Z" fill="#E0E0E0"/>
<path d="M85.9301 274.4L53.8201 404.23H62.2701L95.1701 274.4H85.9301Z" fill="#F5F5F5"/>
<path d="M146.41 274.4L176.45 404.23H168L137.16 274.4H146.41Z" fill="#F5F5F5"/>
<path d="M121.31 402.32H111.47L110 253.31H119.84L121.31 402.32Z" fill="#F5F5F5"/>
<path d="M184.34 165.8H45.51V254.74H184.34V165.8Z" fill="#EBEBEB"/>
<path d="M149.8 273.04H80.12V281.63H149.8V273.04Z" fill="#F5F5F5"/>
<path d="M54.73 243.14C54.8157 243.679 54.8492 244.225 54.83 244.77H54.64C54.5 240.42 54.39 226.01 54.39 208.93C54.39 198.63 54.47 189.3 54.49 182.44C54.49 179.12 54.57 176.44 54.6 174.44C54.6 173.55 54.6 172.83 54.66 172.25C54.6598 171.995 54.6832 171.741 54.73 171.49C54.7896 171.739 54.8132 171.995 54.8 172.25C54.8 172.83 54.8 173.55 54.87 174.44C54.87 176.44 54.93 179.15 54.98 182.44C54.98 189.3 55.04 198.63 55.08 208.93C55.08 226.01 54.97 240.42 54.83 244.77H54.64C54.6287 244.225 54.6588 243.68 54.73 243.14V243.14Z" fill="#F5F5F5"/>
<path d="M65.07 243.14C65.1412 243.68 65.1713 244.225 65.16 244.77H65C64.86 240.42 64.75 226.01 64.75 208.93C64.75 198.63 64.83 189.3 64.85 182.44C64.9 179.12 64.94 176.44 64.96 174.44C64.96 173.55 64.96 172.83 65.03 172.25C65.0168 171.995 65.0404 171.739 65.1 171.49C65.1458 171.741 65.1659 171.995 65.16 172.25C65.16 172.83 65.16 173.55 65.23 174.44C65.23 176.44 65.29 179.15 65.34 182.44C65.34 189.3 65.4 198.63 65.44 208.93C65.44 226.01 65.33 240.42 65.19 244.77H65C64.9709 244.226 64.9943 243.68 65.07 243.14V243.14Z" fill="#F5F5F5"/>
<path d="M75.4001 243.14C75.4713 243.68 75.5013 244.225 75.4901 244.77H75.3001C75.1601 240.42 75.0601 226.01 75.0601 208.93C75.0601 198.63 75.1301 189.3 75.1601 182.44C75.1601 179.12 75.2401 176.44 75.2701 174.44C75.2701 173.55 75.2701 172.83 75.3301 172.25C75.3233 171.995 75.3468 171.74 75.4001 171.49C75.4533 171.74 75.4768 171.995 75.4701 172.25C75.4701 172.83 75.4701 173.55 75.5301 174.44C75.5301 176.44 75.6001 179.15 75.6401 182.44C75.6401 189.3 75.7001 198.63 75.7401 208.93C75.7401 226.01 75.6401 240.42 75.4901 244.77H75.3001C75.2876 244.225 75.321 243.68 75.4001 243.14V243.14Z" fill="#F5F5F5"/>
<path d="M85.73 243.14C85.8091 243.68 85.8425 244.225 85.83 244.77H85.64C85.49 240.42 85.39 226.01 85.39 208.93C85.39 198.63 85.46 189.3 85.49 182.44C85.49 179.12 85.57 176.44 85.6 174.44C85.6 173.55 85.65 172.83 85.66 172.25C85.6532 171.995 85.6767 171.74 85.73 171.49C85.7833 171.74 85.8068 171.995 85.8 172.25C85.8 172.83 85.8 173.55 85.86 174.44C85.86 176.44 85.93 179.15 85.97 182.44C85.97 189.3 86.03 198.63 86.07 208.93C86.07 226.01 85.97 240.42 85.83 244.77H85.64C85.6287 244.225 85.6588 243.68 85.73 243.14V243.14Z" fill="#F5F5F5"/>
<path d="M96.06 243.14C96.1457 243.679 96.1792 244.225 96.16 244.77H96C95.86 240.42 95.75 226.01 95.75 208.93C95.75 198.63 95.83 189.3 95.85 182.44C95.9 179.12 95.93 176.44 95.96 174.44C95.96 173.55 95.96 172.83 96.02 172.25C96.0198 171.995 96.0432 171.741 96.09 171.49C96.1496 171.739 96.1732 171.995 96.16 172.25C96.16 172.83 96.16 173.55 96.23 174.44C96.23 176.44 96.29 179.15 96.34 182.44C96.34 189.3 96.4 198.63 96.44 208.93C96.44 226.01 96.33 240.42 96.19 244.77H96C95.9788 244.226 95.9988 243.681 96.06 243.14V243.14Z" fill="#F5F5F5"/>
<path d="M106.4 243.14C106.471 243.68 106.501 244.225 106.49 244.77H106.3C106.16 240.42 106.05 226.01 106.05 208.93C106.05 198.63 106.13 189.3 106.15 182.44C106.15 179.12 106.24 176.44 106.26 174.44C106.26 173.55 106.26 172.83 106.33 172.25C106.317 171.995 106.34 171.739 106.4 171.49C106.446 171.741 106.466 171.995 106.46 172.25C106.46 172.83 106.46 173.55 106.53 174.44C106.53 176.44 106.59 179.15 106.64 182.44C106.64 189.3 106.7 198.63 106.74 208.93C106.74 226.01 106.63 240.42 106.49 244.77H106.3C106.281 244.225 106.314 243.679 106.4 243.14V243.14Z" fill="#F5F5F5"/>
<path d="M116.73 243.14C116.801 243.68 116.831 244.225 116.82 244.77H116.63C116.49 240.42 116.39 226.01 116.39 208.93C116.39 198.63 116.46 189.3 116.49 182.44C116.49 179.12 116.57 176.44 116.6 174.44C116.6 173.55 116.6 172.83 116.66 172.25C116.653 171.995 116.677 171.74 116.73 171.49C116.783 171.74 116.807 171.995 116.8 172.25C116.8 172.83 116.8 173.55 116.86 174.44C116.86 176.44 116.93 179.15 116.97 182.44C116.97 189.3 117.03 198.63 117.07 208.93C117.07 226.01 116.97 240.42 116.82 244.77H116.63C116.618 244.225 116.651 243.68 116.73 243.14Z" fill="#F5F5F5"/>
<path d="M127.06 243.14C127.139 243.68 127.173 244.225 127.16 244.77H127C126.85 240.42 126.75 226.01 126.75 208.93C126.75 198.63 126.82 189.3 126.85 182.44C126.85 179.12 126.93 176.44 126.96 174.44C126.96 173.55 126.96 172.83 127.02 172.25C127.013 171.995 127.037 171.74 127.09 171.49C127.143 171.74 127.167 171.995 127.16 172.25C127.16 172.83 127.16 173.55 127.22 174.44C127.22 176.44 127.29 179.15 127.33 182.44C127.33 189.3 127.39 198.63 127.43 208.93C127.43 226.01 127.33 240.42 127.19 244.77H127C126.979 244.226 126.999 243.681 127.06 243.14V243.14Z" fill="#F5F5F5"/>
<path d="M137.39 243.14C137.476 243.679 137.509 244.225 137.49 244.77H137.3C137.16 240.42 137.05 226.01 137.05 208.93C137.05 198.63 137.13 189.3 137.15 182.44C137.15 179.12 137.23 176.44 137.26 174.44C137.26 173.55 137.31 172.83 137.32 172.25C137.32 171.995 137.343 171.741 137.39 171.49C137.45 171.739 137.473 171.995 137.46 172.25C137.46 172.83 137.46 173.55 137.53 174.44C137.53 176.44 137.59 179.15 137.64 182.44C137.64 189.3 137.7 198.63 137.74 208.93C137.74 226.01 137.63 240.42 137.49 244.77H137.3C137.289 244.225 137.319 243.68 137.39 243.14V243.14Z" fill="#F5F5F5"/>
<path d="M147.73 243.14C147.801 243.68 147.831 244.225 147.82 244.77H147.63C147.49 240.42 147.38 226.01 147.38 208.93C147.38 198.63 147.46 189.3 147.48 182.44C147.53 179.12 147.57 176.44 147.59 174.44C147.59 173.55 147.59 172.83 147.66 172.25C147.647 171.995 147.67 171.739 147.73 171.49C147.777 171.741 147.8 171.995 147.8 172.25C147.8 172.83 147.8 173.55 147.86 174.44C147.86 176.44 147.92 179.15 147.97 182.44C147.97 189.3 148.03 198.63 148.07 208.93C148.07 226.01 147.96 240.42 147.82 244.77H147.63C147.611 244.225 147.644 243.679 147.73 243.14V243.14Z" fill="#F5F5F5"/>
<path d="M158.06 243.14C158.131 243.68 158.161 244.225 158.15 244.77H158C157.86 240.42 157.76 226.01 157.76 208.93C157.76 198.63 157.83 189.3 157.86 182.44C157.86 179.12 157.94 176.44 157.97 174.44C157.97 173.55 157.97 172.83 158.03 172.25C158.023 171.995 158.047 171.74 158.1 171.49C158.153 171.74 158.177 171.995 158.17 172.25C158.17 172.83 158.17 173.55 158.23 174.44C158.23 176.44 158.3 179.15 158.34 182.44C158.34 189.3 158.4 198.63 158.44 208.93C158.44 226.01 158.34 240.42 158.19 244.77H158C157.974 244.226 157.994 243.681 158.06 243.14Z" fill="#F5F5F5"/>
<path d="M168.39 243.14C168.469 243.68 168.503 244.225 168.49 244.77H168.3C168.15 240.42 168.05 226.01 168.05 208.93C168.05 198.63 168.12 189.3 168.15 182.44C168.15 179.12 168.23 176.44 168.26 174.44C168.26 173.55 168.31 172.83 168.32 172.25C168.313 171.995 168.337 171.74 168.39 171.49C168.443 171.74 168.467 171.995 168.46 172.25C168.46 172.83 168.46 173.55 168.52 174.44C168.52 176.44 168.59 179.15 168.63 182.44C168.63 189.3 168.69 198.63 168.73 208.93C168.73 226.01 168.63 240.42 168.49 244.77H168.3C168.289 244.225 168.319 243.68 168.39 243.14V243.14Z" fill="#F5F5F5"/>
<path d="M178.72 243.14C178.806 243.679 178.839 244.225 178.82 244.77H178.63C178.49 240.42 178.38 226.01 178.38 208.93C178.38 198.63 178.46 189.3 178.48 182.44C178.53 179.12 178.56 176.44 178.59 174.44C178.59 173.55 178.59 172.83 178.65 172.25C178.65 171.995 178.673 171.741 178.72 171.49C178.78 171.739 178.803 171.995 178.79 172.25C178.79 172.83 178.79 173.55 178.86 174.44C178.86 176.44 178.92 179.15 178.97 182.44C178.97 189.3 179.03 198.63 179.07 208.93C179.07 226.01 178.96 240.42 178.82 244.77H178.63C178.619 244.225 178.649 243.68 178.72 243.14V243.14Z" fill="#F5F5F5"/>
<path d="M283.69 102.27L275.9 172.46C274.57 184.4 270.18 201.66 251.41 198.71C235.31 194.91 232.89 178.93 234.14 167.79C234.73 162.51 235.21 158.1 235.24 157.56C235.24 157.56 217.56 153.89 218.24 136.06C218.57 127.45 220.68 109.75 222.78 93.77C223.87 85.4917 228.038 77.9276 234.453 72.5833C240.868 67.2391 249.061 64.5066 257.4 64.93L259.12 65.01C277.6 67 286.21 83.85 283.69 102.27Z" fill="#FFBE9D"/>
<path d="M235.24 157.56C243.47 157.95 251.64 155.972 258.78 151.86C258.78 151.86 252.47 164.59 234.78 162.09L235.24 157.56Z" fill="#FFBE9D"/>
<path d="M252 104.73C252.31 105.13 254.55 103.73 257.51 104.03C260.47 104.33 262.51 106.03 262.86 105.7C263.04 105.54 262.75 104.85 261.86 104.05C260.67 103.023 259.186 102.396 257.62 102.26C256.074 102.107 254.52 102.457 253.19 103.26C252.26 103.91 251.89 104.55 252 104.73Z" fill="#263238"/>
<path d="M251.37 110.85C251.334 111.478 251.543 112.095 251.954 112.57C252.364 113.046 252.944 113.344 253.57 113.4C253.875 113.439 254.185 113.417 254.482 113.334C254.778 113.252 255.055 113.111 255.296 112.92C255.538 112.729 255.738 112.492 255.887 112.222C256.035 111.953 256.128 111.656 256.16 111.35C256.196 110.724 255.987 110.108 255.576 109.633C255.165 109.159 254.585 108.864 253.96 108.81C253.656 108.771 253.346 108.793 253.051 108.875C252.755 108.957 252.478 109.097 252.237 109.287C251.996 109.476 251.795 109.713 251.646 109.981C251.497 110.249 251.403 110.545 251.37 110.85V110.85Z" fill="#263238"/>
<path d="M242.09 124.38C242.09 124.22 240.43 123.84 237.69 123.38C236.99 123.27 236.34 123.1 236.24 122.62C236.226 121.911 236.425 121.215 236.81 120.62L239.15 115.4C242.4 107.96 244.79 101.83 244.49 101.71C244.19 101.59 241.31 107.5 238.06 114.94C237.267 116.767 236.517 118.517 235.81 120.19C235.323 121.011 235.146 121.979 235.31 122.92C235.397 123.173 235.542 123.402 235.733 123.589C235.924 123.777 236.156 123.917 236.41 124C236.791 124.128 237.188 124.202 237.59 124.22C240.35 124.43 242.07 124.53 242.09 124.38Z" fill="#263238"/>
<path d="M254.67 93.77C254.88 94.46 257.3 94.26 260.12 94.77C262.94 95.28 265.19 96.18 265.59 95.59C265.78 95.3 265.41 94.59 264.52 93.94C263.344 93.0622 261.97 92.4854 260.52 92.26C259.08 92.0018 257.598 92.1084 256.21 92.57C255.14 92.94 254.59 93.44 254.67 93.77Z" fill="#263238"/>
<path d="M226.88 93.77C227.13 94.34 229.51 94.03 232.31 94.29C235.11 94.55 237.4 95.2 237.76 94.67C237.92 94.42 237.52 93.89 236.6 93.34C235.367 92.663 234.003 92.2573 232.6 92.15C231.167 92.016 229.722 92.1864 228.36 92.65C227.29 93 226.78 93.49 226.88 93.77Z" fill="#263238"/>
<path d="M281.57 115.39C281.88 115.27 294 112.39 293 124.55C292 136.71 280 133.19 280 132.84C280 132.49 281.57 115.39 281.57 115.39Z" fill="#FFBE9D"/>
<path d="M284.09 128.54C284.15 128.54 284.29 128.71 284.64 128.9C285.125 129.158 285.693 129.216 286.22 129.06C287.54 128.7 288.79 126.75 289.03 124.56C289.148 123.521 289.032 122.468 288.69 121.48C288.607 121.09 288.431 120.727 288.177 120.42C287.923 120.113 287.598 119.873 287.23 119.72C286.991 119.637 286.731 119.639 286.494 119.727C286.257 119.814 286.057 119.982 285.93 120.2C285.74 120.52 285.8 120.77 285.73 120.79C285.66 120.81 285.49 120.56 285.63 120.07C285.719 119.774 285.911 119.519 286.17 119.35C286.522 119.123 286.95 119.044 287.36 119.13C287.851 119.271 288.298 119.535 288.659 119.897C289.019 120.26 289.281 120.708 289.42 121.2C289.857 122.294 290.015 123.48 289.88 124.65C289.6 127.1 288.16 129.29 286.36 129.65C286.024 129.718 285.678 129.71 285.346 129.627C285.014 129.544 284.704 129.388 284.44 129.17C284.09 128.84 284.05 128.56 284.09 128.54Z" fill="#6F4C47"/>
<path d="M243.91 133.11C243.82 132.79 246.28 132.37 248.22 130.35C249.033 129.461 249.725 128.469 250.28 127.4C250.74 126.56 251.08 126.04 251.21 126.1C251.34 126.16 251.21 126.75 250.91 127.68C250.497 128.927 249.814 130.067 248.91 131.02C247.989 131.986 246.82 132.678 245.53 133.02C244.56 133.27 243.93 133.22 243.91 133.11Z" fill="#263238"/>
<path d="M226 100.9C226.31 101.3 228.55 99.9 231.51 100.2C234.47 100.5 236.51 102.2 236.86 101.86C237.04 101.71 236.75 101.02 235.86 100.22C234.672 99.1884 233.187 98.5615 231.62 98.43C230.074 98.2767 228.52 98.6275 227.19 99.43C226.23 100.08 225.86 100.72 226 100.9Z" fill="#263238"/>
<path d="M225.8 107.69C225.764 108.318 225.973 108.935 226.384 109.41C226.794 109.886 227.374 110.184 228 110.24C228.301 110.279 228.608 110.259 228.901 110.179C229.195 110.1 229.47 109.963 229.71 109.778C229.951 109.592 230.152 109.36 230.303 109.097C230.454 108.833 230.552 108.542 230.59 108.24C230.631 107.614 230.425 106.997 230.015 106.521C229.606 106.046 229.025 105.751 228.4 105.7C228.098 105.658 227.791 105.676 227.497 105.754C227.202 105.831 226.926 105.966 226.684 106.151C226.442 106.337 226.239 106.568 226.088 106.832C225.936 107.096 225.838 107.388 225.8 107.69Z" fill="#263238"/>
<path d="M291.18 104.51C290.29 107.9 288.18 115.63 285.18 114.94C279.18 113.58 279.53 123.2 276.63 122.07C273.73 120.94 273.05 113.29 273.38 110.24C274.38 100.71 278.04 93.87 274.01 82.99C272.76 80.8311 270.973 79.0314 268.824 77.7648C266.674 76.4982 264.234 75.8077 261.74 75.76C259.226 75.7617 256.755 76.4056 254.56 77.6307C252.366 78.8558 250.521 80.6214 249.2 82.76C248.58 79.43 246.84 74.43 243.83 72.89C242.324 72.1041 240.619 71.7798 238.929 71.9577C237.239 72.1356 235.64 72.8077 234.33 73.89C233.08 75.0377 232.29 76.6002 232.106 78.287C231.922 79.9738 232.357 81.6699 233.33 83.06C232.645 83.2804 231.908 83.2761 231.226 83.0475C230.544 82.819 229.953 82.3784 229.54 81.79C229.499 82.5726 229.619 83.3554 229.892 84.0898C230.166 84.8243 230.587 85.4948 231.13 86.06C229.896 85.785 228.803 85.075 228.05 84.06L229.05 88.18C224.05 88.43 218.96 83.67 217.46 79.36C215.19 72.82 216.67 66.14 220.21 60.2C223.75 54.26 230.21 49.98 237.21 49.88C244.21 49.78 250 52.93 252.81 59.25C257.23 55.97 266.3 54.66 271.35 56.82C273.875 57.9321 276.074 59.6719 277.737 61.8739C279.4 64.0759 280.471 66.6668 280.85 69.4C283.95 68.01 287.73 68.95 290.42 71.03L291.07 71.57C292.87 73.207 294.225 75.2739 295.009 77.5772C295.792 79.8806 295.978 82.345 295.55 84.74C295.23 86.66 294.61 88.66 294.26 90.21C293.08 94.8 291.18 104.51 291.18 104.51Z" fill="#263238"/>
<path d="M228.68 81.53C228.68 81.53 228.52 81.44 228.27 81.22C227.901 80.9024 227.566 80.5472 227.27 80.16C226.126 78.7175 225.403 76.9873 225.18 75.16C224.978 73.8117 225.068 72.4359 225.442 71.125C225.816 69.8141 226.467 68.5985 227.35 67.56C228.433 66.2807 229.811 65.2844 231.365 64.6572C232.919 64.0299 234.603 63.7906 236.27 63.96C237.986 64.1749 239.631 64.7767 241.08 65.72C242.432 66.5708 243.643 67.6268 244.67 68.85C246.414 70.8861 247.7 73.2734 248.44 75.85C248.939 77.5887 249.178 79.3914 249.15 81.2C249.15 81.84 249.09 82.33 249.04 82.66C249.03 82.8297 249 82.9976 248.95 83.16C249.059 80.7258 248.768 78.2902 248.09 75.95C247.319 73.43 246.028 71.0998 244.3 69.11C242.265 66.6133 239.388 64.9455 236.21 64.42C234.626 64.2657 233.028 64.4939 231.551 65.0856C230.073 65.6772 228.76 66.615 227.72 67.82C226.869 68.806 226.236 69.9606 225.862 71.2082C225.488 72.4559 225.382 73.7684 225.55 75.06C225.729 76.8407 226.37 78.5437 227.41 80C228.16 81.05 228.71 81.49 228.68 81.53Z" fill="#455A64"/>
<path d="M226.49 86.85C226.345 86.6784 226.221 86.4905 226.12 86.29C225.89 85.91 225.56 85.29 225.12 84.61C223.937 82.5436 222.959 80.3666 222.2 78.11C221.69 76.5331 221.39 74.8955 221.31 73.24C221.212 71.3251 221.515 69.4108 222.2 67.62C222.999 65.6352 224.366 63.9306 226.13 62.72C228.015 61.4282 230.203 60.6493 232.48 60.46C234.746 60.2854 237.023 60.5957 239.16 61.37C241.144 62.0855 243.008 63.097 244.69 64.37C247.624 66.4429 249.79 69.4279 250.85 72.86C251.51 75.1875 251.444 77.6611 250.66 79.95C250.44 80.5602 250.158 81.1465 249.82 81.7C249.703 81.8943 249.569 82.0783 249.42 82.25C249.818 81.4888 250.152 80.6962 250.42 79.88C251.105 77.6242 251.105 75.2158 250.42 72.96C249.338 69.6334 247.199 66.7509 244.33 64.75C240.975 62.153 236.809 60.8248 232.57 61C230.381 61.1883 228.277 61.9355 226.46 63.17C224.775 64.3219 223.465 65.9418 222.69 67.83C222.016 69.5545 221.706 71.3999 221.78 73.25C221.842 74.8716 222.115 76.4783 222.59 78.03C223.315 80.2762 224.235 82.4546 225.34 84.54L226.21 86.27C226.321 86.4545 226.414 86.6486 226.49 86.85Z" fill="#455A64"/>
<path d="M286.85 97C286.79 96.92 287.92 96.09 289.31 94.35C291.137 92.103 292.37 89.4322 292.894 86.5836C293.419 83.7351 293.218 80.8004 292.31 78.05C291.62 75.93 290.86 74.75 290.95 74.71C291.04 74.67 291.19 74.96 291.52 75.51C291.974 76.2796 292.356 77.0897 292.66 77.93C293.689 80.7264 293.948 83.748 293.41 86.6788C292.872 89.6096 291.556 92.3419 289.6 94.59C289.017 95.2659 288.374 95.8884 287.68 96.45C287.431 96.6724 287.152 96.8576 286.85 97V97Z" fill="#455A64"/>
<path d="M276.12 96.9C276.12 96.85 276.7 96.62 277.62 95.96C278.901 95.0368 279.901 93.7769 280.51 92.32L280.97 91.18L280.89 92.41C280.78 94.07 280.65 95.98 280.52 98.06L280.13 97.84C281.787 96.6478 283.192 95.14 284.264 93.4034C285.337 91.6667 286.056 89.7353 286.38 87.72C286.651 85.8782 286.596 84.0031 286.22 82.18C285.819 80.5055 285.222 78.8842 284.44 77.35C284.528 77.4373 284.605 77.5346 284.67 77.64C284.866 77.9234 285.046 78.2171 285.21 78.52C285.82 79.6477 286.277 80.8516 286.57 82.1C287.273 85.0978 287.062 88.2376 285.964 91.1144C284.866 93.9912 282.932 96.4731 280.41 98.24L279.98 98.54V98.02L280.45 92.38L280.84 92.47C280.179 93.9764 279.091 95.2558 277.71 96.15C277.337 96.3899 276.942 96.5941 276.53 96.76C276.399 96.8228 276.262 96.8698 276.12 96.9V96.9Z" fill="#455A64"/>
<path d="M272.28 72.17C271.568 70.8886 270.613 69.7577 269.47 68.84C268.209 67.8959 266.742 67.2652 265.19 67C263.28 66.6898 261.322 66.9112 259.53 67.64C257.732 68.3599 256.131 69.498 254.86 70.96C253.827 72.15 252.996 73.5012 252.4 74.96C251.895 76.344 251.497 77.7649 251.21 79.21C251.17 78.8092 251.191 78.4048 251.27 78.01C251.41 76.9241 251.672 75.8574 252.05 74.83C252.62 73.2939 253.449 71.8667 254.5 70.61C255.806 69.0706 257.467 67.8727 259.34 67.12C261.222 66.3589 263.28 66.1406 265.28 66.49C266.901 66.8014 268.419 67.5091 269.7 68.55C270.559 69.2453 271.278 70.097 271.82 71.06C271.963 71.3219 272.09 71.5924 272.2 71.87C272.244 71.9644 272.272 72.066 272.28 72.17Z" fill="#455A64"/>
<path d="M269.32 63.25C268.256 62.745 267.144 62.3497 266 62.07C263.26 61.5543 260.426 62.0255 258 63.4C255.594 64.8557 253.655 66.9687 252.41 69.49C251.41 71.41 251.14 72.74 251.05 72.71C251.046 72.3904 251.097 72.0724 251.2 71.77C251.421 70.9291 251.715 70.1092 252.08 69.32C253.273 66.6883 255.24 64.4833 257.72 63C260.263 61.5418 263.264 61.0989 266.12 61.76C266.975 61.9727 267.793 62.3096 268.55 62.76C268.829 62.8859 269.088 63.0509 269.32 63.25V63.25Z" fill="#455A64"/>
<path d="M197.26 340.23L309 341.75C309 341.75 340.25 328.67 348.84 328.32C357.43 327.97 374.47 329.06 382.35 341.75C390.5 354.87 391.64 378.01 366.53 394.82C342.07 411.2 230.24 426.33 214.91 424.94L186.67 387C186.67 387 186.38 355.91 186.67 354.43C186.96 352.95 191.67 339.63 191.67 339.63L197.26 340.23Z" fill="#263238"/>
<path d="M264.16 392.71L322.07 414.22L295.68 486.39C288.94 483.45 288.75 441.05 288.75 441.05L251.08 428.79L264.16 392.71Z" fill="#3B5562"/>
<g opacity="0.6">
<path opacity="0.6" d="M293.78 417.59C294.245 416.973 294.922 416.549 295.68 416.399C296.439 416.25 297.225 416.385 297.89 416.78C298.526 417.219 298.968 417.885 299.124 418.642C299.281 419.398 299.14 420.185 298.73 420.84C297.86 422.12 295.56 422.66 294.37 421.68C293.18 420.7 292.82 418.38 293.97 417.35" fill="white"/>
</g>
<path d="M322.07 414.22L316.22 412L293.06 482.2C293.06 482.2 293.28 485.93 295.68 486.39L322.07 414.22Z" fill="#263238"/>
<path d="M288 442.08C288.36 442.2 289.16 440.5 290.93 439.18C292.7 437.86 294.52 437.48 294.5 437.1C294.48 436.72 292.25 436.51 290.14 438.1C288.03 439.69 287.6 442 288 442.08Z" fill="#263238"/>
<path d="M288.32 450.8C288.63 451 289.78 449.7 291.71 449.05C293.64 448.4 295.34 448.62 295.46 448.27C295.58 447.92 293.66 446.96 291.28 447.81C288.9 448.66 288 450.67 288.32 450.8Z" fill="#263238"/>
<path d="M295.8 458.41C296 458.12 294.41 456.98 292.15 457.18C289.89 457.38 288.52 458.75 288.76 459.01C289 459.27 290.4 458.62 292.26 458.48C294.12 458.34 295.64 458.75 295.8 458.41Z" fill="#263238"/>
<path d="M279.68 438.34C280.05 438.34 280.16 436.51 281.02 434.57C281.88 432.63 283.08 431.3 282.85 431.01C282.62 430.72 280.85 431.75 279.85 434.01C278.85 436.27 279.34 438.41 279.68 438.34Z" fill="#263238"/>
<path d="M271.74 433.49C271.89 433.54 272.61 432.23 273.05 429.87C273.289 428.48 273.363 427.067 273.27 425.66C273.207 424.827 273.094 423.999 272.93 423.18C272.847 422.693 272.692 422.221 272.47 421.78C272.307 421.456 272.04 421.197 271.712 421.042C271.384 420.888 271.013 420.849 270.66 420.93C270.349 421.016 270.064 421.174 269.826 421.391C269.588 421.608 269.404 421.879 269.29 422.18C269.122 422.637 269.018 423.115 268.98 423.6C268.884 424.44 268.867 425.287 268.93 426.13C269.039 427.555 269.377 428.952 269.93 430.27C270.87 432.51 271.93 433.56 272.09 433.47C272.25 433.38 271.45 432.13 270.8 429.96C270.418 428.697 270.203 427.389 270.16 426.07C270.136 425.298 270.176 424.525 270.28 423.76C270.36 422.92 270.59 422.27 271 422.2C271.16 422.2 271.21 422.2 271.38 422.43C271.531 422.749 271.641 423.084 271.71 423.43C271.884 424.188 272.015 424.956 272.1 425.73C272.243 427.059 272.264 428.398 272.16 429.73C272 432 271.55 433.42 271.74 433.49Z" fill="#263238"/>
<path d="M272.42 433.21C272.52 433.11 271.51 431.95 269.27 430.98C267.961 430.412 266.564 430.074 265.14 429.98C264.291 429.937 263.441 429.977 262.6 430.1C262.053 430.12 261.52 430.282 261.054 430.569C260.588 430.857 260.204 431.26 259.94 431.74C259.828 432.062 259.811 432.41 259.891 432.741C259.97 433.073 260.144 433.374 260.39 433.61C260.744 433.952 261.144 434.242 261.58 434.47C262.343 434.89 263.166 435.19 264.02 435.36C265.442 435.662 266.918 435.6 268.31 435.18C270.7 434.46 271.66 433.18 271.55 433.07C271.44 432.96 270.29 433.86 268.1 434.29C266.834 434.531 265.532 434.496 264.28 434.19C263.56 434.006 262.867 433.727 262.22 433.36C261.49 432.96 260.98 432.45 261.16 432.19C261.34 431.93 262.09 431.43 262.81 431.36C263.563 431.233 264.326 431.172 265.09 431.18C266.402 431.208 267.705 431.417 268.96 431.8C271.11 432.53 272.29 433.39 272.42 433.21Z" fill="#263238"/>
<path d="M216.4 383.79L160.4 409.79L192.4 479.67C198.88 476.21 195.74 433.92 195.74 433.92L232.33 418.74L216.4 383.79Z" fill="#3B5562"/>
<g opacity="0.6">
<path opacity="0.6" d="M188.83 410.92C188.318 410.341 187.611 409.97 186.844 409.88C186.076 409.79 185.302 409.985 184.67 410.43C184.07 410.919 183.682 411.62 183.587 412.388C183.492 413.155 183.697 413.93 184.16 414.55C185.16 415.75 187.45 416.11 188.56 415.04C189.67 413.97 189.85 411.63 188.62 410.7" fill="white"/>
</g>
<path d="M160.37 409.78L166.02 407.16L194.63 475.28C194.63 475.28 194.7 479.01 192.35 479.66L160.37 409.78Z" fill="#263238"/>
<path d="M196.57 434.88C196.22 435.03 195.28 433.39 193.42 432.21C191.56 431.03 189.71 430.8 189.7 430.42C189.69 430.04 191.9 429.65 194.13 431.12C196.36 432.59 196.91 434.81 196.57 434.88Z" fill="#263238"/>
<path d="M196.89 443.6C196.59 443.83 195.34 442.6 193.36 442.12C191.38 441.64 189.71 441.98 189.57 441.64C189.43 441.3 191.26 440.19 193.7 440.85C196.14 441.51 197.21 443.44 196.89 443.6Z" fill="#263238"/>
<path d="M190 451.78C189.79 451.5 191.27 450.24 193.54 450.26C195.81 450.28 197.29 451.54 197.07 451.82C196.85 452.1 195.4 451.56 193.54 451.57C191.68 451.58 190.21 452.1 190 451.78Z" fill="#263238"/>
<path d="M204.52 430.5C204.14 430.5 203.9 428.71 202.88 426.85C201.86 424.99 200.57 423.75 200.79 423.44C201.01 423.13 202.87 424.02 204.04 426.24C205.21 428.46 204.86 430.54 204.52 430.5Z" fill="#263238"/>
<path d="M212.05 425C211.91 425.07 211.05 423.81 210.47 421.49C210.112 420.125 209.924 418.721 209.91 417.31C209.907 416.478 209.957 415.646 210.06 414.82C210.096 414.325 210.21 413.839 210.4 413.38C210.535 413.042 210.781 412.76 211.097 412.578C211.412 412.397 211.78 412.327 212.14 412.38C212.458 412.436 212.758 412.568 213.014 412.764C213.27 412.961 213.474 413.217 213.61 413.51C213.813 413.985 213.945 414.487 214 415C214.16 415.831 214.244 416.674 214.25 417.52C214.255 418.941 214.039 420.355 213.61 421.71C212.85 424.02 211.83 425.16 211.71 425.07C211.59 424.98 212.23 423.69 212.71 421.47C212.99 420.183 213.101 418.865 213.04 417.55C213.006 416.776 212.905 416.007 212.74 415.25C212.6 414.43 212.32 413.79 211.9 413.75C211.74 413.75 211.69 413.75 211.54 414.01C211.418 414.332 211.338 414.668 211.3 415.01C211.183 415.782 211.113 416.56 211.09 417.34C211.045 418.678 211.129 420.018 211.34 421.34C211.73 423.6 212.24 425 212.05 425Z" fill="#263238"/>
<path d="M211.36 424.82C211.25 424.72 212.16 423.48 214.31 422.35C216.34 421.302 218.621 420.835 220.9 421C221.448 420.976 221.993 421.094 222.482 421.343C222.971 421.592 223.387 421.963 223.69 422.42C223.824 422.735 223.866 423.082 223.812 423.42C223.757 423.758 223.607 424.074 223.38 424.33C223.053 424.698 222.676 425.017 222.26 425.28C221.532 425.757 220.737 426.121 219.9 426.36C218.505 426.767 217.031 426.822 215.61 426.52C213.17 425.98 212.11 424.75 212.21 424.66C212.31 424.57 213.53 425.36 215.75 425.66C217.031 425.803 218.327 425.666 219.55 425.26C220.261 425.024 220.934 424.687 221.55 424.26C222.24 423.81 222.72 423.26 222.55 423.02C222.335 422.786 222.071 422.602 221.778 422.481C221.484 422.36 221.167 422.305 220.85 422.32C220.085 422.245 219.315 422.245 218.55 422.32C217.246 422.444 215.966 422.754 214.75 423.24C212.6 424 211.49 425 211.36 424.82Z" fill="#263238"/>
<path d="M191.7 339.64C191.7 339.64 143.44 321.64 125.7 323.94C115.77 325.25 100.24 332.83 99.05 345.56C97.86 358.29 100.98 375.32 118.15 383.61C135.32 391.9 203.86 422.66 220.15 427.39C236.44 432.12 277 443.22 277 443.22L292.42 399.22C292.42 399.22 208.27 370.08 203.83 366.82C199.39 363.56 188.14 359.13 188.14 359.13L191.7 339.64Z" fill="#263238"/>
<path d="M359.47 345.61L359.13 345.53L358.13 345.23C357.28 344.98 356.02 344.61 354.38 344.23C349.754 343.056 344.958 342.7 340.21 343.18C336.935 343.46 333.698 344.077 330.55 345.02C328.802 345.549 327.1 346.218 325.46 347.02L320.21 349.59C312.99 353.04 304.92 356.59 296.34 359.96C279.14 366.85 262.63 370.12 250.86 372.8C244.96 374.1 240.18 375.18 236.86 375.96L233.07 376.86L232.07 377.08L231.73 377.14C231.83 377.085 231.938 377.048 232.05 377.03L233.05 376.76C233.91 376.53 235.17 376.17 236.82 375.76C240.09 374.92 244.82 373.76 250.75 372.44C262.51 369.67 278.97 366.35 296.11 359.44C304.69 356.05 312.75 352.54 319.97 349.11L325.23 346.57C326.897 345.765 328.626 345.096 330.4 344.57C333.577 343.628 336.846 343.028 340.15 342.78C344.955 342.32 349.803 342.733 354.46 344C356.1 344.42 357.35 344.82 358.2 345.11L359.15 345.46L359.47 345.61Z" fill="#455A64"/>
<path d="M356.93 339.25C356.93 339.34 355.46 339.07 353.1 338.82C346.939 338.141 340.709 338.462 334.65 339.77C332.32 340.26 330.9 340.67 330.88 340.59C331.196 340.418 331.532 340.287 331.88 340.2C332.51 339.98 333.44 339.7 334.6 339.41C337.631 338.65 340.729 338.188 343.85 338.03C346.966 337.873 350.09 338.014 353.18 338.45C354.37 338.63 355.32 338.81 355.97 338.96C356.299 339.022 356.621 339.12 356.93 339.25V339.25Z" fill="#455A64"/>
<path d="M171.4 352.4C171.35 352.47 170.01 351.4 167.7 350.01C161.666 346.257 154.884 343.868 147.83 343.01C145.13 342.67 143.44 342.64 143.44 342.55C143.832 342.479 144.232 342.456 144.63 342.48C145.4 342.48 146.51 342.48 147.87 342.64C155.016 343.32 161.885 345.748 167.87 349.71C168.777 350.299 169.651 350.937 170.49 351.62C170.826 351.839 171.132 352.101 171.4 352.4V352.4Z" fill="#455A64"/>
<path d="M195.62 418L196 418.14L197.09 418.6C198.09 419 199.47 419.66 201.36 420.39C205.12 421.88 210.67 423.92 217.8 426.27C232.05 430.92 252.54 436.86 277.06 443.03L276.79 443.18L291.71 401.77L291.85 402.1L273.37 394.51L171.14 352.4C166.98 348 163.14 344.12 159.56 340.98C156.517 338.296 153.271 335.852 149.85 333.67C147.698 332.315 145.475 331.077 143.19 329.96L141.4 329.12L140.8 328.82L141.42 329.08L143.23 329.87C145.539 330.95 147.783 332.166 149.95 333.51C153.401 335.669 156.675 338.1 159.74 340.78C163.36 343.9 167.21 347.78 171.39 352.16H171.33L273.57 394L292.05 401.59L292.27 401.68L292.19 401.92L277.19 443.31L277.12 443.51L276.91 443.46C252.39 437.24 231.91 431.24 217.67 426.46C210.55 424.08 205.01 421.99 201.26 420.46C199.38 419.72 197.98 419.03 197.02 418.61L195.94 418.12L195.62 418Z" fill="#455A64"/>
<path d="M314.9 185.83C314.9 185.83 328.8 193.83 331.62 203.24C333.33 208.95 346.29 282.01 348.34 296.41C350.39 310.81 346.06 321.49 339.92 326.27C333.78 331.05 315.15 337.41 315.15 337.41L289 345.9L281.49 326.78L306.39 291L304 266.83L314.9 185.83Z" fill="#29ABE2"/>
<path d="M287.59 173.21L277.15 167.21C277.15 167.21 267.64 178.33 254.67 176.97C241.7 175.61 234 165.72 234 165.72L195.32 173.59C192.73 174.11 188 175.75 183.47 182.22C178.42 189.43 154.47 221.42 154.47 221.42H137.75C135.486 221.42 133.264 222.038 131.326 223.208C129.387 224.379 127.805 226.056 126.75 228.06C123.89 233.51 120.46 240.79 120.75 243.81C121.32 248.92 120.33 262.93 127.18 267.3C129.35 268.69 137.11 272.85 143.18 272.57C152.07 272.15 162.4 267.52 168.35 263.36C173.35 259.83 185.1 247.65 189.61 242.9V243L192.51 344.45L293.91 341.57L314.91 185.85C314.91 185.85 288.61 173.21 287.59 173.21Z" fill="#29ABE2"/>
<path d="M189.24 200.4C189.38 200.4 189.65 212.97 189.83 228.48C190.01 243.99 190.05 256.57 189.9 256.57C189.75 256.57 189.49 244 189.31 228.49C189.13 212.98 189.1 200.4 189.24 200.4Z" fill="#263238"/>
<path d="M327.18 282.41C327.18 282.41 326.32 282.55 324.79 282.84C322.629 283.271 320.522 283.942 318.51 284.84C315.532 286.184 312.725 287.879 310.15 289.89C306.994 292.36 304.047 295.086 301.34 298.04C298.44 301.17 295.8 304.26 293.34 307.04C291.156 309.488 288.85 311.824 286.43 314.04C284.793 315.539 283.059 316.929 281.24 318.2C280.6 318.65 280.07 318.95 279.72 319.2C279.55 319.322 279.365 319.423 279.17 319.5C279.32 319.354 279.484 319.223 279.66 319.11C279.99 318.86 280.5 318.53 281.12 318.05C282.889 316.731 284.579 315.308 286.18 313.79C288.23 311.89 290.52 309.47 292.98 306.7C295.44 303.93 298.08 300.83 300.98 297.7C303.71 294.73 306.688 291.997 309.88 289.53C312.495 287.517 315.35 285.838 318.38 284.53C320.427 283.653 322.572 283.028 324.77 282.67C325.55 282.52 326.16 282.52 326.57 282.47C326.77 282.425 326.975 282.405 327.18 282.41V282.41Z" fill="#263238"/>
<path d="M329.48 275.54C329.48 275.63 327.94 275.85 325.48 276.54C319.158 278.29 313.421 281.705 308.87 286.43C307.13 288.24 306.2 289.5 306.13 289.43C306.285 289.098 306.48 288.785 306.71 288.5C307.288 287.683 307.92 286.904 308.6 286.17C313.066 281.232 318.912 277.749 325.38 276.17C326.352 275.931 327.337 275.747 328.33 275.62C328.708 275.54 329.095 275.513 329.48 275.54V275.54Z" fill="#263238"/>
<g opacity="0.3">
<path opacity="0.3" d="M140.75 257.73C146.12 259.19 152.56 251.47 157.44 246.64C159.97 244.12 162.61 241.44 163.55 237.99C164.21 235.091 163.912 232.055 162.7 229.34C161.801 226.891 160.602 224.564 159.13 222.41C159.58 226.58 160.61 232.96 159.21 238.2C158.04 242.57 155.27 246.04 152.33 249.34C149.23 252.83 145.55 256.49 140.75 257.73" fill="black"/>
</g>
<path d="M163.7 253.31C163.6 253.31 164.22 251.54 164.7 248.63C164.991 246.928 165.155 245.206 165.19 243.48C165.226 241.369 165.085 239.258 164.77 237.17C164.425 235.085 163.91 233.031 163.23 231.03C162.66 229.398 161.972 227.811 161.17 226.28C159.8 223.66 158.67 222.2 158.75 222.14C159.065 222.439 159.344 222.775 159.58 223.14C159.895 223.535 160.186 223.949 160.45 224.38C160.77 224.88 161.15 225.44 161.5 226.1C162.353 227.626 163.082 229.218 163.68 230.86C164.399 232.881 164.934 234.963 165.28 237.08C165.605 239.2 165.736 241.346 165.67 243.49C165.616 245.241 165.412 246.984 165.06 248.7C164.94 249.44 164.75 250.08 164.6 250.7C164.479 251.191 164.332 251.675 164.16 252.15C164.044 252.55 163.89 252.939 163.7 253.31V253.31Z" fill="#263238"/>
<path d="M238.24 169.64C238.31 169.77 237.12 170.46 235.88 171.58C234.64 172.7 233.8 173.79 233.68 173.7C234.115 172.743 234.746 171.888 235.531 171.188C236.316 170.489 237.239 169.962 238.24 169.64V169.64Z" fill="#263238"/>
<path d="M248.79 175.77C248.9 175.88 247.88 176.97 247.06 178.59C246.24 180.21 245.93 181.67 245.78 181.59C245.708 180.435 245.995 179.286 246.6 178.3C247.059 177.256 247.823 176.374 248.79 175.77V175.77Z" fill="#263238"/>
<path d="M266.86 182.13C266.377 181.17 265.988 180.165 265.7 179.13C265.259 178.145 264.923 177.116 264.7 176.06C265.407 176.908 265.925 177.896 266.22 178.96C266.662 179.957 266.88 181.039 266.86 182.13V182.13Z" fill="#263238"/>
<path d="M278.49 176.63C278.33 176.63 277.94 174.9 276.79 173.03C275.64 171.16 274.28 169.98 274.39 169.86C275.606 170.523 276.598 171.533 277.24 172.76C278.031 173.898 278.466 175.245 278.49 176.63V176.63Z" fill="#263238"/>
<path d="M311.87 209.49C312.02 209.49 310.3 223.37 308.04 240.44C305.78 257.51 303.83 271.34 303.69 271.32C303.55 271.3 305.26 257.45 307.52 240.37C309.78 223.29 311.73 209.47 311.87 209.49Z" fill="#263238"/>
<path d="M159.92 231.93C159.96 232.406 159.96 232.884 159.92 233.36C159.893 233.921 159.823 234.48 159.71 235.03C159.65 235.36 159.6 235.7 159.53 236.03C159.46 236.36 159.35 236.77 159.24 237.17C158.747 239.046 158.077 240.871 157.24 242.62C156.189 244.749 154.94 246.775 153.51 248.67C152.038 250.551 150.361 252.261 148.51 253.77C146.986 254.991 145.304 256 143.51 256.77C143.12 256.92 142.76 257.09 142.41 257.22L141.41 257.5L140.53 257.74C140.26 257.8 140 257.81 139.77 257.85C139.297 257.925 138.819 257.962 138.34 257.96C140.054 257.621 141.729 257.108 143.34 256.43C145.066 255.636 146.685 254.628 148.16 253.43C149.943 251.937 151.565 250.261 153 248.43C154.41 246.566 155.648 244.577 156.7 242.49C157.546 240.773 158.241 238.986 158.78 237.15C159.25 235.431 159.63 233.689 159.92 231.93V231.93Z" fill="#263238"/>
<g opacity="0.3">
<path opacity="0.3" d="M308.61 347.9C312.91 345.82 313.89 340.25 314.33 335.49C315.61 321.563 316.893 307.627 318.18 293.68C318.79 287.13 319.08 279.68 314.46 274.96C310.24 270.68 303.53 270.43 297.52 270.45C260.42 270.55 227.65 271.64 190.52 271.74L192.41 336.65L308.61 347.9Z" fill="black"/>
</g>
<path d="M174.55 281.8L178.5 357.08C178.582 358.486 179.2 359.807 180.227 360.771C181.254 361.734 182.612 362.268 184.02 362.26L303.94 362.47C305.351 362.475 306.71 361.938 307.737 360.971C308.764 360.003 309.381 358.679 309.46 357.27L314.03 283.27C314.19 280.19 312.03 276.1 308.89 276.04H180.18C179.424 276.02 178.672 276.156 177.971 276.44C177.27 276.724 176.636 277.15 176.107 277.691C175.579 278.231 175.167 278.876 174.899 279.583C174.631 280.29 174.512 281.045 174.55 281.8Z" fill="#E0E0E0"/>
<path d="M174.55 281.8C174.55 281.8 174.55 281.7 174.55 281.52C174.524 281.241 174.524 280.959 174.55 280.68C174.713 279.581 175.209 278.559 175.97 277.75C176.528 277.152 177.211 276.685 177.97 276.38C178.898 276.046 179.886 275.91 180.87 275.98H188.16L234.62 275.9L303.53 275.83H308.43C309.298 275.784 310.16 276.003 310.9 276.46C311.63 276.925 312.253 277.538 312.73 278.26C313.711 279.691 314.237 281.385 314.24 283.12C314.14 284.79 314.04 286.48 313.94 288.18C313.52 294.953 313.093 301.863 312.66 308.91C311.8 323 310.9 337.58 309.97 352.52L309.8 355.32C309.72 356.25 309.74 357.15 309.57 358.13C309.377 359.088 308.944 359.98 308.31 360.724C307.677 361.467 306.865 362.037 305.95 362.38C305.05 362.699 304.092 362.825 303.14 362.75H294.89H273.36L232.66 362.66L195.83 362.57H187.33H185.3C184.61 362.57 183.93 362.57 183.21 362.5C181.807 362.302 180.527 361.589 179.62 360.5C178.735 359.437 178.26 358.093 178.28 356.71C178.21 355.4 178.15 354.11 178.08 352.83C177.95 350.26 177.82 347.76 177.69 345.31C176.69 325.72 175.9 309.87 175.34 298.91C175.08 293.44 174.87 289.19 174.73 286.29C174.67 284.85 174.62 283.76 174.58 283.01C174.54 282.26 174.58 281.89 174.58 281.89C174.58 281.89 174.58 282.27 174.67 283.01C174.76 283.75 174.78 284.85 174.86 286.28C175.03 289.18 175.27 293.43 175.58 298.9C176.17 309.9 177.03 325.71 178.09 345.29C178.22 347.74 178.36 350.24 178.5 352.81C178.56 354.09 178.63 355.38 178.7 356.69C178.68 357.986 179.128 359.246 179.96 360.24C180.805 361.248 181.996 361.904 183.3 362.08C183.965 362.14 184.633 362.16 185.3 362.14H195.87H232.7L273.4 362.2H294.93H303.18C304.071 362.271 304.967 362.155 305.81 361.86C306.641 361.549 307.38 361.032 307.955 360.356C308.531 359.681 308.925 358.87 309.1 358C309.25 357.15 309.25 356.17 309.32 355.26L309.49 352.46C310.42 337.52 311.32 322.94 312.2 308.86C312.633 301.807 313.06 294.893 313.48 288.12C313.59 286.43 313.69 284.75 313.79 283.07C313.783 281.442 313.289 279.854 312.37 278.51C311.975 277.825 311.404 277.259 310.717 276.868C310.029 276.478 309.25 276.279 308.46 276.29H303.57H234.66L188.2 276.22H180.91C179.945 276.145 178.974 276.271 178.06 276.59C177.175 276.931 176.394 277.497 175.795 278.232C175.195 278.966 174.797 279.845 174.64 280.78C174.593 281.118 174.563 281.459 174.55 281.8Z" fill="#263238"/>
<path d="M245.18 325.58C249.079 325.58 252.24 322.419 252.24 318.52C252.24 314.621 249.079 311.46 245.18 311.46C241.281 311.46 238.12 314.621 238.12 318.52C238.12 322.419 241.281 325.58 245.18 325.58Z" fill="white"/>
<path d="M252.24 318.52C252.19 318.52 252.24 317.89 251.92 316.82C251.506 315.31 250.597 313.983 249.34 313.05C248.487 312.406 247.493 311.974 246.44 311.79C245.239 311.58 244.005 311.691 242.86 312.11C241.592 312.568 240.491 313.398 239.7 314.49C238.894 315.593 238.437 316.912 238.388 318.278C238.339 319.643 238.701 320.992 239.427 322.149C240.153 323.307 241.209 324.22 242.459 324.771C243.709 325.322 245.096 325.485 246.44 325.24C247.493 325.056 248.487 324.624 249.34 323.98C250.596 323.05 251.504 321.726 251.92 320.22C252.21 319.15 252.19 318.51 252.24 318.52C252.266 318.669 252.266 318.821 252.24 318.97C252.246 319.408 252.195 319.845 252.09 320.27C251.726 321.857 250.825 323.27 249.54 324.27C248.579 325.019 247.444 325.512 246.241 325.705C245.039 325.897 243.806 325.782 242.66 325.37C241.589 324.988 240.623 324.36 239.839 323.537C239.055 322.714 238.474 321.719 238.144 320.631C237.813 319.543 237.742 318.393 237.936 317.273C238.13 316.153 238.583 315.093 239.26 314.18C240.112 313.013 241.297 312.131 242.66 311.65C243.887 311.211 245.21 311.111 246.49 311.36C247.586 311.58 248.614 312.057 249.49 312.75C250.78 313.746 251.681 315.161 252.04 316.75C252.146 317.172 252.196 317.605 252.19 318.04C252.235 318.196 252.252 318.358 252.24 318.52V318.52Z" fill="#263238"/>
<path d="M178.59 290.13C178.73 290.13 179.33 302.78 179.91 318.39C180.49 334 180.85 346.66 180.71 346.66C180.57 346.66 180 334 179.39 318.4C178.78 302.8 178.45 290.14 178.59 290.13Z" fill="#263238"/>
<path d="M142.55 191.91C141.84 191.31 144.92 179.49 144.92 179.49C144.92 179.49 136.78 166.22 136.57 161.94C136.36 157.66 139.78 148.88 139.78 148.88L163.11 142.88C163.11 142.88 170.61 156.8 172.11 161.72C173.61 166.64 169.54 183.34 169.54 183.34L165.54 191.91C165.54 191.91 153.66 201.33 142.55 191.91Z" fill="#FFBE9D"/>
<path d="M136.61 164.5C135.697 162.816 134.875 161.083 134.15 159.31C132.68 155.81 130.86 152.37 134.15 150.41C134.663 150.072 135.243 149.848 135.85 149.753C136.458 149.658 137.078 149.695 137.67 149.86C137.67 149.86 137.17 146.86 138.93 145.8C139.442 145.48 140.022 145.286 140.624 145.234C141.225 145.182 141.831 145.273 142.39 145.5C142.39 145.5 141.83 141.34 144.39 139.58C145.343 138.951 146.452 138.6 147.593 138.566C148.734 138.533 149.862 138.818 150.85 139.39C150.85 139.39 148.85 121.18 148.67 120.22C148.03 116.68 149.34 113.54 152.86 114.42C154.15 114.74 154.86 116.1 156.38 122.03C157.9 127.96 160.33 138.08 160.33 138.08C160.33 138.08 164.43 145.2 166.33 149.08C168.23 152.96 172.1 161.74 172.42 164.08C173.24 170.08 169.71 178.08 169.71 178.08L144.91 179.52L136.61 164.5Z" fill="#FFBE9D"/>
<path d="M138.16 150.64C138.867 151.483 139.509 152.379 140.08 153.32L142.08 156.32C142.485 156.911 142.843 157.533 143.15 158.18C143.499 158.918 143.6 159.749 143.44 160.55C143.365 160.968 143.18 161.359 142.904 161.682C142.628 162.006 142.271 162.25 141.87 162.39C141.121 162.577 140.329 162.477 139.65 162.11C139.066 161.83 138.51 161.495 137.99 161.11C137.51 160.76 137.06 160.42 136.66 160.11C135.85 159.48 135.23 158.94 134.81 158.55C134.39 158.16 134.17 157.94 134.19 157.91C134.21 157.88 135.19 158.64 136.88 159.81C137.824 160.521 138.828 161.15 139.88 161.69C140.454 161.992 141.119 162.074 141.75 161.92C142.065 161.806 142.343 161.609 142.556 161.351C142.769 161.092 142.908 160.781 142.96 160.45C143.087 159.774 143 159.074 142.71 158.45C142.423 157.826 142.088 157.224 141.71 156.65L139.84 153.65C139.197 152.695 138.635 151.689 138.16 150.64V150.64Z" fill="#6F4C47"/>
<path d="M158.5 152.81C158.287 151.507 158.376 150.173 158.76 148.91C158.985 147.607 159.516 146.377 160.31 145.32C160.45 145.39 159.76 146.98 159.31 149.03C158.86 151.08 158.66 152.81 158.5 152.81Z" fill="#6F4C47"/>
<path d="M168.34 158.13C166.051 155.914 163.167 154.41 160.04 153.8C156.927 153.2 153.74 153.079 150.59 153.44C148.07 153.67 145.18 154.32 144.04 156.58C142.9 158.84 144.28 161.9 146.51 163.23C148.74 164.56 151.51 164.62 154.12 164.39C156.73 164.16 159.33 163.67 161.91 164.07" fill="#FFBE9D"/>
<path d="M161.91 164.07C161.91 164.07 161.21 164 159.91 164.07C158.133 164.147 156.36 164.314 154.6 164.57C153.363 164.728 152.116 164.781 150.87 164.73C149.418 164.68 147.993 164.323 146.69 163.68C145.236 162.914 144.127 161.623 143.59 160.07C143.305 159.241 143.243 158.351 143.41 157.49C143.623 156.602 144.101 155.8 144.78 155.19C146.157 154.125 147.814 153.482 149.55 153.34C151.113 153.156 152.686 153.063 154.26 153.06C156.938 153.011 159.605 153.413 162.15 154.25C163.862 154.825 165.462 155.691 166.88 156.81C167.267 157.116 167.631 157.451 167.97 157.81C168.097 157.925 168.208 158.056 168.3 158.2C168.3 158.2 167.78 157.73 166.76 156.99C165.319 155.954 163.722 155.154 162.03 154.62C159.518 153.847 156.897 153.489 154.27 153.56C152.715 153.577 151.163 153.681 149.62 153.87C147.987 154 146.428 154.601 145.13 155.6C144.533 156.128 144.11 156.826 143.92 157.6C143.764 158.37 143.816 159.167 144.07 159.91C144.562 161.347 145.58 162.544 146.92 163.26C148.167 163.875 149.531 164.216 150.92 164.26C152.14 164.327 153.364 164.297 154.58 164.17C156.357 163.938 158.148 163.821 159.94 163.82C160.425 163.842 160.909 163.889 161.39 163.96C161.568 163.971 161.743 164.008 161.91 164.07V164.07Z" fill="#6F4C47"/>
<path d="M138.34 150.93C140.95 154.93 143.25 159.25 145.45 163.45C145.975 164.736 146.839 165.856 147.95 166.69C148.89 167.27 151.22 166.22 152.27 165.86L145.1 149.56" fill="#FFBE9D"/>
<path d="M145.1 149.56C145.351 149.942 145.565 150.348 145.74 150.77L147.32 154.19C148.65 157.09 150.47 161.19 152.5 165.76L152.62 166.01L152.35 166.11C151.58 166.38 150.75 166.73 149.85 166.96C149.49 167.05 149.121 167.103 148.75 167.12C148.555 167.129 148.359 167.109 148.17 167.06C147.972 167.011 147.788 166.919 147.63 166.79C147.053 166.374 146.56 165.851 146.18 165.25C145.45 164.09 144.93 162.93 144.34 161.86C143.22 159.69 142.19 157.75 141.29 156.13C140.39 154.51 139.65 153.22 139.12 152.33C138.828 151.882 138.567 151.414 138.34 150.93C138.7 151.33 139.018 151.766 139.29 152.23C139.87 153.08 140.68 154.35 141.61 155.95C142.54 157.55 143.61 159.47 144.77 161.63C145.36 162.7 145.91 163.88 146.61 164.97C146.958 165.513 147.402 165.987 147.92 166.37C148.196 166.513 148.5 166.595 148.811 166.609C149.122 166.622 149.432 166.568 149.72 166.45C150.57 166.24 151.38 165.9 152.18 165.62L152 166C150 161.39 148.22 157.3 147 154.36L145.56 150.88C145.368 150.454 145.214 150.013 145.1 149.56Z" fill="#6F4C47"/>
<path d="M143.17 144.71C145.47 150.49 147.773 156.267 150.08 162.04C150.5 163.296 151.129 164.473 151.94 165.52C152.35 166.04 152.882 166.45 153.49 166.714C154.097 166.977 154.76 167.086 155.42 167.03C157.22 166.77 158.42 164.86 158.49 163.03C158.435 161.204 157.992 159.411 157.19 157.77C155.123 152.499 153.468 147.076 152.24 141.55" fill="#FFBE9D"/>
<path d="M152.24 141.56C152.31 141.732 152.367 141.909 152.41 142.09C152.52 142.49 152.65 143 152.82 143.62C153.18 144.95 153.7 146.87 154.43 149.22C155.16 151.57 156.1 154.34 157.29 157.36C158.027 158.942 158.516 160.629 158.74 162.36C158.806 163.31 158.624 164.262 158.21 165.12C157.787 166.017 157.051 166.728 156.14 167.12C155.666 167.293 155.161 167.361 154.659 167.32C154.156 167.279 153.669 167.128 153.23 166.88C152.409 166.423 151.72 165.761 151.23 164.96C150.403 163.451 149.704 161.875 149.14 160.25C147.96 157.25 146.9 154.51 145.99 152.2C145.08 149.89 144.43 148.1 143.91 146.75L143.36 145.26C143.289 145.087 143.238 144.905 143.21 144.72C143.311 144.877 143.395 145.045 143.46 145.22L144.1 146.67C144.65 148.01 145.41 149.84 146.33 152.06C147.25 154.28 148.33 157.06 149.59 160.06C150.153 161.647 150.845 163.186 151.66 164.66C152.113 165.392 152.751 165.992 153.51 166.4C153.884 166.61 154.299 166.738 154.727 166.774C155.155 166.811 155.586 166.755 155.99 166.61C156.788 166.262 157.429 165.632 157.79 164.84C158.166 164.063 158.332 163.201 158.27 162.34C158.048 160.677 157.58 159.055 156.88 157.53C155.71 154.53 154.8 151.68 154.12 149.32C153.44 146.96 152.96 145 152.66 143.66C152.52 142.98 152.41 142.46 152.35 142.1C152.285 141.927 152.248 141.745 152.24 141.56V141.56Z" fill="#6F4C47"/>
<path d="M143.72 185.34C143.72 185.34 127.9 232 127.27 234.28C126.64 236.56 130.4 253.23 137.27 257.18C144.14 261.13 157.47 244.69 159.13 238.65C160.79 232.61 159.13 222.41 159.13 222.41L169.8 182.22" fill="#FFBE9D"/>
<path d="M159.13 178.09C158.625 178.154 158.113 178.089 157.64 177.9C156.472 177.536 155.4 176.918 154.5 176.09C153.589 175.26 152.878 174.234 152.42 173.09C152.187 172.636 152.076 172.13 152.1 171.62C152.759 173.134 153.691 174.513 154.85 175.69C156.114 176.75 157.566 177.564 159.13 178.09V178.09Z" fill="#6F4C47"/>
<path d="M443.32 404.22C443.32 404.37 355.21 404.49 246.54 404.49C137.87 404.49 49.74 404.37 49.74 404.22C49.74 404.07 137.84 403.96 246.54 403.96C355.24 403.96 443.32 404.08 443.32 404.22Z" fill="#263238"/>
<path d="M185.44 69.74H73.2099C70.2883 69.74 67.9199 72.1084 67.9199 75.03V106.15C67.9199 109.072 70.2883 111.44 73.2099 111.44H185.44C188.362 111.44 190.73 109.072 190.73 106.15V75.03C190.73 72.1084 188.362 69.74 185.44 69.74Z" fill="#FFC900"/>
<path d="M191.52 111.43H83.59C82.1037 111.414 80.6834 110.813 79.6371 109.758C78.5907 108.702 78.0025 107.276 78 105.79V75.23C78.0026 73.735 78.5977 72.302 79.6548 71.2448C80.712 70.1877 82.145 69.5926 83.64 69.59H191.52C193.015 69.5926 194.448 70.1877 195.505 71.2448C196.562 72.302 197.157 73.735 197.16 75.23V105.79C197.157 107.285 196.562 108.718 195.505 109.775C194.448 110.832 193.015 111.427 191.52 111.43V111.43ZM83.59 70.59C82.3689 70.6058 81.203 71.1012 80.3442 71.9694C79.4853 72.8376 79.0025 74.0088 79 75.23V105.79C79 107.021 79.4889 108.201 80.359 109.071C81.2292 109.941 82.4094 110.43 83.64 110.43H191.52C192.751 110.43 193.931 109.941 194.801 109.071C195.671 108.201 196.16 107.021 196.16 105.79V75.23C196.157 74.0002 195.668 72.8215 194.798 71.9519C193.928 71.0823 192.75 70.5926 191.52 70.59H83.59Z" fill="#FFC900"/>
<path d="M192.61 110.51C191.779 109.75 191.07 108.867 190.51 107.89C189.803 107.012 189.237 106.031 188.83 104.98C189.663 105.741 190.374 106.624 190.94 107.6C191.646 108.476 192.209 109.458 192.61 110.51V110.51Z" fill="#FFC900"/>
<path d="M196.66 78.28C195.421 77.0214 194.312 75.6411 193.35 74.16C192.25 72.7808 191.282 71.3009 190.46 69.74C191.699 70.9986 192.808 72.3789 193.77 73.86C194.874 75.2362 195.842 76.7165 196.66 78.28V78.28Z" fill="#FFC900"/>
<path d="M196.23 105C196.08 105.11 194.58 103 192.94 100.18C192.11 98.8 191.38 97.54 190.87 96.62C190.552 96.1415 190.291 95.6281 190.09 95.09C190.24 94.99 191.74 97.15 193.38 99.91C194.21 101.29 194.94 102.55 195.46 103.47C195.777 103.947 196.036 104.461 196.23 105Z" fill="#FFC900"/>
<path d="M196.69 96.26C196.54 96.37 194.94 94.04 193.17 91.07C192.28 89.58 191.49 88.23 190.93 87.24C190.594 86.7238 190.313 86.1742 190.09 85.6C190.24 85.5 191.84 87.83 193.62 90.8C194.51 92.28 195.29 93.64 195.85 94.62C196.189 95.1346 196.47 95.6845 196.69 96.26V96.26Z" fill="#FFC900"/>
<path d="M196.68 87.63C196.53 87.74 194.92 85.39 193.14 82.41C192.24 80.92 191.45 79.55 190.89 78.56C190.547 78.0426 190.262 77.4893 190.04 76.91C190.19 76.81 191.8 79.15 193.58 82.14C194.48 83.63 195.27 84.99 195.83 85.99C196.176 86.502 196.461 87.0524 196.68 87.63V87.63Z" fill="#FFC900"/>
<path d="M64.8899 76.2C62.7391 75.9094 60.6155 75.4445 58.5399 74.81C56.4196 74.3424 54.3397 73.707 52.3199 72.91C54.4708 73.2006 56.5944 73.6655 58.6699 74.3C60.7908 74.7657 62.8708 75.4011 64.8899 76.2Z" fill="#263238"/>
<path d="M66.1 68.69C63.7522 66.2431 61.5325 63.6763 59.45 61C57.2313 58.4445 55.1484 55.7741 53.21 53C55.555 55.4529 57.7745 58.0228 59.86 60.7C62.0729 63.2568 64.1555 65.9235 66.1 68.69V68.69Z" fill="#263238"/>
<path d="M75.37 65.07C74.6487 63.393 74.1867 61.616 74 59.8C73.6385 58.0098 73.5642 56.1735 73.78 54.36C73.93 54.36 74.07 56.78 74.51 59.73C74.95 62.68 75.52 65 75.37 65.07Z" fill="#263238"/>
<path d="M87.9575 84.7578V94H86.7324V84.7578H87.9575ZM93.5371 84.7578L89.6968 89.0679L87.5386 91.3086L87.3354 90.001L88.9604 88.2109L92.0645 84.7578H93.5371ZM92.3564 94L88.9351 89.4932L89.665 88.522L93.8164 94H92.3564ZM95.9937 84.25V94H94.813V84.25H95.9937ZM99.1548 87.1318V94H97.9741V87.1318H99.1548ZM97.8853 85.3101C97.8853 85.1196 97.9424 84.9588 98.0566 84.8276C98.1751 84.6965 98.3486 84.6309 98.5771 84.6309C98.8014 84.6309 98.9728 84.6965 99.0913 84.8276C99.214 84.9588 99.2754 85.1196 99.2754 85.3101C99.2754 85.492 99.214 85.6486 99.0913 85.7798C98.9728 85.9067 98.8014 85.9702 98.5771 85.9702C98.3486 85.9702 98.1751 85.9067 98.0566 85.7798C97.9424 85.6486 97.8853 85.492 97.8853 85.3101ZM102.221 84.25V94H101.04V84.25H102.221ZM106.417 87.1318L103.42 90.3374L101.745 92.0767L101.649 90.8262L102.849 89.3916L104.982 87.1318H106.417ZM105.344 94L102.894 90.7246L103.503 89.6772L106.728 94H105.344ZM114.192 84.7578V94H112.986V84.7578H114.192ZM117.163 84.7578V85.7607H110.022V84.7578H117.163ZM117.411 90.6421V90.4961C117.411 90.001 117.483 89.5418 117.626 89.1187C117.77 88.6912 117.978 88.321 118.249 88.0078C118.519 87.6904 118.847 87.445 119.232 87.2715C119.618 87.0938 120.049 87.0049 120.527 87.0049C121.01 87.0049 121.444 87.0938 121.829 87.2715C122.218 87.445 122.548 87.6904 122.819 88.0078C123.094 88.321 123.303 88.6912 123.447 89.1187C123.591 89.5418 123.663 90.001 123.663 90.4961V90.6421C123.663 91.1372 123.591 91.5964 123.447 92.0195C123.303 92.4427 123.094 92.813 122.819 93.1304C122.548 93.4435 122.22 93.689 121.835 93.8667C121.454 94.0402 121.022 94.127 120.54 94.127C120.058 94.127 119.624 94.0402 119.239 93.8667C118.854 93.689 118.524 93.4435 118.249 93.1304C117.978 92.813 117.77 92.4427 117.626 92.0195C117.483 91.5964 117.411 91.1372 117.411 90.6421ZM118.585 90.4961V90.6421C118.585 90.9849 118.625 91.3086 118.706 91.6133C118.786 91.9137 118.907 92.1803 119.067 92.4131C119.232 92.6458 119.438 92.8299 119.683 92.9653C119.929 93.0965 120.214 93.1621 120.54 93.1621C120.862 93.1621 121.143 93.0965 121.384 92.9653C121.63 92.8299 121.833 92.6458 121.994 92.4131C122.154 92.1803 122.275 91.9137 122.355 91.6133C122.44 91.3086 122.482 90.9849 122.482 90.6421V90.4961C122.482 90.1576 122.44 89.8381 122.355 89.5376C122.275 89.2329 122.152 88.9642 121.987 88.7314C121.826 88.4945 121.623 88.3083 121.378 88.1729C121.137 88.0374 120.853 87.9697 120.527 87.9697C120.206 87.9697 119.922 88.0374 119.677 88.1729C119.436 88.3083 119.232 88.4945 119.067 88.7314C118.907 88.9642 118.786 89.2329 118.706 89.5376C118.625 89.8381 118.585 90.1576 118.585 90.4961ZM126.31 88.5981V94H125.136V87.1318H126.247L126.31 88.5981ZM126.031 90.3057L125.542 90.2866C125.546 89.8169 125.616 89.3831 125.751 88.9854C125.887 88.5833 126.077 88.2342 126.323 87.938C126.568 87.6418 126.86 87.4132 127.199 87.2524C127.542 87.0874 127.92 87.0049 128.335 87.0049C128.674 87.0049 128.978 87.0514 129.249 87.1445C129.52 87.2334 129.75 87.3773 129.941 87.5762C130.136 87.7751 130.284 88.0332 130.385 88.3506C130.487 88.6637 130.538 89.0467 130.538 89.4995V94H129.357V89.4868C129.357 89.1271 129.304 88.8394 129.198 88.6235C129.092 88.4035 128.938 88.2448 128.735 88.1475C128.532 88.0459 128.282 87.9951 127.986 87.9951C127.694 87.9951 127.427 88.0565 127.186 88.1792C126.949 88.3019 126.744 88.4712 126.57 88.687C126.401 88.9028 126.268 89.1504 126.17 89.4297C126.077 89.7048 126.031 89.9967 126.031 90.3057ZM136.771 87.1318H137.837V93.854C137.837 94.4591 137.715 94.9754 137.469 95.4028C137.224 95.8302 136.881 96.154 136.441 96.374C136.005 96.5983 135.501 96.7104 134.93 96.7104C134.693 96.7104 134.414 96.6724 134.092 96.5962C133.775 96.5243 133.462 96.3994 133.153 96.2217C132.848 96.0482 132.592 95.8133 132.385 95.5171L133 94.8188C133.288 95.1659 133.589 95.4071 133.902 95.5425C134.219 95.6779 134.532 95.7456 134.841 95.7456C135.214 95.7456 135.535 95.6758 135.806 95.5361C136.077 95.3965 136.286 95.1891 136.435 94.9141C136.587 94.6432 136.663 94.3089 136.663 93.9111V88.6426L136.771 87.1318ZM132.042 90.6421V90.5088C132.042 89.984 132.103 89.508 132.226 89.0806C132.353 88.6489 132.533 88.2786 132.766 87.9697C133.003 87.6608 133.288 87.4238 133.623 87.2588C133.957 87.0895 134.333 87.0049 134.752 87.0049C135.184 87.0049 135.561 87.0811 135.882 87.2334C136.208 87.3815 136.483 87.5994 136.708 87.8872C136.936 88.1707 137.116 88.5135 137.247 88.9155C137.378 89.3175 137.469 89.7725 137.52 90.2803V90.8643C137.473 91.3678 137.382 91.8206 137.247 92.2227C137.116 92.6247 136.936 92.9674 136.708 93.251C136.483 93.5345 136.208 93.7524 135.882 93.9048C135.556 94.0529 135.176 94.127 134.74 94.127C134.329 94.127 133.957 94.0402 133.623 93.8667C133.292 93.6932 133.009 93.4499 132.772 93.1367C132.535 92.8236 132.353 92.4554 132.226 92.0322C132.103 91.6048 132.042 91.1414 132.042 90.6421ZM133.216 90.5088V90.6421C133.216 90.9849 133.25 91.3065 133.318 91.6069C133.39 91.9074 133.498 92.1719 133.642 92.4004C133.79 92.6289 133.978 92.8088 134.207 92.9399C134.435 93.0669 134.708 93.1304 135.025 93.1304C135.415 93.1304 135.736 93.0479 135.99 92.8828C136.244 92.7178 136.445 92.4998 136.593 92.229C136.746 91.9582 136.864 91.6641 136.949 91.3467V89.8169C136.902 89.5841 136.83 89.3599 136.733 89.144C136.64 88.924 136.517 88.7293 136.365 88.5601C136.217 88.3866 136.033 88.249 135.812 88.1475C135.592 88.0459 135.334 87.9951 135.038 87.9951C134.716 87.9951 134.439 88.0628 134.207 88.1982C133.978 88.3294 133.79 88.5114 133.642 88.7441C133.498 88.9727 133.39 89.2393 133.318 89.5439C133.25 89.8444 133.216 90.166 133.216 90.5088ZM142.065 89.5884V90.5532H138.967V89.5884H142.065ZM146.807 84.7578V94H145.601V84.7578H146.807ZM149.777 84.7578V85.7607H142.636V84.7578H149.777ZM150.025 90.6421V90.4961C150.025 90.001 150.097 89.5418 150.241 89.1187C150.385 88.6912 150.592 88.321 150.863 88.0078C151.134 87.6904 151.462 87.445 151.847 87.2715C152.232 87.0938 152.663 87.0049 153.142 87.0049C153.624 87.0049 154.058 87.0938 154.443 87.2715C154.832 87.445 155.162 87.6904 155.433 88.0078C155.708 88.321 155.918 88.6912 156.062 89.1187C156.205 89.5418 156.277 90.001 156.277 90.4961V90.6421C156.277 91.1372 156.205 91.5964 156.062 92.0195C155.918 92.4427 155.708 92.813 155.433 93.1304C155.162 93.4435 154.834 93.689 154.449 93.8667C154.068 94.0402 153.637 94.127 153.154 94.127C152.672 94.127 152.238 94.0402 151.853 93.8667C151.468 93.689 151.138 93.4435 150.863 93.1304C150.592 92.813 150.385 92.4427 150.241 92.0195C150.097 91.5964 150.025 91.1372 150.025 90.6421ZM151.199 90.4961V90.6421C151.199 90.9849 151.239 91.3086 151.32 91.6133C151.4 91.9137 151.521 92.1803 151.682 92.4131C151.847 92.6458 152.052 92.8299 152.297 92.9653C152.543 93.0965 152.828 93.1621 153.154 93.1621C153.476 93.1621 153.757 93.0965 153.999 92.9653C154.244 92.8299 154.447 92.6458 154.608 92.4131C154.769 92.1803 154.889 91.9137 154.97 91.6133C155.054 91.3086 155.097 90.9849 155.097 90.6421V90.4961C155.097 90.1576 155.054 89.8381 154.97 89.5376C154.889 89.2329 154.767 88.9642 154.602 88.7314C154.441 88.4945 154.238 88.3083 153.992 88.1729C153.751 88.0374 153.467 87.9697 153.142 87.9697C152.82 87.9697 152.536 88.0374 152.291 88.1729C152.05 88.3083 151.847 88.4945 151.682 88.7314C151.521 88.9642 151.4 89.2329 151.32 89.5376C151.239 89.8381 151.199 90.1576 151.199 90.4961ZM158.924 88.5981V94H157.75V87.1318H158.861L158.924 88.5981ZM158.645 90.3057L158.156 90.2866C158.16 89.8169 158.23 89.3831 158.366 88.9854C158.501 88.5833 158.692 88.2342 158.937 87.938C159.182 87.6418 159.474 87.4132 159.813 87.2524C160.156 87.0874 160.535 87.0049 160.949 87.0049C161.288 87.0049 161.592 87.0514 161.863 87.1445C162.134 87.2334 162.365 87.3773 162.555 87.5762C162.75 87.7751 162.898 88.0332 163 88.3506C163.101 88.6637 163.152 89.0467 163.152 89.4995V94H161.971V89.4868C161.971 89.1271 161.918 88.8394 161.812 88.6235C161.707 88.4035 161.552 88.2448 161.349 88.1475C161.146 88.0459 160.896 87.9951 160.6 87.9951C160.308 87.9951 160.042 88.0565 159.8 88.1792C159.563 88.3019 159.358 88.4712 159.185 88.687C159.015 88.9028 158.882 89.1504 158.785 89.4297C158.692 89.7048 158.645 89.9967 158.645 90.3057ZM169.385 87.1318H170.452V93.854C170.452 94.4591 170.329 94.9754 170.083 95.4028C169.838 95.8302 169.495 96.154 169.055 96.374C168.619 96.5983 168.116 96.7104 167.544 96.7104C167.307 96.7104 167.028 96.6724 166.707 96.5962C166.389 96.5243 166.076 96.3994 165.767 96.2217C165.462 96.0482 165.206 95.8133 164.999 95.5171L165.615 94.8188C165.903 95.1659 166.203 95.4071 166.516 95.5425C166.833 95.6779 167.147 95.7456 167.456 95.7456C167.828 95.7456 168.15 95.6758 168.42 95.5361C168.691 95.3965 168.901 95.1891 169.049 94.9141C169.201 94.6432 169.277 94.3089 169.277 93.9111V88.6426L169.385 87.1318ZM164.656 90.6421V90.5088C164.656 89.984 164.718 89.508 164.84 89.0806C164.967 88.6489 165.147 88.2786 165.38 87.9697C165.617 87.6608 165.903 87.4238 166.237 87.2588C166.571 87.0895 166.948 87.0049 167.367 87.0049C167.798 87.0049 168.175 87.0811 168.497 87.2334C168.822 87.3815 169.097 87.5994 169.322 87.8872C169.55 88.1707 169.73 88.5135 169.861 88.9155C169.993 89.3175 170.083 89.7725 170.134 90.2803V90.8643C170.088 91.3678 169.997 91.8206 169.861 92.2227C169.73 92.6247 169.55 92.9674 169.322 93.251C169.097 93.5345 168.822 93.7524 168.497 93.9048C168.171 94.0529 167.79 94.127 167.354 94.127C166.944 94.127 166.571 94.0402 166.237 93.8667C165.907 93.6932 165.623 93.4499 165.386 93.1367C165.149 92.8236 164.967 92.4554 164.84 92.0322C164.718 91.6048 164.656 91.1414 164.656 90.6421ZM165.831 90.5088V90.6421C165.831 90.9849 165.864 91.3065 165.932 91.6069C166.004 91.9074 166.112 92.1719 166.256 92.4004C166.404 92.6289 166.592 92.8088 166.821 92.9399C167.049 93.0669 167.322 93.1304 167.64 93.1304C168.029 93.1304 168.351 93.0479 168.604 92.8828C168.858 92.7178 169.059 92.4998 169.208 92.229C169.36 91.9582 169.478 91.6641 169.563 91.3467V89.8169C169.516 89.5841 169.444 89.3599 169.347 89.144C169.254 88.924 169.131 88.7293 168.979 88.5601C168.831 88.3866 168.647 88.249 168.427 88.1475C168.207 88.0459 167.949 87.9951 167.652 87.9951C167.331 87.9951 167.054 88.0628 166.821 88.1982C166.592 88.3294 166.404 88.5114 166.256 88.7441C166.112 88.9727 166.004 89.2393 165.932 89.5439C165.864 89.8444 165.831 90.166 165.831 90.5088Z" fill="white"/>
</svg>
