<svg xmlns="http://www.w3.org/2000/svg" width="375" viewBox="0 0 375 375" height="375" version="1.0"><defs><clipPath id="a"><path d="M 82.042969 118.878906 L 280.792969 118.878906 L 280.792969 199.878906 L 82.042969 199.878906 Z M 82.042969 118.878906"/></clipPath></defs><g fill="#0071BC"><g><g><path d="M 36.828125 -9.875 L 39.296875 -1.609375 C 38.441406 -0.929688 37.296875 -0.390625 35.859375 0.015625 C 34.429688 0.429688 32.984375 0.640625 31.515625 0.640625 C 28.679688 0.640625 26.332031 0.125 24.46875 -0.90625 C 22.613281 -1.945312 21.113281 -3.414062 19.96875 -5.3125 L 16.421875 -11.28125 C 15.992188 -11.988281 15.582031 -12.519531 15.1875 -12.875 C 14.800781 -13.238281 14.320312 -13.472656 13.75 -13.578125 L 13.75 0 L 3.21875 0 L 3.21875 -38.125 L 16.109375 -38.125 C 21.972656 -38.125 26.3125 -37.007812 29.125 -34.78125 C 31.9375 -32.5625 33.34375 -29.488281 33.34375 -25.5625 C 33.34375 -22.769531 32.535156 -20.453125 30.921875 -18.609375 C 29.316406 -16.765625 27.1875 -15.460938 24.53125 -14.703125 C 25.894531 -14.273438 26.96875 -13.472656 27.75 -12.296875 L 28.71875 -10.84375 C 29.613281 -9.445312 30.992188 -8.75 32.859375 -8.75 C 33.535156 -8.75 34.203125 -8.828125 34.859375 -8.984375 C 35.523438 -9.148438 36.179688 -9.445312 36.828125 -9.875 Z M 16 -29.46875 L 13.75 -29.46875 L 13.75 -21.90625 L 16.484375 -21.90625 C 18.804688 -21.90625 20.421875 -22.21875 21.328125 -22.84375 C 22.242188 -23.46875 22.703125 -24.441406 22.703125 -25.765625 C 22.703125 -27.203125 22.082031 -28.175781 20.84375 -28.6875 C 19.613281 -29.207031 18 -29.46875 16 -29.46875 Z M 16 -29.46875" transform="translate(79.979 256.548)"/></g></g></g><g fill="#0071BC"><g><g><path d="M 34.515625 -38.125 L 32.96875 -28.78125 L 21.796875 -28.78125 L 21.796875 0 L 11.0625 0 L 11.0625 -28.78125 L -0.859375 -28.78125 L -0.859375 -38.125 Z M 34.515625 -38.125" transform="translate(130.235 256.548)"/></g></g></g><g fill="#0071BC"><g><g><path d="M 36.828125 -9.875 L 39.296875 -1.609375 C 38.441406 -0.929688 37.296875 -0.390625 35.859375 0.015625 C 34.429688 0.429688 32.984375 0.640625 31.515625 0.640625 C 28.679688 0.640625 26.332031 0.125 24.46875 -0.90625 C 22.613281 -1.945312 21.113281 -3.414062 19.96875 -5.3125 L 16.421875 -11.28125 C 15.992188 -11.988281 15.582031 -12.519531 15.1875 -12.875 C 14.800781 -13.238281 14.320312 -13.472656 13.75 -13.578125 L 13.75 0 L 3.21875 0 L 3.21875 -38.125 L 16.109375 -38.125 C 21.972656 -38.125 26.3125 -37.007812 29.125 -34.78125 C 31.9375 -32.5625 33.34375 -29.488281 33.34375 -25.5625 C 33.34375 -22.769531 32.535156 -20.453125 30.921875 -18.609375 C 29.316406 -16.765625 27.1875 -15.460938 24.53125 -14.703125 C 25.894531 -14.273438 26.96875 -13.472656 27.75 -12.296875 L 28.71875 -10.84375 C 29.613281 -9.445312 30.992188 -8.75 32.859375 -8.75 C 33.535156 -8.75 34.203125 -8.828125 34.859375 -8.984375 C 35.523438 -9.148438 36.179688 -9.445312 36.828125 -9.875 Z M 16 -29.46875 L 13.75 -29.46875 L 13.75 -21.90625 L 16.484375 -21.90625 C 18.804688 -21.90625 20.421875 -22.21875 21.328125 -22.84375 C 22.242188 -23.46875 22.703125 -24.441406 22.703125 -25.765625 C 22.703125 -27.203125 22.082031 -28.175781 20.84375 -28.6875 C 19.613281 -29.207031 18 -29.46875 16 -29.46875 Z M 16 -29.46875" transform="translate(176.464 256.548)"/></g></g></g><g fill="#0071BC"><g><g><path d="M 47.078125 -38.125 L 57.125 -38.125 L 46.125 0 L 34.03125 0 L 28.5625 -24.703125 L 21.6875 0 L 9.609375 0 L 0.109375 -38.125 L 10.90625 -38.125 L 16.265625 -14.765625 L 22.703125 -38.125 L 35.546875 -38.125 L 40.640625 -14.65625 Z M 47.078125 -38.125" transform="translate(226.72 256.548)"/></g></g></g><path fill="#0071BC" d="M 152.351562 166.542969 L 160.925781 166.542969 L 160.925781 175.125 L 152.351562 175.125 Z M 152.351562 166.542969"/><path fill="#0071BC" d="M 165.828125 166.542969 L 174.402344 166.542969 L 174.402344 175.125 L 165.828125 175.125 Z M 165.828125 166.542969"/><path fill="#0071BC" d="M 152.351562 180.027344 L 160.925781 180.027344 L 160.925781 188.609375 L 152.351562 188.609375 Z M 152.351562 180.027344"/><path fill="#0071BC" d="M 165.828125 180.027344 L 174.402344 180.027344 L 174.402344 188.609375 L 165.828125 188.609375 Z M 165.828125 180.027344"/><path fill="#0071BC" d="M 116.582031 189.429688 L 163.375 148.050781 L 210.167969 189.429688 L 163.375 142.867188 Z M 116.582031 189.429688"/><g clip-path="url(#a)"><path fill="#29ABE2" d="M 236.316406 118.878906 L 199.84375 155.378906 L 163.375 118.878906 L 82.441406 199.878906 L 101.921875 199.878906 L 163.375 138.375 L 224.824219 199.878906 L 244.308594 199.878906 L 205.152344 160.6875 L 236.316406 129.5 L 269.78125 162.992188 L 280.394531 162.992188 Z M 236.316406 118.878906"/></g><path fill="#0071BC" d="M 230.3125 144.839844 L 234.980469 144.839844 L 234.980469 149.511719 L 230.3125 149.511719 Z M 230.3125 144.839844"/><path fill="#0071BC" d="M 237.648438 144.839844 L 242.316406 144.839844 L 242.316406 149.511719 L 237.648438 149.511719 Z M 237.648438 144.839844"/><path fill="#0071BC" d="M 230.3125 152.183594 L 234.980469 152.183594 L 234.980469 156.855469 L 230.3125 156.855469 Z M 230.3125 152.183594"/><path fill="#0071BC" d="M 237.648438 152.183594 L 242.316406 152.183594 L 242.316406 156.855469 L 237.648438 156.855469 Z M 237.648438 152.183594"/><path fill="#0071BC" d="M 236.316406 131.941406 L 210.828125 157.300781 L 236.316406 134.765625 L 261.796875 157.300781 Z M 236.316406 131.941406"/><g fill="#0071BC"><g><g><path d="M 11.578125 -10.71875 L 7.265625 -10.71875 L 7.265625 0 L 4.734375 0 L 4.734375 -10.71875 L 0.421875 -10.71875 L 0.421875 -12.703125 L 11.578125 -12.703125 Z M 11.578125 -10.71875" transform="translate(116.563 285.521)"/></g></g></g><g fill="#0071BC"><g><g><path d="M 10.046875 -5.09375 C 10.046875 -4.738281 10.035156 -4.453125 10.015625 -4.234375 L 3.0625 -4.234375 C 3.207031 -2.429688 3.957031 -1.53125 5.3125 -1.53125 C 5.863281 -1.53125 6.320312 -1.675781 6.6875 -1.96875 C 7.050781 -2.257812 7.273438 -2.664062 7.359375 -3.1875 L 9.90625 -3.1875 C 9.65625 -2.070312 9.113281 -1.21875 8.28125 -0.625 C 7.457031 -0.0390625 6.453125 0.25 5.265625 0.25 C 3.847656 0.25 2.695312 -0.1875 1.8125 -1.0625 C 0.9375 -1.9375 0.5 -3.203125 0.5 -4.859375 C 0.5 -6.378906 0.953125 -7.625 1.859375 -8.59375 C 2.773438 -9.5625 3.976562 -10.046875 5.46875 -10.046875 C 6.90625 -10.046875 8.023438 -9.570312 8.828125 -8.625 C 9.640625 -7.6875 10.046875 -6.507812 10.046875 -5.09375 Z M 5.359375 -8.265625 C 4.085938 -8.265625 3.34375 -7.472656 3.125 -5.890625 L 7.4375 -5.890625 C 7.257812 -7.472656 6.566406 -8.265625 5.359375 -8.265625 Z M 5.359375 -8.265625" transform="translate(137.239 285.521)"/></g></g></g><g fill="#0071BC"><g><g><path d="M 6.140625 -10.03125 C 6.429688 -10.03125 6.671875 -10.003906 6.859375 -9.953125 L 6.859375 -7.921875 C 5.785156 -7.992188 4.988281 -7.757812 4.46875 -7.21875 C 3.957031 -6.6875 3.703125 -5.773438 3.703125 -4.484375 L 3.703125 0 L 1.15625 0 L 1.15625 -9.796875 L 3.703125 -9.796875 L 3.703125 -8 L 4.46875 -9.375 C 4.945312 -9.8125 5.503906 -10.03125 6.140625 -10.03125 Z M 6.140625 -10.03125" transform="translate(157.087 285.521)"/></g></g></g><g fill="#0071BC"><g><g><path d="M 6.96875 -10.046875 C 8.320312 -10.046875 9.390625 -9.582031 10.171875 -8.65625 C 10.953125 -7.738281 11.34375 -6.546875 11.34375 -5.078125 C 11.34375 -3.390625 10.894531 -2.078125 10 -1.140625 C 9.101562 -0.210938 7.984375 0.25 6.640625 0.25 C 5.640625 0.25 4.875 0.0664062 4.34375 -0.296875 L 3.703125 -1.3125 L 3.703125 3.609375 L 1.15625 3.609375 L 1.15625 -9.796875 L 3.703125 -9.796875 L 3.703125 -8.296875 L 4.4375 -9.375 C 5 -9.820312 5.84375 -10.046875 6.96875 -10.046875 Z M 6.140625 -1.53125 C 6.898438 -1.53125 7.515625 -1.820312 7.984375 -2.40625 C 8.460938 -2.988281 8.703125 -3.828125 8.703125 -4.921875 C 8.703125 -5.921875 8.476562 -6.726562 8.03125 -7.34375 C 7.582031 -7.957031 6.984375 -8.265625 6.234375 -8.265625 C 5.472656 -8.265625 4.859375 -8.003906 4.390625 -7.484375 C 3.929688 -6.960938 3.703125 -6.132812 3.703125 -5 L 3.703125 -4.546875 C 3.703125 -3.515625 3.941406 -2.753906 4.421875 -2.265625 C 4.898438 -1.773438 5.472656 -1.53125 6.140625 -1.53125 Z M 6.140625 -1.53125" transform="translate(173.29 285.521)"/></g></g></g><g fill="#0071BC"><g><g><path d="M 6.84375 0 L 6.65625 -1.4375 L 6.1875 -0.390625 C 5.550781 0.0351562 4.738281 0.25 3.75 0.25 C 2.851562 0.25 2.101562 0 1.5 -0.5 C 0.90625 -1 0.609375 -1.695312 0.609375 -2.59375 C 0.609375 -3.675781 1.0625 -4.507812 1.96875 -5.09375 C 2.882812 -5.675781 4.226562 -5.96875 6 -5.96875 L 6.625 -5.96875 L 6.625 -6.171875 C 6.625 -6.554688 6.613281 -6.863281 6.59375 -7.09375 C 6.5 -7.875 5.992188 -8.265625 5.078125 -8.265625 C 4.054688 -8.265625 3.507812 -7.710938 3.4375 -6.609375 L 0.96875 -6.59375 C 1.007812 -7.664062 1.421875 -8.507812 2.203125 -9.125 C 2.984375 -9.738281 3.972656 -10.046875 5.171875 -10.046875 C 7.609375 -10.046875 8.914062 -9.082031 9.09375 -7.15625 C 9.125 -6.6875 9.140625 -6.1875 9.140625 -5.65625 L 9.140625 -2.484375 C 9.140625 -1.734375 9.203125 -0.90625 9.328125 0 Z M 4.734375 -1.53125 C 5.273438 -1.53125 5.722656 -1.710938 6.078125 -2.078125 C 6.441406 -2.441406 6.625 -2.953125 6.625 -3.609375 L 6.625 -4.40625 C 4.363281 -4.5625 3.234375 -4.023438 3.234375 -2.796875 C 3.234375 -1.953125 3.734375 -1.53125 4.734375 -1.53125 Z M 4.734375 -1.53125" transform="translate(194.334 285.521)"/></g></g></g><g fill="#0071BC"><g><g><path d="M 10.671875 -13.53125 L 10.671875 0 L 8.140625 0 L 8.140625 -1.515625 L 7.40625 -0.421875 C 6.8125 0.0234375 5.960938 0.25 4.859375 0.25 C 3.503906 0.25 2.4375 -0.207031 1.65625 -1.125 C 0.882812 -2.039062 0.5 -3.238281 0.5 -4.71875 C 0.5 -6.40625 0.945312 -7.710938 1.84375 -8.640625 C 2.738281 -9.578125 3.851562 -10.046875 5.1875 -10.046875 C 6.195312 -10.046875 6.960938 -9.863281 7.484375 -9.5 L 8.140625 -8.484375 L 8.140625 -13.53125 Z M 5.59375 -1.53125 C 6.351562 -1.53125 6.96875 -1.789062 7.4375 -2.3125 C 7.90625 -2.832031 8.140625 -3.65625 8.140625 -4.78125 L 8.140625 -5.265625 C 8.140625 -6.285156 7.898438 -7.039062 7.421875 -7.53125 C 6.941406 -8.019531 6.363281 -8.265625 5.6875 -8.265625 C 4.925781 -8.265625 4.304688 -7.972656 3.828125 -7.390625 C 3.359375 -6.804688 3.125 -5.96875 3.125 -4.875 C 3.125 -3.875 3.347656 -3.066406 3.796875 -2.453125 C 4.242188 -1.835938 4.84375 -1.53125 5.59375 -1.53125 Z M 5.59375 -1.53125" transform="translate(213.887 285.521)"/></g></g></g><g fill="#0071BC"><g><g><path d="M 10.203125 -9.796875 L 10.203125 0 L 7.65625 0 L 7.65625 -1.65625 L 6.90625 -0.40625 C 6.238281 0.03125 5.453125 0.25 4.546875 0.25 C 3.578125 0.25 2.785156 0.015625 2.171875 -0.453125 C 1.566406 -0.921875 1.207031 -1.515625 1.09375 -2.234375 C 1.03125 -2.648438 1 -3.242188 1 -4.015625 L 1 -9.796875 L 3.53125 -9.796875 L 3.53125 -4.546875 C 3.53125 -4.085938 3.554688 -3.640625 3.609375 -3.203125 C 3.742188 -2.097656 4.375 -1.546875 5.5 -1.546875 C 6.164062 -1.546875 6.691406 -1.820312 7.078125 -2.375 C 7.460938 -2.925781 7.65625 -3.734375 7.65625 -4.796875 L 7.65625 -9.796875 Z M 10.203125 -9.796875" transform="translate(234.969 285.521)"/></g></g></g></svg>